G04 #@! TF.GenerationSoftware,KiCad,Pcbnew,(5.1.8)-1*
G04 #@! TF.CreationDate,2022-01-29T23:12:44+01:00*
G04 #@! TF.ProjectId,PlayOnTape Module,506c6179-4f6e-4546-9170-65204d6f6475,rev?*
G04 #@! TF.SameCoordinates,Original*
G04 #@! TF.FileFunction,Soldermask,Bot*
G04 #@! TF.FilePolarity,Negative*
%FSLAX46Y46*%
G04 Gerber Fmt 4.6, Leading zero omitted, Abs format (unit mm)*
G04 Created by KiCad (PCBNEW (5.1.8)-1) date 2022-01-29 23:12:44*
%MOMM*%
%LPD*%
G01*
G04 APERTURE LIST*
%ADD10O,3.000000X5.000000*%
%ADD11O,1.700000X1.700000*%
%ADD12R,1.700000X1.700000*%
%ADD13R,2.200000X11.000000*%
%ADD14R,1.524000X1.524000*%
%ADD15C,1.524000*%
%ADD16C,2.500000*%
%ADD17R,1.600000X1.600000*%
%ADD18C,1.600000*%
%ADD19O,1.600000X1.600000*%
%ADD20C,5.000000*%
%ADD21R,1.800000X1.800000*%
%ADD22C,1.800000*%
%ADD23C,2.100000*%
%ADD24C,1.750000*%
%ADD25R,2.400000X1.600000*%
%ADD26O,2.400000X1.600000*%
%ADD27R,1.600000X2.400000*%
%ADD28O,1.600000X2.400000*%
G04 APERTURE END LIST*
D10*
X133985000Y-81407000D03*
X126365000Y-81407000D03*
D11*
X136525000Y-88265000D03*
X133985000Y-88265000D03*
X131445000Y-88265000D03*
X128905000Y-88265000D03*
X126365000Y-88265000D03*
D12*
X123825000Y-88265000D03*
D13*
X106261500Y-84606500D03*
X102301500Y-84606500D03*
X98341500Y-84606500D03*
X94381500Y-84606500D03*
X90421500Y-84606500D03*
X86461500Y-84606500D03*
D14*
X116525000Y-107950000D03*
D15*
X119065000Y-107950000D03*
X121605000Y-107950000D03*
X124145000Y-107950000D03*
D16*
X132085000Y-132450000D03*
D17*
X109220000Y-116205000D03*
D18*
X109220000Y-118745000D03*
X109220000Y-121285000D03*
X109220000Y-123825000D03*
X109220000Y-126365000D03*
X109220000Y-128905000D03*
D11*
X72390000Y-100330000D03*
X72390000Y-97790000D03*
D12*
X72390000Y-95250000D03*
D17*
X161290000Y-117475000D03*
D19*
X146050000Y-84455000D03*
X161290000Y-114935000D03*
X146050000Y-86995000D03*
X161290000Y-112395000D03*
X146050000Y-89535000D03*
X161290000Y-109855000D03*
X146050000Y-92075000D03*
X161290000Y-107315000D03*
X146050000Y-94615000D03*
X161290000Y-104775000D03*
X146050000Y-97155000D03*
X161290000Y-102235000D03*
X146050000Y-99695000D03*
X161290000Y-99695000D03*
X146050000Y-102235000D03*
X161290000Y-97155000D03*
X146050000Y-104775000D03*
X161290000Y-94615000D03*
X146050000Y-107315000D03*
X161290000Y-92075000D03*
X146050000Y-109855000D03*
X161290000Y-89535000D03*
X146050000Y-112395000D03*
X161290000Y-86995000D03*
X146050000Y-114935000D03*
X161290000Y-84455000D03*
X146050000Y-117475000D03*
X161290000Y-81915000D03*
X146050000Y-81915000D03*
D12*
X168275000Y-95250000D03*
D11*
X168275000Y-97790000D03*
X168275000Y-100330000D03*
X168275000Y-102870000D03*
X168275000Y-105410000D03*
X168275000Y-107950000D03*
X168275000Y-110490000D03*
D20*
X73660000Y-139065000D03*
X167005000Y-139065000D03*
X167005000Y-81280000D03*
X73660000Y-81280000D03*
D17*
X141605000Y-94615000D03*
D18*
X139105000Y-94615000D03*
D21*
X80645000Y-137160000D03*
D22*
X80645000Y-139700000D03*
D12*
X168275000Y-113030000D03*
D11*
X168275000Y-115570000D03*
X168275000Y-118110000D03*
D19*
X115227100Y-118745000D03*
D18*
X115227100Y-128905000D03*
D23*
X127590000Y-137210000D03*
D24*
X128850000Y-139700000D03*
X133350000Y-139700000D03*
D23*
X134600000Y-137210000D03*
X149840000Y-137210000D03*
D24*
X148590000Y-139700000D03*
X144090000Y-139700000D03*
D23*
X142830000Y-137210000D03*
X108565000Y-137210000D03*
D24*
X107315000Y-139700000D03*
X102815000Y-139700000D03*
D23*
X101555000Y-137210000D03*
X86315000Y-137210000D03*
D24*
X87575000Y-139700000D03*
X92075000Y-139700000D03*
D23*
X93325000Y-137210000D03*
D18*
X78740000Y-99060000D03*
X78740000Y-104060000D03*
D21*
X160020000Y-137160000D03*
D22*
X160020000Y-139700000D03*
D19*
X132080000Y-118110000D03*
D18*
X132080000Y-107950000D03*
X161925000Y-133350000D03*
D19*
X161925000Y-123190000D03*
D25*
X149860000Y-125730000D03*
D26*
X157480000Y-130810000D03*
X149860000Y-128270000D03*
X157480000Y-128270000D03*
X149860000Y-130810000D03*
X157480000Y-125730000D03*
D27*
X82550000Y-105410000D03*
D28*
X100330000Y-97790000D03*
X85090000Y-105410000D03*
X97790000Y-97790000D03*
X87630000Y-105410000D03*
X95250000Y-97790000D03*
X90170000Y-105410000D03*
X92710000Y-97790000D03*
X92710000Y-105410000D03*
X90170000Y-97790000D03*
X95250000Y-105410000D03*
X87630000Y-97790000D03*
X97790000Y-105410000D03*
X85090000Y-97790000D03*
X100330000Y-105410000D03*
X82550000Y-97790000D03*
M02*
