G04 #@! TF.GenerationSoftware,KiCad,Pcbnew,(5.1.8)-1*
G04 #@! TF.CreationDate,2022-02-20T18:46:50+01:00*
G04 #@! TF.ProjectId,PlayOnTape Module,506c6179-4f6e-4546-9170-65204d6f6475,rev?*
G04 #@! TF.SameCoordinates,Original*
G04 #@! TF.FileFunction,Legend,Top*
G04 #@! TF.FilePolarity,Positive*
%FSLAX46Y46*%
G04 Gerber Fmt 4.6, Leading zero omitted, Abs format (unit mm)*
G04 Created by KiCad (PCBNEW (5.1.8)-1) date 2022-02-20 18:46:50*
%MOMM*%
%LPD*%
G01*
G04 APERTURE LIST*
%ADD10C,0.150000*%
%ADD11C,0.100000*%
%ADD12C,0.120000*%
%ADD13C,0.010000*%
%ADD14C,0.110000*%
G04 APERTURE END LIST*
D10*
X115030952Y-102497380D02*
X115030952Y-101497380D01*
X115411904Y-101497380D01*
X115507142Y-101545000D01*
X115554761Y-101592619D01*
X115602380Y-101687857D01*
X115602380Y-101830714D01*
X115554761Y-101925952D01*
X115507142Y-101973571D01*
X115411904Y-102021190D01*
X115030952Y-102021190D01*
X116602380Y-102402142D02*
X116554761Y-102449761D01*
X116411904Y-102497380D01*
X116316666Y-102497380D01*
X116173809Y-102449761D01*
X116078571Y-102354523D01*
X116030952Y-102259285D01*
X115983333Y-102068809D01*
X115983333Y-101925952D01*
X116030952Y-101735476D01*
X116078571Y-101640238D01*
X116173809Y-101545000D01*
X116316666Y-101497380D01*
X116411904Y-101497380D01*
X116554761Y-101545000D01*
X116602380Y-101592619D01*
X117364285Y-101973571D02*
X117507142Y-102021190D01*
X117554761Y-102068809D01*
X117602380Y-102164047D01*
X117602380Y-102306904D01*
X117554761Y-102402142D01*
X117507142Y-102449761D01*
X117411904Y-102497380D01*
X117030952Y-102497380D01*
X117030952Y-101497380D01*
X117364285Y-101497380D01*
X117459523Y-101545000D01*
X117507142Y-101592619D01*
X117554761Y-101687857D01*
X117554761Y-101783095D01*
X117507142Y-101878333D01*
X117459523Y-101925952D01*
X117364285Y-101973571D01*
X117030952Y-101973571D01*
X119364285Y-102497380D02*
X119030952Y-102021190D01*
X118792857Y-102497380D02*
X118792857Y-101497380D01*
X119173809Y-101497380D01*
X119269047Y-101545000D01*
X119316666Y-101592619D01*
X119364285Y-101687857D01*
X119364285Y-101830714D01*
X119316666Y-101925952D01*
X119269047Y-101973571D01*
X119173809Y-102021190D01*
X118792857Y-102021190D01*
X120173809Y-102449761D02*
X120078571Y-102497380D01*
X119888095Y-102497380D01*
X119792857Y-102449761D01*
X119745238Y-102354523D01*
X119745238Y-101973571D01*
X119792857Y-101878333D01*
X119888095Y-101830714D01*
X120078571Y-101830714D01*
X120173809Y-101878333D01*
X120221428Y-101973571D01*
X120221428Y-102068809D01*
X119745238Y-102164047D01*
X120554761Y-101830714D02*
X120792857Y-102497380D01*
X121030952Y-101830714D01*
X121411904Y-102497380D02*
X121411904Y-101830714D01*
X121411904Y-101497380D02*
X121364285Y-101545000D01*
X121411904Y-101592619D01*
X121459523Y-101545000D01*
X121411904Y-101497380D01*
X121411904Y-101592619D01*
X121840476Y-102449761D02*
X121935714Y-102497380D01*
X122126190Y-102497380D01*
X122221428Y-102449761D01*
X122269047Y-102354523D01*
X122269047Y-102306904D01*
X122221428Y-102211666D01*
X122126190Y-102164047D01*
X121983333Y-102164047D01*
X121888095Y-102116428D01*
X121840476Y-102021190D01*
X121840476Y-101973571D01*
X121888095Y-101878333D01*
X121983333Y-101830714D01*
X122126190Y-101830714D01*
X122221428Y-101878333D01*
X122697619Y-102497380D02*
X122697619Y-101830714D01*
X122697619Y-101497380D02*
X122650000Y-101545000D01*
X122697619Y-101592619D01*
X122745238Y-101545000D01*
X122697619Y-101497380D01*
X122697619Y-101592619D01*
X123316666Y-102497380D02*
X123221428Y-102449761D01*
X123173809Y-102402142D01*
X123126190Y-102306904D01*
X123126190Y-102021190D01*
X123173809Y-101925952D01*
X123221428Y-101878333D01*
X123316666Y-101830714D01*
X123459523Y-101830714D01*
X123554761Y-101878333D01*
X123602380Y-101925952D01*
X123650000Y-102021190D01*
X123650000Y-102306904D01*
X123602380Y-102402142D01*
X123554761Y-102449761D01*
X123459523Y-102497380D01*
X123316666Y-102497380D01*
X124078571Y-101830714D02*
X124078571Y-102497380D01*
X124078571Y-101925952D02*
X124126190Y-101878333D01*
X124221428Y-101830714D01*
X124364285Y-101830714D01*
X124459523Y-101878333D01*
X124507142Y-101973571D01*
X124507142Y-102497380D01*
X126078571Y-101973571D02*
X126221428Y-102021190D01*
X126269047Y-102068809D01*
X126316666Y-102164047D01*
X126316666Y-102306904D01*
X126269047Y-102402142D01*
X126221428Y-102449761D01*
X126126190Y-102497380D01*
X125745238Y-102497380D01*
X125745238Y-101497380D01*
X126078571Y-101497380D01*
X126173809Y-101545000D01*
X126221428Y-101592619D01*
X126269047Y-101687857D01*
X126269047Y-101783095D01*
X126221428Y-101878333D01*
X126173809Y-101925952D01*
X126078571Y-101973571D01*
X125745238Y-101973571D01*
X115245238Y-103480714D02*
X115245238Y-104290238D01*
X115197619Y-104385476D01*
X115150000Y-104433095D01*
X115054761Y-104480714D01*
X114911904Y-104480714D01*
X114816666Y-104433095D01*
X115245238Y-104099761D02*
X115150000Y-104147380D01*
X114959523Y-104147380D01*
X114864285Y-104099761D01*
X114816666Y-104052142D01*
X114769047Y-103956904D01*
X114769047Y-103671190D01*
X114816666Y-103575952D01*
X114864285Y-103528333D01*
X114959523Y-103480714D01*
X115150000Y-103480714D01*
X115245238Y-103528333D01*
X115721428Y-104147380D02*
X115721428Y-103480714D01*
X115721428Y-103147380D02*
X115673809Y-103195000D01*
X115721428Y-103242619D01*
X115769047Y-103195000D01*
X115721428Y-103147380D01*
X115721428Y-103242619D01*
X116054761Y-103480714D02*
X116435714Y-103480714D01*
X116197619Y-103147380D02*
X116197619Y-104004523D01*
X116245238Y-104099761D01*
X116340476Y-104147380D01*
X116435714Y-104147380D01*
X116769047Y-104147380D02*
X116769047Y-103147380D01*
X117197619Y-104147380D02*
X117197619Y-103623571D01*
X117150000Y-103528333D01*
X117054761Y-103480714D01*
X116911904Y-103480714D01*
X116816666Y-103528333D01*
X116769047Y-103575952D01*
X118102380Y-103480714D02*
X118102380Y-104147380D01*
X117673809Y-103480714D02*
X117673809Y-104004523D01*
X117721428Y-104099761D01*
X117816666Y-104147380D01*
X117959523Y-104147380D01*
X118054761Y-104099761D01*
X118102380Y-104052142D01*
X118578571Y-104147380D02*
X118578571Y-103147380D01*
X118578571Y-103528333D02*
X118673809Y-103480714D01*
X118864285Y-103480714D01*
X118959523Y-103528333D01*
X119007142Y-103575952D01*
X119054761Y-103671190D01*
X119054761Y-103956904D01*
X119007142Y-104052142D01*
X118959523Y-104099761D01*
X118864285Y-104147380D01*
X118673809Y-104147380D01*
X118578571Y-104099761D01*
X119483333Y-104052142D02*
X119530952Y-104099761D01*
X119483333Y-104147380D01*
X119435714Y-104099761D01*
X119483333Y-104052142D01*
X119483333Y-104147380D01*
X120388095Y-104099761D02*
X120292857Y-104147380D01*
X120102380Y-104147380D01*
X120007142Y-104099761D01*
X119959523Y-104052142D01*
X119911904Y-103956904D01*
X119911904Y-103671190D01*
X119959523Y-103575952D01*
X120007142Y-103528333D01*
X120102380Y-103480714D01*
X120292857Y-103480714D01*
X120388095Y-103528333D01*
X120959523Y-104147380D02*
X120864285Y-104099761D01*
X120816666Y-104052142D01*
X120769047Y-103956904D01*
X120769047Y-103671190D01*
X120816666Y-103575952D01*
X120864285Y-103528333D01*
X120959523Y-103480714D01*
X121102380Y-103480714D01*
X121197619Y-103528333D01*
X121245238Y-103575952D01*
X121292857Y-103671190D01*
X121292857Y-103956904D01*
X121245238Y-104052142D01*
X121197619Y-104099761D01*
X121102380Y-104147380D01*
X120959523Y-104147380D01*
X121721428Y-104147380D02*
X121721428Y-103480714D01*
X121721428Y-103575952D02*
X121769047Y-103528333D01*
X121864285Y-103480714D01*
X122007142Y-103480714D01*
X122102380Y-103528333D01*
X122150000Y-103623571D01*
X122150000Y-104147380D01*
X122150000Y-103623571D02*
X122197619Y-103528333D01*
X122292857Y-103480714D01*
X122435714Y-103480714D01*
X122530952Y-103528333D01*
X122578571Y-103623571D01*
X122578571Y-104147380D01*
X123769047Y-103099761D02*
X122911904Y-104385476D01*
X123959523Y-103480714D02*
X124340476Y-103480714D01*
X124102380Y-103147380D02*
X124102380Y-104004523D01*
X124150000Y-104099761D01*
X124245238Y-104147380D01*
X124340476Y-104147380D01*
X125054761Y-104099761D02*
X124959523Y-104147380D01*
X124769047Y-104147380D01*
X124673809Y-104099761D01*
X124626190Y-104004523D01*
X124626190Y-103623571D01*
X124673809Y-103528333D01*
X124769047Y-103480714D01*
X124959523Y-103480714D01*
X125054761Y-103528333D01*
X125102380Y-103623571D01*
X125102380Y-103718809D01*
X124626190Y-103814047D01*
X125530952Y-104147380D02*
X125530952Y-103147380D01*
X125530952Y-103528333D02*
X125626190Y-103480714D01*
X125816666Y-103480714D01*
X125911904Y-103528333D01*
X125959523Y-103575952D01*
X126007142Y-103671190D01*
X126007142Y-103956904D01*
X125959523Y-104052142D01*
X125911904Y-104099761D01*
X125816666Y-104147380D01*
X125626190Y-104147380D01*
X125530952Y-104099761D01*
X126578571Y-104147380D02*
X126483333Y-104099761D01*
X126435714Y-104004523D01*
X126435714Y-103147380D01*
D11*
X136848809Y-86396619D02*
X136886904Y-86282333D01*
X136886904Y-86091857D01*
X136848809Y-86015666D01*
X136810714Y-85977571D01*
X136734523Y-85939476D01*
X136658333Y-85939476D01*
X136582142Y-85977571D01*
X136544047Y-86015666D01*
X136505952Y-86091857D01*
X136467857Y-86244238D01*
X136429761Y-86320428D01*
X136391666Y-86358523D01*
X136315476Y-86396619D01*
X136239285Y-86396619D01*
X136163095Y-86358523D01*
X136125000Y-86320428D01*
X136086904Y-86244238D01*
X136086904Y-86053761D01*
X136125000Y-85939476D01*
X136467857Y-85596619D02*
X136467857Y-85329952D01*
X136886904Y-85215666D02*
X136886904Y-85596619D01*
X136086904Y-85596619D01*
X136086904Y-85215666D01*
X136886904Y-84872809D02*
X136086904Y-84872809D01*
X136886904Y-84415666D01*
X136086904Y-84415666D01*
X136848809Y-84072809D02*
X136886904Y-83958523D01*
X136886904Y-83768047D01*
X136848809Y-83691857D01*
X136810714Y-83653761D01*
X136734523Y-83615666D01*
X136658333Y-83615666D01*
X136582142Y-83653761D01*
X136544047Y-83691857D01*
X136505952Y-83768047D01*
X136467857Y-83920428D01*
X136429761Y-83996619D01*
X136391666Y-84034714D01*
X136315476Y-84072809D01*
X136239285Y-84072809D01*
X136163095Y-84034714D01*
X136125000Y-83996619D01*
X136086904Y-83920428D01*
X136086904Y-83729952D01*
X136125000Y-83615666D01*
X136467857Y-83272809D02*
X136467857Y-83006142D01*
X136886904Y-82891857D02*
X136886904Y-83272809D01*
X136086904Y-83272809D01*
X136086904Y-82891857D01*
X133546904Y-86434714D02*
X134346904Y-86244238D01*
X133775476Y-86091857D01*
X134346904Y-85939476D01*
X133546904Y-85749000D01*
X134346904Y-84987095D02*
X133965952Y-85253761D01*
X134346904Y-85444238D02*
X133546904Y-85444238D01*
X133546904Y-85139476D01*
X133585000Y-85063285D01*
X133623095Y-85025190D01*
X133699285Y-84987095D01*
X133813571Y-84987095D01*
X133889761Y-85025190D01*
X133927857Y-85063285D01*
X133965952Y-85139476D01*
X133965952Y-85444238D01*
X134346904Y-84644238D02*
X133546904Y-84644238D01*
X133546904Y-84377571D02*
X133546904Y-83920428D01*
X134346904Y-84149000D02*
X133546904Y-84149000D01*
X133927857Y-83653761D02*
X133927857Y-83387095D01*
X134346904Y-83272809D02*
X134346904Y-83653761D01*
X133546904Y-83653761D01*
X133546904Y-83272809D01*
X131806904Y-85901380D02*
X131425952Y-86168047D01*
X131806904Y-86358523D02*
X131006904Y-86358523D01*
X131006904Y-86053761D01*
X131045000Y-85977571D01*
X131083095Y-85939476D01*
X131159285Y-85901380D01*
X131273571Y-85901380D01*
X131349761Y-85939476D01*
X131387857Y-85977571D01*
X131425952Y-86053761D01*
X131425952Y-86358523D01*
X131387857Y-85558523D02*
X131387857Y-85291857D01*
X131806904Y-85177571D02*
X131806904Y-85558523D01*
X131006904Y-85558523D01*
X131006904Y-85177571D01*
X131578333Y-84872809D02*
X131578333Y-84491857D01*
X131806904Y-84949000D02*
X131006904Y-84682333D01*
X131806904Y-84415666D01*
X131806904Y-84149000D02*
X131006904Y-84149000D01*
X131006904Y-83958523D01*
X131045000Y-83844238D01*
X131121190Y-83768047D01*
X131197380Y-83729952D01*
X131349761Y-83691857D01*
X131464047Y-83691857D01*
X131616428Y-83729952D01*
X131692619Y-83768047D01*
X131768809Y-83844238D01*
X131806904Y-83958523D01*
X131806904Y-84149000D01*
X129266904Y-86358523D02*
X128466904Y-86358523D01*
X129038333Y-86091857D01*
X128466904Y-85825190D01*
X129266904Y-85825190D01*
X128466904Y-85291857D02*
X128466904Y-85139476D01*
X128505000Y-85063285D01*
X128581190Y-84987095D01*
X128733571Y-84949000D01*
X129000238Y-84949000D01*
X129152619Y-84987095D01*
X129228809Y-85063285D01*
X129266904Y-85139476D01*
X129266904Y-85291857D01*
X129228809Y-85368047D01*
X129152619Y-85444238D01*
X129000238Y-85482333D01*
X128733571Y-85482333D01*
X128581190Y-85444238D01*
X128505000Y-85368047D01*
X128466904Y-85291857D01*
X128466904Y-84720428D02*
X128466904Y-84263285D01*
X129266904Y-84491857D02*
X128466904Y-84491857D01*
X128466904Y-83844238D02*
X128466904Y-83691857D01*
X128505000Y-83615666D01*
X128581190Y-83539476D01*
X128733571Y-83501380D01*
X129000238Y-83501380D01*
X129152619Y-83539476D01*
X129228809Y-83615666D01*
X129266904Y-83691857D01*
X129266904Y-83844238D01*
X129228809Y-83920428D01*
X129152619Y-83996619D01*
X129000238Y-84034714D01*
X128733571Y-84034714D01*
X128581190Y-83996619D01*
X128505000Y-83920428D01*
X128466904Y-83844238D01*
X129266904Y-82701380D02*
X128885952Y-82968047D01*
X129266904Y-83158523D02*
X128466904Y-83158523D01*
X128466904Y-82853761D01*
X128505000Y-82777571D01*
X128543095Y-82739476D01*
X128619285Y-82701380D01*
X128733571Y-82701380D01*
X128809761Y-82739476D01*
X128847857Y-82777571D01*
X128885952Y-82853761D01*
X128885952Y-83158523D01*
X125926904Y-86472809D02*
X126726904Y-86206142D01*
X125926904Y-85939476D01*
X126650714Y-85215666D02*
X126688809Y-85253761D01*
X126726904Y-85368047D01*
X126726904Y-85444238D01*
X126688809Y-85558523D01*
X126612619Y-85634714D01*
X126536428Y-85672809D01*
X126384047Y-85710904D01*
X126269761Y-85710904D01*
X126117380Y-85672809D01*
X126041190Y-85634714D01*
X125965000Y-85558523D01*
X125926904Y-85444238D01*
X125926904Y-85368047D01*
X125965000Y-85253761D01*
X126003095Y-85215666D01*
X126650714Y-84415666D02*
X126688809Y-84453761D01*
X126726904Y-84568047D01*
X126726904Y-84644238D01*
X126688809Y-84758523D01*
X126612619Y-84834714D01*
X126536428Y-84872809D01*
X126384047Y-84910904D01*
X126269761Y-84910904D01*
X126117380Y-84872809D01*
X126041190Y-84834714D01*
X125965000Y-84758523D01*
X125926904Y-84644238D01*
X125926904Y-84568047D01*
X125965000Y-84453761D01*
X126003095Y-84415666D01*
X123425000Y-85939476D02*
X123386904Y-86015666D01*
X123386904Y-86129952D01*
X123425000Y-86244238D01*
X123501190Y-86320428D01*
X123577380Y-86358523D01*
X123729761Y-86396619D01*
X123844047Y-86396619D01*
X123996428Y-86358523D01*
X124072619Y-86320428D01*
X124148809Y-86244238D01*
X124186904Y-86129952D01*
X124186904Y-86053761D01*
X124148809Y-85939476D01*
X124110714Y-85901380D01*
X123844047Y-85901380D01*
X123844047Y-86053761D01*
X124186904Y-85558523D02*
X123386904Y-85558523D01*
X124186904Y-85101380D01*
X123386904Y-85101380D01*
X124186904Y-84720428D02*
X123386904Y-84720428D01*
X123386904Y-84529952D01*
X123425000Y-84415666D01*
X123501190Y-84339476D01*
X123577380Y-84301380D01*
X123729761Y-84263285D01*
X123844047Y-84263285D01*
X123996428Y-84301380D01*
X124072619Y-84339476D01*
X124148809Y-84415666D01*
X124186904Y-84529952D01*
X124186904Y-84720428D01*
X123488571Y-110178809D02*
X123602857Y-110216904D01*
X123793333Y-110216904D01*
X123869523Y-110178809D01*
X123907619Y-110140714D01*
X123945714Y-110064523D01*
X123945714Y-109988333D01*
X123907619Y-109912142D01*
X123869523Y-109874047D01*
X123793333Y-109835952D01*
X123640952Y-109797857D01*
X123564761Y-109759761D01*
X123526666Y-109721666D01*
X123488571Y-109645476D01*
X123488571Y-109569285D01*
X123526666Y-109493095D01*
X123564761Y-109455000D01*
X123640952Y-109416904D01*
X123831428Y-109416904D01*
X123945714Y-109455000D01*
X124288571Y-110216904D02*
X124288571Y-109416904D01*
X124479047Y-109416904D01*
X124593333Y-109455000D01*
X124669523Y-109531190D01*
X124707619Y-109607380D01*
X124745714Y-109759761D01*
X124745714Y-109874047D01*
X124707619Y-110026428D01*
X124669523Y-110102619D01*
X124593333Y-110178809D01*
X124479047Y-110216904D01*
X124288571Y-110216904D01*
X125050476Y-109988333D02*
X125431428Y-109988333D01*
X124974285Y-110216904D02*
X125240952Y-109416904D01*
X125507619Y-110216904D01*
X120967619Y-110178809D02*
X121081904Y-110216904D01*
X121272380Y-110216904D01*
X121348571Y-110178809D01*
X121386666Y-110140714D01*
X121424761Y-110064523D01*
X121424761Y-109988333D01*
X121386666Y-109912142D01*
X121348571Y-109874047D01*
X121272380Y-109835952D01*
X121120000Y-109797857D01*
X121043809Y-109759761D01*
X121005714Y-109721666D01*
X120967619Y-109645476D01*
X120967619Y-109569285D01*
X121005714Y-109493095D01*
X121043809Y-109455000D01*
X121120000Y-109416904D01*
X121310476Y-109416904D01*
X121424761Y-109455000D01*
X122224761Y-110140714D02*
X122186666Y-110178809D01*
X122072380Y-110216904D01*
X121996190Y-110216904D01*
X121881904Y-110178809D01*
X121805714Y-110102619D01*
X121767619Y-110026428D01*
X121729523Y-109874047D01*
X121729523Y-109759761D01*
X121767619Y-109607380D01*
X121805714Y-109531190D01*
X121881904Y-109455000D01*
X121996190Y-109416904D01*
X122072380Y-109416904D01*
X122186666Y-109455000D01*
X122224761Y-109493095D01*
X122948571Y-110216904D02*
X122567619Y-110216904D01*
X122567619Y-109416904D01*
X118313333Y-109416904D02*
X118580000Y-110216904D01*
X118846666Y-109416904D01*
X119570476Y-110140714D02*
X119532380Y-110178809D01*
X119418095Y-110216904D01*
X119341904Y-110216904D01*
X119227619Y-110178809D01*
X119151428Y-110102619D01*
X119113333Y-110026428D01*
X119075238Y-109874047D01*
X119075238Y-109759761D01*
X119113333Y-109607380D01*
X119151428Y-109531190D01*
X119227619Y-109455000D01*
X119341904Y-109416904D01*
X119418095Y-109416904D01*
X119532380Y-109455000D01*
X119570476Y-109493095D01*
X120370476Y-110140714D02*
X120332380Y-110178809D01*
X120218095Y-110216904D01*
X120141904Y-110216904D01*
X120027619Y-110178809D01*
X119951428Y-110102619D01*
X119913333Y-110026428D01*
X119875238Y-109874047D01*
X119875238Y-109759761D01*
X119913333Y-109607380D01*
X119951428Y-109531190D01*
X120027619Y-109455000D01*
X120141904Y-109416904D01*
X120218095Y-109416904D01*
X120332380Y-109455000D01*
X120370476Y-109493095D01*
X116230476Y-109455000D02*
X116154285Y-109416904D01*
X116040000Y-109416904D01*
X115925714Y-109455000D01*
X115849523Y-109531190D01*
X115811428Y-109607380D01*
X115773333Y-109759761D01*
X115773333Y-109874047D01*
X115811428Y-110026428D01*
X115849523Y-110102619D01*
X115925714Y-110178809D01*
X116040000Y-110216904D01*
X116116190Y-110216904D01*
X116230476Y-110178809D01*
X116268571Y-110140714D01*
X116268571Y-109874047D01*
X116116190Y-109874047D01*
X116611428Y-110216904D02*
X116611428Y-109416904D01*
X117068571Y-110216904D01*
X117068571Y-109416904D01*
X117449523Y-110216904D02*
X117449523Y-109416904D01*
X117640000Y-109416904D01*
X117754285Y-109455000D01*
X117830476Y-109531190D01*
X117868571Y-109607380D01*
X117906666Y-109759761D01*
X117906666Y-109874047D01*
X117868571Y-110026428D01*
X117830476Y-110102619D01*
X117754285Y-110178809D01*
X117640000Y-110216904D01*
X117449523Y-110216904D01*
G36*
X127762000Y-86995000D02*
G01*
X127762000Y-89535000D01*
X127508000Y-89535000D01*
X127508000Y-86995000D01*
X127762000Y-86995000D01*
G37*
X127762000Y-86995000D02*
X127762000Y-89535000D01*
X127508000Y-89535000D01*
X127508000Y-86995000D01*
X127762000Y-86995000D01*
D12*
X122495000Y-89595000D02*
X122495000Y-86935000D01*
X122495000Y-86935000D02*
X137855000Y-86935000D01*
X122495000Y-89595000D02*
X137855000Y-89595000D01*
X137855000Y-89595000D02*
X137855000Y-86935000D01*
D13*
G36*
X155219290Y-139114067D02*
G01*
X155164800Y-139215194D01*
X155150414Y-139231321D01*
X155108202Y-139264243D01*
X155023011Y-139321095D01*
X154901029Y-139398086D01*
X154748446Y-139491421D01*
X154571451Y-139597310D01*
X154376231Y-139711959D01*
X154197914Y-139815000D01*
X153985000Y-139937147D01*
X153778494Y-140055686D01*
X153585790Y-140166366D01*
X153414282Y-140264938D01*
X153271364Y-140347155D01*
X153164428Y-140408765D01*
X153111949Y-140439092D01*
X152966012Y-140515649D01*
X152851910Y-140554575D01*
X152760121Y-140556655D01*
X152681128Y-140522674D01*
X152629410Y-140478918D01*
X152546914Y-140396422D01*
X152546914Y-137743522D01*
X152619978Y-137656690D01*
X152652593Y-137619810D01*
X152684877Y-137591749D01*
X152721247Y-137574259D01*
X152766116Y-137569090D01*
X152823902Y-137577996D01*
X152899017Y-137602727D01*
X152995879Y-137645035D01*
X153118902Y-137706673D01*
X153272501Y-137789391D01*
X153461092Y-137894942D01*
X153689089Y-138025077D01*
X153960908Y-138181548D01*
X154000659Y-138204471D01*
X154230489Y-138337804D01*
X154446859Y-138464832D01*
X154644482Y-138582343D01*
X154818072Y-138687125D01*
X154962343Y-138775966D01*
X155072009Y-138845655D01*
X155141782Y-138892980D01*
X155164525Y-138911601D01*
X155219307Y-139010425D01*
X155219290Y-139114067D01*
G37*
X155219290Y-139114067D02*
X155164800Y-139215194D01*
X155150414Y-139231321D01*
X155108202Y-139264243D01*
X155023011Y-139321095D01*
X154901029Y-139398086D01*
X154748446Y-139491421D01*
X154571451Y-139597310D01*
X154376231Y-139711959D01*
X154197914Y-139815000D01*
X153985000Y-139937147D01*
X153778494Y-140055686D01*
X153585790Y-140166366D01*
X153414282Y-140264938D01*
X153271364Y-140347155D01*
X153164428Y-140408765D01*
X153111949Y-140439092D01*
X152966012Y-140515649D01*
X152851910Y-140554575D01*
X152760121Y-140556655D01*
X152681128Y-140522674D01*
X152629410Y-140478918D01*
X152546914Y-140396422D01*
X152546914Y-137743522D01*
X152619978Y-137656690D01*
X152652593Y-137619810D01*
X152684877Y-137591749D01*
X152721247Y-137574259D01*
X152766116Y-137569090D01*
X152823902Y-137577996D01*
X152899017Y-137602727D01*
X152995879Y-137645035D01*
X153118902Y-137706673D01*
X153272501Y-137789391D01*
X153461092Y-137894942D01*
X153689089Y-138025077D01*
X153960908Y-138181548D01*
X154000659Y-138204471D01*
X154230489Y-138337804D01*
X154446859Y-138464832D01*
X154644482Y-138582343D01*
X154818072Y-138687125D01*
X154962343Y-138775966D01*
X155072009Y-138845655D01*
X155141782Y-138892980D01*
X155164525Y-138911601D01*
X155219307Y-139010425D01*
X155219290Y-139114067D01*
G36*
X154269290Y-139114067D02*
G01*
X154214800Y-139215194D01*
X154200414Y-139231321D01*
X154158202Y-139264243D01*
X154073011Y-139321095D01*
X153951029Y-139398086D01*
X153798446Y-139491421D01*
X153621451Y-139597310D01*
X153426231Y-139711959D01*
X153247914Y-139815000D01*
X153035000Y-139937147D01*
X152828494Y-140055686D01*
X152635790Y-140166366D01*
X152464282Y-140264938D01*
X152321364Y-140347155D01*
X152214428Y-140408765D01*
X152161949Y-140439092D01*
X152016012Y-140515649D01*
X151901910Y-140554575D01*
X151810121Y-140556655D01*
X151731128Y-140522674D01*
X151679410Y-140478918D01*
X151596914Y-140396422D01*
X151596914Y-137743522D01*
X151669978Y-137656690D01*
X151702593Y-137619810D01*
X151734877Y-137591749D01*
X151771247Y-137574259D01*
X151816116Y-137569090D01*
X151873902Y-137577996D01*
X151949017Y-137602727D01*
X152045879Y-137645035D01*
X152168902Y-137706673D01*
X152322501Y-137789391D01*
X152511092Y-137894942D01*
X152739089Y-138025077D01*
X153010908Y-138181548D01*
X153050659Y-138204471D01*
X153280489Y-138337804D01*
X153496859Y-138464832D01*
X153694482Y-138582343D01*
X153868072Y-138687125D01*
X154012343Y-138775966D01*
X154122009Y-138845655D01*
X154191782Y-138892980D01*
X154214525Y-138911601D01*
X154269307Y-139010425D01*
X154269290Y-139114067D01*
G37*
X154269290Y-139114067D02*
X154214800Y-139215194D01*
X154200414Y-139231321D01*
X154158202Y-139264243D01*
X154073011Y-139321095D01*
X153951029Y-139398086D01*
X153798446Y-139491421D01*
X153621451Y-139597310D01*
X153426231Y-139711959D01*
X153247914Y-139815000D01*
X153035000Y-139937147D01*
X152828494Y-140055686D01*
X152635790Y-140166366D01*
X152464282Y-140264938D01*
X152321364Y-140347155D01*
X152214428Y-140408765D01*
X152161949Y-140439092D01*
X152016012Y-140515649D01*
X151901910Y-140554575D01*
X151810121Y-140556655D01*
X151731128Y-140522674D01*
X151679410Y-140478918D01*
X151596914Y-140396422D01*
X151596914Y-137743522D01*
X151669978Y-137656690D01*
X151702593Y-137619810D01*
X151734877Y-137591749D01*
X151771247Y-137574259D01*
X151816116Y-137569090D01*
X151873902Y-137577996D01*
X151949017Y-137602727D01*
X152045879Y-137645035D01*
X152168902Y-137706673D01*
X152322501Y-137789391D01*
X152511092Y-137894942D01*
X152739089Y-138025077D01*
X153010908Y-138181548D01*
X153050659Y-138204471D01*
X153280489Y-138337804D01*
X153496859Y-138464832D01*
X153694482Y-138582343D01*
X153868072Y-138687125D01*
X154012343Y-138775966D01*
X154122009Y-138845655D01*
X154191782Y-138892980D01*
X154214525Y-138911601D01*
X154269307Y-139010425D01*
X154269290Y-139114067D01*
G36*
X122275710Y-139015933D02*
G01*
X122330200Y-138914806D01*
X122344586Y-138898679D01*
X122386798Y-138865757D01*
X122471989Y-138808905D01*
X122593971Y-138731914D01*
X122746554Y-138638579D01*
X122923549Y-138532690D01*
X123118769Y-138418041D01*
X123297086Y-138315000D01*
X123510000Y-138192853D01*
X123716506Y-138074314D01*
X123909210Y-137963634D01*
X124080718Y-137865062D01*
X124223636Y-137782845D01*
X124330572Y-137721235D01*
X124383051Y-137690908D01*
X124528988Y-137614351D01*
X124643090Y-137575425D01*
X124734879Y-137573345D01*
X124813872Y-137607326D01*
X124865590Y-137651082D01*
X124948086Y-137733578D01*
X124948086Y-140386478D01*
X124875022Y-140473310D01*
X124842407Y-140510190D01*
X124810123Y-140538251D01*
X124773753Y-140555741D01*
X124728884Y-140560910D01*
X124671098Y-140552004D01*
X124595983Y-140527273D01*
X124499121Y-140484965D01*
X124376098Y-140423327D01*
X124222499Y-140340609D01*
X124033908Y-140235058D01*
X123805911Y-140104923D01*
X123534092Y-139948452D01*
X123494341Y-139925529D01*
X123264511Y-139792196D01*
X123048141Y-139665168D01*
X122850518Y-139547657D01*
X122676928Y-139442875D01*
X122532657Y-139354034D01*
X122422991Y-139284345D01*
X122353218Y-139237020D01*
X122330475Y-139218399D01*
X122275693Y-139119575D01*
X122275710Y-139015933D01*
G37*
X122275710Y-139015933D02*
X122330200Y-138914806D01*
X122344586Y-138898679D01*
X122386798Y-138865757D01*
X122471989Y-138808905D01*
X122593971Y-138731914D01*
X122746554Y-138638579D01*
X122923549Y-138532690D01*
X123118769Y-138418041D01*
X123297086Y-138315000D01*
X123510000Y-138192853D01*
X123716506Y-138074314D01*
X123909210Y-137963634D01*
X124080718Y-137865062D01*
X124223636Y-137782845D01*
X124330572Y-137721235D01*
X124383051Y-137690908D01*
X124528988Y-137614351D01*
X124643090Y-137575425D01*
X124734879Y-137573345D01*
X124813872Y-137607326D01*
X124865590Y-137651082D01*
X124948086Y-137733578D01*
X124948086Y-140386478D01*
X124875022Y-140473310D01*
X124842407Y-140510190D01*
X124810123Y-140538251D01*
X124773753Y-140555741D01*
X124728884Y-140560910D01*
X124671098Y-140552004D01*
X124595983Y-140527273D01*
X124499121Y-140484965D01*
X124376098Y-140423327D01*
X124222499Y-140340609D01*
X124033908Y-140235058D01*
X123805911Y-140104923D01*
X123534092Y-139948452D01*
X123494341Y-139925529D01*
X123264511Y-139792196D01*
X123048141Y-139665168D01*
X122850518Y-139547657D01*
X122676928Y-139442875D01*
X122532657Y-139354034D01*
X122422991Y-139284345D01*
X122353218Y-139237020D01*
X122330475Y-139218399D01*
X122275693Y-139119575D01*
X122275710Y-139015933D01*
G36*
X123225710Y-139015933D02*
G01*
X123280200Y-138914806D01*
X123294586Y-138898679D01*
X123336798Y-138865757D01*
X123421989Y-138808905D01*
X123543971Y-138731914D01*
X123696554Y-138638579D01*
X123873549Y-138532690D01*
X124068769Y-138418041D01*
X124247086Y-138315000D01*
X124460000Y-138192853D01*
X124666506Y-138074314D01*
X124859210Y-137963634D01*
X125030718Y-137865062D01*
X125173636Y-137782845D01*
X125280572Y-137721235D01*
X125333051Y-137690908D01*
X125478988Y-137614351D01*
X125593090Y-137575425D01*
X125684879Y-137573345D01*
X125763872Y-137607326D01*
X125815590Y-137651082D01*
X125898086Y-137733578D01*
X125898086Y-140386478D01*
X125825022Y-140473310D01*
X125792407Y-140510190D01*
X125760123Y-140538251D01*
X125723753Y-140555741D01*
X125678884Y-140560910D01*
X125621098Y-140552004D01*
X125545983Y-140527273D01*
X125449121Y-140484965D01*
X125326098Y-140423327D01*
X125172499Y-140340609D01*
X124983908Y-140235058D01*
X124755911Y-140104923D01*
X124484092Y-139948452D01*
X124444341Y-139925529D01*
X124214511Y-139792196D01*
X123998141Y-139665168D01*
X123800518Y-139547657D01*
X123626928Y-139442875D01*
X123482657Y-139354034D01*
X123372991Y-139284345D01*
X123303218Y-139237020D01*
X123280475Y-139218399D01*
X123225693Y-139119575D01*
X123225710Y-139015933D01*
G37*
X123225710Y-139015933D02*
X123280200Y-138914806D01*
X123294586Y-138898679D01*
X123336798Y-138865757D01*
X123421989Y-138808905D01*
X123543971Y-138731914D01*
X123696554Y-138638579D01*
X123873549Y-138532690D01*
X124068769Y-138418041D01*
X124247086Y-138315000D01*
X124460000Y-138192853D01*
X124666506Y-138074314D01*
X124859210Y-137963634D01*
X125030718Y-137865062D01*
X125173636Y-137782845D01*
X125280572Y-137721235D01*
X125333051Y-137690908D01*
X125478988Y-137614351D01*
X125593090Y-137575425D01*
X125684879Y-137573345D01*
X125763872Y-137607326D01*
X125815590Y-137651082D01*
X125898086Y-137733578D01*
X125898086Y-140386478D01*
X125825022Y-140473310D01*
X125792407Y-140510190D01*
X125760123Y-140538251D01*
X125723753Y-140555741D01*
X125678884Y-140560910D01*
X125621098Y-140552004D01*
X125545983Y-140527273D01*
X125449121Y-140484965D01*
X125326098Y-140423327D01*
X125172499Y-140340609D01*
X124983908Y-140235058D01*
X124755911Y-140104923D01*
X124484092Y-139948452D01*
X124444341Y-139925529D01*
X124214511Y-139792196D01*
X123998141Y-139665168D01*
X123800518Y-139547657D01*
X123626928Y-139442875D01*
X123482657Y-139354034D01*
X123372991Y-139284345D01*
X123303218Y-139237020D01*
X123280475Y-139218399D01*
X123225693Y-139119575D01*
X123225710Y-139015933D01*
D10*
X112620000Y-110905000D02*
X112620000Y-134205000D01*
X112620000Y-110905000D02*
X70420000Y-110905000D01*
X112620000Y-134205000D02*
X70420000Y-134205000D01*
X70420000Y-110905000D02*
X70420000Y-118005000D01*
X70420000Y-134205000D02*
X70420000Y-129105000D01*
X70420000Y-118005000D02*
X72420000Y-119380000D01*
X70420000Y-129105000D02*
X72420000Y-127500000D01*
X72420000Y-127500000D02*
X72420000Y-119380000D01*
D13*
G36*
X124768919Y-96722132D02*
G01*
X125201151Y-96722132D01*
X125201151Y-97154365D01*
X124768919Y-97154365D01*
X124768919Y-98044255D01*
X123879029Y-98044255D01*
X123879029Y-97154365D01*
X122099249Y-97154365D01*
X122099249Y-96264475D01*
X122989139Y-96264475D01*
X122989139Y-96722132D01*
X123879029Y-96722132D01*
X123879029Y-96264475D01*
X122989139Y-96264475D01*
X122989139Y-95834222D01*
X123211612Y-95826876D01*
X123434084Y-95819530D01*
X123441431Y-95597057D01*
X123448777Y-95374585D01*
X123879029Y-95374585D01*
X123879029Y-94942353D01*
X124768919Y-94942353D01*
X124768919Y-96722132D01*
G37*
X124768919Y-96722132D02*
X125201151Y-96722132D01*
X125201151Y-97154365D01*
X124768919Y-97154365D01*
X124768919Y-98044255D01*
X123879029Y-98044255D01*
X123879029Y-97154365D01*
X122099249Y-97154365D01*
X122099249Y-96264475D01*
X122989139Y-96264475D01*
X122989139Y-96722132D01*
X123879029Y-96722132D01*
X123879029Y-96264475D01*
X122989139Y-96264475D01*
X122989139Y-95834222D01*
X123211612Y-95826876D01*
X123434084Y-95819530D01*
X123441431Y-95597057D01*
X123448777Y-95374585D01*
X123879029Y-95374585D01*
X123879029Y-94942353D01*
X124768919Y-94942353D01*
X124768919Y-96722132D01*
G36*
X121209360Y-95374585D02*
G01*
X121667017Y-95374585D01*
X121667017Y-95806817D01*
X120777127Y-95806817D01*
X120777127Y-95374585D01*
X119887237Y-95374585D01*
X119887237Y-96264475D01*
X121207380Y-96264475D01*
X121214726Y-96486947D01*
X121222072Y-96709420D01*
X121444545Y-96716766D01*
X121667017Y-96724112D01*
X121667017Y-97584617D01*
X121444545Y-97591963D01*
X121222072Y-97599310D01*
X121214726Y-97821782D01*
X121207380Y-98044255D01*
X119456985Y-98044255D01*
X119449639Y-97821782D01*
X119442293Y-97599310D01*
X119219820Y-97591963D01*
X118997348Y-97584617D01*
X118997348Y-96696707D01*
X119887237Y-96696707D01*
X119887237Y-97612022D01*
X120777127Y-97612022D01*
X120777127Y-96696707D01*
X119887237Y-96696707D01*
X118997348Y-96696707D01*
X118997348Y-95374585D01*
X119455005Y-95374585D01*
X119455005Y-94942353D01*
X121209360Y-94942353D01*
X121209360Y-95374585D01*
G37*
X121209360Y-95374585D02*
X121667017Y-95374585D01*
X121667017Y-95806817D01*
X120777127Y-95806817D01*
X120777127Y-95374585D01*
X119887237Y-95374585D01*
X119887237Y-96264475D01*
X121207380Y-96264475D01*
X121214726Y-96486947D01*
X121222072Y-96709420D01*
X121444545Y-96716766D01*
X121667017Y-96724112D01*
X121667017Y-97584617D01*
X121444545Y-97591963D01*
X121222072Y-97599310D01*
X121214726Y-97821782D01*
X121207380Y-98044255D01*
X119456985Y-98044255D01*
X119449639Y-97821782D01*
X119442293Y-97599310D01*
X119219820Y-97591963D01*
X118997348Y-97584617D01*
X118997348Y-96696707D01*
X119887237Y-96696707D01*
X119887237Y-97612022D01*
X120777127Y-97612022D01*
X120777127Y-96696707D01*
X119887237Y-96696707D01*
X118997348Y-96696707D01*
X118997348Y-95374585D01*
X119455005Y-95374585D01*
X119455005Y-94942353D01*
X121209360Y-94942353D01*
X121209360Y-95374585D01*
G36*
X118107458Y-95374585D02*
G01*
X118565115Y-95374585D01*
X118565115Y-95806817D01*
X117675225Y-95806817D01*
X117675225Y-95374585D01*
X116785336Y-95374585D01*
X116785336Y-97612022D01*
X117675225Y-97612022D01*
X117675225Y-97154365D01*
X118565115Y-97154365D01*
X118565115Y-97584617D01*
X118342643Y-97591963D01*
X118120170Y-97599310D01*
X118112824Y-97821782D01*
X118105478Y-98044255D01*
X116355083Y-98044255D01*
X116347737Y-97821782D01*
X116340391Y-97599310D01*
X116117918Y-97591963D01*
X115895446Y-97584617D01*
X115895446Y-95374585D01*
X116353103Y-95374585D01*
X116353103Y-94942353D01*
X118107458Y-94942353D01*
X118107458Y-95374585D01*
G37*
X118107458Y-95374585D02*
X118565115Y-95374585D01*
X118565115Y-95806817D01*
X117675225Y-95806817D01*
X117675225Y-95374585D01*
X116785336Y-95374585D01*
X116785336Y-97612022D01*
X117675225Y-97612022D01*
X117675225Y-97154365D01*
X118565115Y-97154365D01*
X118565115Y-97584617D01*
X118342643Y-97591963D01*
X118120170Y-97599310D01*
X118112824Y-97821782D01*
X118105478Y-98044255D01*
X116355083Y-98044255D01*
X116347737Y-97821782D01*
X116340391Y-97599310D01*
X116117918Y-97591963D01*
X115895446Y-97584617D01*
X115895446Y-95374585D01*
X116353103Y-95374585D01*
X116353103Y-94942353D01*
X118107458Y-94942353D01*
X118107458Y-95374585D01*
G36*
X131816790Y-99220180D02*
G01*
X131824475Y-99353664D01*
X131957958Y-99361349D01*
X132091442Y-99369034D01*
X132091442Y-99900311D01*
X130998148Y-99900311D01*
X130998148Y-100179990D01*
X131811762Y-100179990D01*
X131811762Y-100459670D01*
X130718469Y-100459670D01*
X130718469Y-100179990D01*
X130438789Y-100179990D01*
X130438789Y-99620631D01*
X130998148Y-99620631D01*
X131560165Y-99620631D01*
X131552480Y-99487147D01*
X131544795Y-99353664D01*
X131271472Y-99346447D01*
X130998148Y-99339231D01*
X130998148Y-99620631D01*
X130438789Y-99620631D01*
X130438789Y-99369034D01*
X130572272Y-99361349D01*
X130705756Y-99353664D01*
X130713441Y-99220180D01*
X130721126Y-99086697D01*
X131809105Y-99086697D01*
X131816790Y-99220180D01*
G37*
X131816790Y-99220180D02*
X131824475Y-99353664D01*
X131957958Y-99361349D01*
X132091442Y-99369034D01*
X132091442Y-99900311D01*
X130998148Y-99900311D01*
X130998148Y-100179990D01*
X131811762Y-100179990D01*
X131811762Y-100459670D01*
X130718469Y-100459670D01*
X130718469Y-100179990D01*
X130438789Y-100179990D01*
X130438789Y-99620631D01*
X130998148Y-99620631D01*
X131560165Y-99620631D01*
X131552480Y-99487147D01*
X131544795Y-99353664D01*
X131271472Y-99346447D01*
X130998148Y-99339231D01*
X130998148Y-99620631D01*
X130438789Y-99620631D01*
X130438789Y-99369034D01*
X130572272Y-99361349D01*
X130705756Y-99353664D01*
X130713441Y-99220180D01*
X130721126Y-99086697D01*
X131809105Y-99086697D01*
X131816790Y-99220180D01*
G36*
X127952125Y-99220180D02*
G01*
X127959810Y-99353664D01*
X128093294Y-99361349D01*
X128226777Y-99369034D01*
X128226777Y-100459670D01*
X126853804Y-100459670D01*
X126853804Y-100179990D01*
X127133484Y-100179990D01*
X127695500Y-100179990D01*
X127687815Y-100046507D01*
X127680130Y-99913023D01*
X127406807Y-99905807D01*
X127133484Y-99898590D01*
X127133484Y-100179990D01*
X126853804Y-100179990D01*
X126574124Y-100179990D01*
X126574124Y-99900311D01*
X126853804Y-99900311D01*
X126853804Y-99620631D01*
X127695500Y-99620631D01*
X127687815Y-99487147D01*
X127680130Y-99353664D01*
X126853804Y-99339692D01*
X126853804Y-99086697D01*
X127944440Y-99086697D01*
X127952125Y-99220180D01*
G37*
X127952125Y-99220180D02*
X127959810Y-99353664D01*
X128093294Y-99361349D01*
X128226777Y-99369034D01*
X128226777Y-100459670D01*
X126853804Y-100459670D01*
X126853804Y-100179990D01*
X127133484Y-100179990D01*
X127695500Y-100179990D01*
X127687815Y-100046507D01*
X127680130Y-99913023D01*
X127406807Y-99905807D01*
X127133484Y-99898590D01*
X127133484Y-100179990D01*
X126853804Y-100179990D01*
X126574124Y-100179990D01*
X126574124Y-99900311D01*
X126853804Y-99900311D01*
X126853804Y-99620631D01*
X127695500Y-99620631D01*
X127687815Y-99487147D01*
X127680130Y-99353664D01*
X126853804Y-99339692D01*
X126853804Y-99086697D01*
X127944440Y-99086697D01*
X127952125Y-99220180D01*
G36*
X126294445Y-98807017D02*
G01*
X125735085Y-98807017D01*
X125735085Y-100459670D01*
X125201151Y-100459670D01*
X125201151Y-98807017D01*
X124641792Y-98807017D01*
X124641792Y-98527338D01*
X126294445Y-98527338D01*
X126294445Y-98807017D01*
G37*
X126294445Y-98807017D02*
X125735085Y-98807017D01*
X125735085Y-100459670D01*
X125201151Y-100459670D01*
X125201151Y-98807017D01*
X124641792Y-98807017D01*
X124641792Y-98527338D01*
X126294445Y-98527338D01*
X126294445Y-98807017D01*
G36*
X121875448Y-99220180D02*
G01*
X121883133Y-99353664D01*
X122016617Y-99361349D01*
X122150100Y-99369034D01*
X122150100Y-100459670D01*
X121617158Y-100459670D01*
X121603454Y-99353664D01*
X121330130Y-99346447D01*
X121056807Y-99339231D01*
X121056807Y-100459670D01*
X120497448Y-100459670D01*
X120497448Y-99086697D01*
X121867763Y-99086697D01*
X121875448Y-99220180D01*
G37*
X121875448Y-99220180D02*
X121883133Y-99353664D01*
X122016617Y-99361349D01*
X122150100Y-99369034D01*
X122150100Y-100459670D01*
X121617158Y-100459670D01*
X121603454Y-99353664D01*
X121330130Y-99346447D01*
X121056807Y-99339231D01*
X121056807Y-100459670D01*
X120497448Y-100459670D01*
X120497448Y-99086697D01*
X121867763Y-99086697D01*
X121875448Y-99220180D01*
G36*
X119943116Y-98660821D02*
G01*
X119950801Y-98794305D01*
X120084284Y-98801990D01*
X120217768Y-98809675D01*
X120217768Y-100179990D01*
X119938088Y-100179990D01*
X119938088Y-100459670D01*
X118844795Y-100459670D01*
X118844795Y-100179990D01*
X118565115Y-100179990D01*
X118565115Y-98807017D01*
X118844795Y-98807017D01*
X119124475Y-98807017D01*
X119124475Y-100179990D01*
X119683834Y-100179990D01*
X119683834Y-98807017D01*
X119124475Y-98807017D01*
X118844795Y-98807017D01*
X118844795Y-98527338D01*
X119935431Y-98527338D01*
X119943116Y-98660821D01*
G37*
X119943116Y-98660821D02*
X119950801Y-98794305D01*
X120084284Y-98801990D01*
X120217768Y-98809675D01*
X120217768Y-100179990D01*
X119938088Y-100179990D01*
X119938088Y-100459670D01*
X118844795Y-100459670D01*
X118844795Y-100179990D01*
X118565115Y-100179990D01*
X118565115Y-98807017D01*
X118844795Y-98807017D01*
X119124475Y-98807017D01*
X119124475Y-100179990D01*
X119683834Y-100179990D01*
X119683834Y-98807017D01*
X119124475Y-98807017D01*
X118844795Y-98807017D01*
X118844795Y-98527338D01*
X119935431Y-98527338D01*
X119943116Y-98660821D01*
G36*
X113866439Y-99220180D02*
G01*
X113874124Y-99353664D01*
X114007608Y-99361349D01*
X114141091Y-99369034D01*
X114141091Y-100459670D01*
X112768118Y-100459670D01*
X112768118Y-100179990D01*
X113047798Y-100179990D01*
X113609815Y-100179990D01*
X113602130Y-100046507D01*
X113594445Y-99913023D01*
X113321121Y-99905807D01*
X113047798Y-99898590D01*
X113047798Y-100179990D01*
X112768118Y-100179990D01*
X112488439Y-100179990D01*
X112488439Y-99900311D01*
X112768118Y-99900311D01*
X112768118Y-99620631D01*
X113609815Y-99620631D01*
X113602130Y-99487147D01*
X113594445Y-99353664D01*
X113181281Y-99346678D01*
X112768118Y-99339692D01*
X112768118Y-99086697D01*
X113858754Y-99086697D01*
X113866439Y-99220180D01*
G37*
X113866439Y-99220180D02*
X113874124Y-99353664D01*
X114007608Y-99361349D01*
X114141091Y-99369034D01*
X114141091Y-100459670D01*
X112768118Y-100459670D01*
X112768118Y-100179990D01*
X113047798Y-100179990D01*
X113609815Y-100179990D01*
X113602130Y-100046507D01*
X113594445Y-99913023D01*
X113321121Y-99905807D01*
X113047798Y-99898590D01*
X113047798Y-100179990D01*
X112768118Y-100179990D01*
X112488439Y-100179990D01*
X112488439Y-99900311D01*
X112768118Y-99900311D01*
X112768118Y-99620631D01*
X113609815Y-99620631D01*
X113602130Y-99487147D01*
X113594445Y-99353664D01*
X113181281Y-99346678D01*
X112768118Y-99339692D01*
X112768118Y-99086697D01*
X113858754Y-99086697D01*
X113866439Y-99220180D01*
G36*
X111954505Y-100179990D02*
G01*
X112208759Y-100179990D01*
X112208759Y-100459670D01*
X111115466Y-100459670D01*
X111115466Y-100179990D01*
X111395145Y-100179990D01*
X111395145Y-99086697D01*
X111115466Y-99086697D01*
X111115466Y-98807017D01*
X111954505Y-98807017D01*
X111954505Y-100179990D01*
G37*
X111954505Y-100179990D02*
X112208759Y-100179990D01*
X112208759Y-100459670D01*
X111115466Y-100459670D01*
X111115466Y-100179990D01*
X111395145Y-100179990D01*
X111395145Y-99086697D01*
X111115466Y-99086697D01*
X111115466Y-98807017D01*
X111954505Y-98807017D01*
X111954505Y-100179990D01*
G36*
X110561134Y-98660821D02*
G01*
X110568819Y-98794305D01*
X110702303Y-98801990D01*
X110835786Y-98809675D01*
X110835786Y-99338294D01*
X110702303Y-99345979D01*
X110568819Y-99353664D01*
X110561134Y-99487147D01*
X110553449Y-99620631D01*
X109742493Y-99620631D01*
X109742493Y-100459670D01*
X109183133Y-100459670D01*
X109183133Y-98807017D01*
X109742493Y-98807017D01*
X109742493Y-99368097D01*
X110015816Y-99360881D01*
X110289139Y-99353664D01*
X110296356Y-99080341D01*
X110303572Y-98807017D01*
X109742493Y-98807017D01*
X109183133Y-98807017D01*
X109183133Y-98527338D01*
X110553449Y-98527338D01*
X110561134Y-98660821D01*
G37*
X110561134Y-98660821D02*
X110568819Y-98794305D01*
X110702303Y-98801990D01*
X110835786Y-98809675D01*
X110835786Y-99338294D01*
X110702303Y-99345979D01*
X110568819Y-99353664D01*
X110561134Y-99487147D01*
X110553449Y-99620631D01*
X109742493Y-99620631D01*
X109742493Y-100459670D01*
X109183133Y-100459670D01*
X109183133Y-98807017D01*
X109742493Y-98807017D01*
X109742493Y-99368097D01*
X110015816Y-99360881D01*
X110289139Y-99353664D01*
X110296356Y-99080341D01*
X110303572Y-98807017D01*
X109742493Y-98807017D01*
X109183133Y-98807017D01*
X109183133Y-98527338D01*
X110553449Y-98527338D01*
X110561134Y-98660821D01*
G36*
X129884457Y-99220180D02*
G01*
X129892142Y-99353664D01*
X130025626Y-99361349D01*
X130159109Y-99369034D01*
X130159109Y-99897653D01*
X130025626Y-99905338D01*
X129892142Y-99913023D01*
X129884457Y-100046507D01*
X129876772Y-100179990D01*
X129065816Y-100179990D01*
X129065816Y-100739350D01*
X128506457Y-100739350D01*
X128506457Y-99900311D01*
X129065816Y-99900311D01*
X129626896Y-99900311D01*
X129619679Y-99626987D01*
X129612463Y-99353664D01*
X129339139Y-99346447D01*
X129065816Y-99339231D01*
X129065816Y-99900311D01*
X128506457Y-99900311D01*
X128506457Y-99086697D01*
X129876772Y-99086697D01*
X129884457Y-99220180D01*
G37*
X129884457Y-99220180D02*
X129892142Y-99353664D01*
X130025626Y-99361349D01*
X130159109Y-99369034D01*
X130159109Y-99897653D01*
X130025626Y-99905338D01*
X129892142Y-99913023D01*
X129884457Y-100046507D01*
X129876772Y-100179990D01*
X129065816Y-100179990D01*
X129065816Y-100739350D01*
X128506457Y-100739350D01*
X128506457Y-99900311D01*
X129065816Y-99900311D01*
X129626896Y-99900311D01*
X129619679Y-99626987D01*
X129612463Y-99353664D01*
X129339139Y-99346447D01*
X129065816Y-99339231D01*
X129065816Y-99900311D01*
X128506457Y-99900311D01*
X128506457Y-99086697D01*
X129876772Y-99086697D01*
X129884457Y-99220180D01*
G36*
X114980130Y-99900311D02*
G01*
X115539490Y-99900311D01*
X115539490Y-99086697D01*
X116073424Y-99086697D01*
X116073424Y-100179990D01*
X115793744Y-100179990D01*
X115793744Y-100459670D01*
X115514064Y-100459670D01*
X115514064Y-100739350D01*
X114420771Y-100739350D01*
X114420771Y-100459670D01*
X115259810Y-100459670D01*
X115259810Y-100179990D01*
X114700451Y-100179990D01*
X114700451Y-99900311D01*
X114420771Y-99900311D01*
X114420771Y-99086697D01*
X114980130Y-99086697D01*
X114980130Y-99900311D01*
G37*
X114980130Y-99900311D02*
X115539490Y-99900311D01*
X115539490Y-99086697D01*
X116073424Y-99086697D01*
X116073424Y-100179990D01*
X115793744Y-100179990D01*
X115793744Y-100459670D01*
X115514064Y-100459670D01*
X115514064Y-100739350D01*
X114420771Y-100739350D01*
X114420771Y-100459670D01*
X115259810Y-100459670D01*
X115259810Y-100179990D01*
X114700451Y-100179990D01*
X114700451Y-99900311D01*
X114420771Y-99900311D01*
X114420771Y-99086697D01*
X114980130Y-99086697D01*
X114980130Y-99900311D01*
D10*
X106635000Y-106650000D02*
X134035000Y-106650000D01*
X106635000Y-106650000D02*
X106635000Y-134250000D01*
X106635000Y-134250000D02*
X134035000Y-134250000D01*
X134035000Y-134250000D02*
X134035000Y-106650000D01*
D12*
X71060000Y-93920000D02*
X72390000Y-93920000D01*
X71060000Y-95250000D02*
X71060000Y-93920000D01*
X71060000Y-96520000D02*
X73720000Y-96520000D01*
X73720000Y-96520000D02*
X73720000Y-101660000D01*
X71060000Y-96520000D02*
X71060000Y-101660000D01*
X71060000Y-101660000D02*
X73720000Y-101660000D01*
X160020000Y-116205000D02*
X160020000Y-118745000D01*
X160020000Y-118745000D02*
X162690000Y-118745000D01*
X162690000Y-116205000D02*
X162690000Y-77975000D01*
X162690000Y-121415000D02*
X162690000Y-118745000D01*
X147320000Y-118745000D02*
X144650000Y-118745000D01*
X147320000Y-118745000D02*
X147320000Y-80645000D01*
X147320000Y-80645000D02*
X144650000Y-80645000D01*
X160020000Y-116205000D02*
X162690000Y-116205000D01*
X160020000Y-116205000D02*
X160020000Y-80645000D01*
X160020000Y-80645000D02*
X162690000Y-80645000D01*
X162690000Y-77975000D02*
X144650000Y-77975000D01*
X144650000Y-77975000D02*
X144650000Y-121415000D01*
X144650000Y-121415000D02*
X162690000Y-121415000D01*
X166945000Y-111820000D02*
X169605000Y-111820000D01*
X166945000Y-96520000D02*
X166945000Y-111820000D01*
X169605000Y-96520000D02*
X169605000Y-111820000D01*
X166945000Y-96520000D02*
X169605000Y-96520000D01*
X166945000Y-95250000D02*
X166945000Y-93920000D01*
X166945000Y-93920000D02*
X168275000Y-93920000D01*
X75946000Y-139065000D02*
G75*
G03*
X75946000Y-139065000I-2286000J0D01*
G01*
X169291000Y-139065000D02*
G75*
G03*
X169291000Y-139065000I-2286000J0D01*
G01*
X169291000Y-81280000D02*
G75*
G03*
X169291000Y-81280000I-2286000J0D01*
G01*
X75946000Y-81280000D02*
G75*
G03*
X75946000Y-81280000I-2286000J0D01*
G01*
D13*
G36*
X96538908Y-137595653D02*
G01*
X96667678Y-137647817D01*
X96774590Y-137705790D01*
X96848716Y-137748672D01*
X96964528Y-137815514D01*
X97114779Y-137902140D01*
X97292224Y-138004375D01*
X97489614Y-138118044D01*
X97699705Y-138238971D01*
X97882157Y-138343946D01*
X98089420Y-138464216D01*
X98282816Y-138578434D01*
X98456437Y-138682960D01*
X98604377Y-138774154D01*
X98720728Y-138848376D01*
X98799583Y-138901987D01*
X98834657Y-138930852D01*
X98884411Y-139032950D01*
X98878984Y-139137631D01*
X98818849Y-139238050D01*
X98813056Y-139244268D01*
X98770981Y-139276908D01*
X98685861Y-139333512D01*
X98563827Y-139410335D01*
X98411008Y-139503631D01*
X98233534Y-139609653D01*
X98037534Y-139724656D01*
X97846445Y-139834985D01*
X97632735Y-139957491D01*
X97426226Y-140075994D01*
X97234090Y-140186366D01*
X97063501Y-140284484D01*
X96921634Y-140366220D01*
X96815663Y-140427449D01*
X96760337Y-140459605D01*
X96610930Y-140536847D01*
X96492405Y-140573122D01*
X96397288Y-140568877D01*
X96318106Y-140524555D01*
X96282620Y-140488057D01*
X96209556Y-140401225D01*
X96209556Y-137756998D01*
X96282620Y-137670166D01*
X96354188Y-137607393D01*
X96437014Y-137582367D01*
X96538908Y-137595653D01*
G37*
X96538908Y-137595653D02*
X96667678Y-137647817D01*
X96774590Y-137705790D01*
X96848716Y-137748672D01*
X96964528Y-137815514D01*
X97114779Y-137902140D01*
X97292224Y-138004375D01*
X97489614Y-138118044D01*
X97699705Y-138238971D01*
X97882157Y-138343946D01*
X98089420Y-138464216D01*
X98282816Y-138578434D01*
X98456437Y-138682960D01*
X98604377Y-138774154D01*
X98720728Y-138848376D01*
X98799583Y-138901987D01*
X98834657Y-138930852D01*
X98884411Y-139032950D01*
X98878984Y-139137631D01*
X98818849Y-139238050D01*
X98813056Y-139244268D01*
X98770981Y-139276908D01*
X98685861Y-139333512D01*
X98563827Y-139410335D01*
X98411008Y-139503631D01*
X98233534Y-139609653D01*
X98037534Y-139724656D01*
X97846445Y-139834985D01*
X97632735Y-139957491D01*
X97426226Y-140075994D01*
X97234090Y-140186366D01*
X97063501Y-140284484D01*
X96921634Y-140366220D01*
X96815663Y-140427449D01*
X96760337Y-140459605D01*
X96610930Y-140536847D01*
X96492405Y-140573122D01*
X96397288Y-140568877D01*
X96318106Y-140524555D01*
X96282620Y-140488057D01*
X96209556Y-140401225D01*
X96209556Y-137756998D01*
X96282620Y-137670166D01*
X96354188Y-137607393D01*
X96437014Y-137582367D01*
X96538908Y-137595653D01*
G36*
X113784162Y-137627047D02*
G01*
X113941687Y-137735139D01*
X114057341Y-137880905D01*
X114120182Y-138028135D01*
X114132565Y-138099607D01*
X114142771Y-138218511D01*
X114150807Y-138375879D01*
X114156677Y-138562741D01*
X114160387Y-138770126D01*
X114161943Y-138989066D01*
X114161350Y-139210590D01*
X114158613Y-139425730D01*
X114153738Y-139625515D01*
X114146731Y-139800977D01*
X114137597Y-139943145D01*
X114126341Y-140043050D01*
X114118935Y-140077787D01*
X114042715Y-140249619D01*
X113927007Y-140382723D01*
X113787248Y-140473194D01*
X113639807Y-140546667D01*
X112650515Y-140544439D01*
X112369608Y-140542939D01*
X112124470Y-140539858D01*
X111919102Y-140535314D01*
X111757502Y-140529426D01*
X111643670Y-140522312D01*
X111581605Y-140514091D01*
X111576556Y-140512615D01*
X111423728Y-140430563D01*
X111291881Y-140302254D01*
X111231463Y-140214100D01*
X111153223Y-140081000D01*
X111144794Y-139115449D01*
X111143200Y-138823625D01*
X111143806Y-138572267D01*
X111146547Y-138364638D01*
X111151359Y-138203999D01*
X111158178Y-138093612D01*
X111165877Y-138040299D01*
X111237375Y-137876534D01*
X111351970Y-137735661D01*
X111497411Y-137632303D01*
X111514738Y-137623865D01*
X111554550Y-137605792D01*
X111592475Y-137591230D01*
X111634837Y-137579798D01*
X111687959Y-137571116D01*
X111758164Y-137564802D01*
X111851775Y-137560474D01*
X111975114Y-137557752D01*
X112134504Y-137556254D01*
X112336269Y-137555599D01*
X112586731Y-137555406D01*
X112650515Y-137555387D01*
X113639807Y-137555112D01*
X113784162Y-137627047D01*
G37*
X113784162Y-137627047D02*
X113941687Y-137735139D01*
X114057341Y-137880905D01*
X114120182Y-138028135D01*
X114132565Y-138099607D01*
X114142771Y-138218511D01*
X114150807Y-138375879D01*
X114156677Y-138562741D01*
X114160387Y-138770126D01*
X114161943Y-138989066D01*
X114161350Y-139210590D01*
X114158613Y-139425730D01*
X114153738Y-139625515D01*
X114146731Y-139800977D01*
X114137597Y-139943145D01*
X114126341Y-140043050D01*
X114118935Y-140077787D01*
X114042715Y-140249619D01*
X113927007Y-140382723D01*
X113787248Y-140473194D01*
X113639807Y-140546667D01*
X112650515Y-140544439D01*
X112369608Y-140542939D01*
X112124470Y-140539858D01*
X111919102Y-140535314D01*
X111757502Y-140529426D01*
X111643670Y-140522312D01*
X111581605Y-140514091D01*
X111576556Y-140512615D01*
X111423728Y-140430563D01*
X111291881Y-140302254D01*
X111231463Y-140214100D01*
X111153223Y-140081000D01*
X111144794Y-139115449D01*
X111143200Y-138823625D01*
X111143806Y-138572267D01*
X111146547Y-138364638D01*
X111151359Y-138203999D01*
X111158178Y-138093612D01*
X111165877Y-138040299D01*
X111237375Y-137876534D01*
X111351970Y-137735661D01*
X111497411Y-137632303D01*
X111514738Y-137623865D01*
X111554550Y-137605792D01*
X111592475Y-137591230D01*
X111634837Y-137579798D01*
X111687959Y-137571116D01*
X111758164Y-137564802D01*
X111851775Y-137560474D01*
X111975114Y-137557752D01*
X112134504Y-137556254D01*
X112336269Y-137555599D01*
X112586731Y-137555406D01*
X112650515Y-137555387D01*
X113639807Y-137555112D01*
X113784162Y-137627047D01*
D12*
X138816000Y-108615241D02*
X139446000Y-108615241D01*
X139131000Y-108930241D02*
X139131000Y-108300241D01*
X140568000Y-102189000D02*
X141372000Y-102189000D01*
X140337000Y-102229000D02*
X141603000Y-102229000D01*
X140168000Y-102269000D02*
X141772000Y-102269000D01*
X140030000Y-102309000D02*
X141910000Y-102309000D01*
X139911000Y-102349000D02*
X142029000Y-102349000D01*
X139805000Y-102389000D02*
X142135000Y-102389000D01*
X139708000Y-102429000D02*
X142232000Y-102429000D01*
X139620000Y-102469000D02*
X142320000Y-102469000D01*
X139538000Y-102509000D02*
X142402000Y-102509000D01*
X139461000Y-102549000D02*
X142479000Y-102549000D01*
X139389000Y-102589000D02*
X142551000Y-102589000D01*
X139320000Y-102629000D02*
X142620000Y-102629000D01*
X139256000Y-102669000D02*
X142684000Y-102669000D01*
X139194000Y-102709000D02*
X142746000Y-102709000D01*
X139136000Y-102749000D02*
X142804000Y-102749000D01*
X139080000Y-102789000D02*
X142860000Y-102789000D01*
X139026000Y-102829000D02*
X142914000Y-102829000D01*
X138975000Y-102869000D02*
X142965000Y-102869000D01*
X138926000Y-102909000D02*
X143014000Y-102909000D01*
X138878000Y-102949000D02*
X143062000Y-102949000D01*
X138833000Y-102989000D02*
X143107000Y-102989000D01*
X138788000Y-103029000D02*
X143152000Y-103029000D01*
X138746000Y-103069000D02*
X143194000Y-103069000D01*
X138705000Y-103109000D02*
X143235000Y-103109000D01*
X142010000Y-103149000D02*
X143275000Y-103149000D01*
X138665000Y-103149000D02*
X139930000Y-103149000D01*
X142010000Y-103189000D02*
X143313000Y-103189000D01*
X138627000Y-103189000D02*
X139930000Y-103189000D01*
X142010000Y-103229000D02*
X143350000Y-103229000D01*
X138590000Y-103229000D02*
X139930000Y-103229000D01*
X142010000Y-103269000D02*
X143386000Y-103269000D01*
X138554000Y-103269000D02*
X139930000Y-103269000D01*
X142010000Y-103309000D02*
X143420000Y-103309000D01*
X138520000Y-103309000D02*
X139930000Y-103309000D01*
X142010000Y-103349000D02*
X143454000Y-103349000D01*
X138486000Y-103349000D02*
X139930000Y-103349000D01*
X142010000Y-103389000D02*
X143486000Y-103389000D01*
X138454000Y-103389000D02*
X139930000Y-103389000D01*
X142010000Y-103429000D02*
X143518000Y-103429000D01*
X138422000Y-103429000D02*
X139930000Y-103429000D01*
X142010000Y-103469000D02*
X143548000Y-103469000D01*
X138392000Y-103469000D02*
X139930000Y-103469000D01*
X142010000Y-103509000D02*
X143577000Y-103509000D01*
X138363000Y-103509000D02*
X139930000Y-103509000D01*
X142010000Y-103549000D02*
X143606000Y-103549000D01*
X138334000Y-103549000D02*
X139930000Y-103549000D01*
X142010000Y-103589000D02*
X143634000Y-103589000D01*
X138306000Y-103589000D02*
X139930000Y-103589000D01*
X142010000Y-103629000D02*
X143660000Y-103629000D01*
X138280000Y-103629000D02*
X139930000Y-103629000D01*
X142010000Y-103669000D02*
X143686000Y-103669000D01*
X138254000Y-103669000D02*
X139930000Y-103669000D01*
X142010000Y-103709000D02*
X143712000Y-103709000D01*
X138228000Y-103709000D02*
X139930000Y-103709000D01*
X142010000Y-103749000D02*
X143736000Y-103749000D01*
X138204000Y-103749000D02*
X139930000Y-103749000D01*
X142010000Y-103789000D02*
X143760000Y-103789000D01*
X138180000Y-103789000D02*
X139930000Y-103789000D01*
X142010000Y-103829000D02*
X143782000Y-103829000D01*
X138158000Y-103829000D02*
X139930000Y-103829000D01*
X142010000Y-103869000D02*
X143804000Y-103869000D01*
X138136000Y-103869000D02*
X139930000Y-103869000D01*
X142010000Y-103909000D02*
X143826000Y-103909000D01*
X138114000Y-103909000D02*
X139930000Y-103909000D01*
X142010000Y-103949000D02*
X143846000Y-103949000D01*
X138094000Y-103949000D02*
X139930000Y-103949000D01*
X142010000Y-103989000D02*
X143866000Y-103989000D01*
X138074000Y-103989000D02*
X139930000Y-103989000D01*
X142010000Y-104029000D02*
X143886000Y-104029000D01*
X138054000Y-104029000D02*
X139930000Y-104029000D01*
X142010000Y-104069000D02*
X143904000Y-104069000D01*
X138036000Y-104069000D02*
X139930000Y-104069000D01*
X142010000Y-104109000D02*
X143922000Y-104109000D01*
X138018000Y-104109000D02*
X139930000Y-104109000D01*
X142010000Y-104149000D02*
X143940000Y-104149000D01*
X138000000Y-104149000D02*
X139930000Y-104149000D01*
X142010000Y-104189000D02*
X143956000Y-104189000D01*
X137984000Y-104189000D02*
X139930000Y-104189000D01*
X142010000Y-104229000D02*
X143972000Y-104229000D01*
X137968000Y-104229000D02*
X139930000Y-104229000D01*
X142010000Y-104269000D02*
X143988000Y-104269000D01*
X137952000Y-104269000D02*
X139930000Y-104269000D01*
X142010000Y-104309000D02*
X144003000Y-104309000D01*
X137937000Y-104309000D02*
X139930000Y-104309000D01*
X142010000Y-104349000D02*
X144017000Y-104349000D01*
X137923000Y-104349000D02*
X139930000Y-104349000D01*
X142010000Y-104389000D02*
X144031000Y-104389000D01*
X137909000Y-104389000D02*
X139930000Y-104389000D01*
X142010000Y-104429000D02*
X144044000Y-104429000D01*
X137896000Y-104429000D02*
X139930000Y-104429000D01*
X142010000Y-104469000D02*
X144056000Y-104469000D01*
X137884000Y-104469000D02*
X139930000Y-104469000D01*
X142010000Y-104509000D02*
X144068000Y-104509000D01*
X137872000Y-104509000D02*
X139930000Y-104509000D01*
X142010000Y-104549000D02*
X144080000Y-104549000D01*
X137860000Y-104549000D02*
X139930000Y-104549000D01*
X142010000Y-104589000D02*
X144091000Y-104589000D01*
X137849000Y-104589000D02*
X139930000Y-104589000D01*
X142010000Y-104629000D02*
X144101000Y-104629000D01*
X137839000Y-104629000D02*
X139930000Y-104629000D01*
X142010000Y-104669000D02*
X144111000Y-104669000D01*
X137829000Y-104669000D02*
X139930000Y-104669000D01*
X142010000Y-104709000D02*
X144120000Y-104709000D01*
X137820000Y-104709000D02*
X139930000Y-104709000D01*
X142010000Y-104750000D02*
X144129000Y-104750000D01*
X137811000Y-104750000D02*
X139930000Y-104750000D01*
X142010000Y-104790000D02*
X144137000Y-104790000D01*
X137803000Y-104790000D02*
X139930000Y-104790000D01*
X142010000Y-104830000D02*
X144145000Y-104830000D01*
X137795000Y-104830000D02*
X139930000Y-104830000D01*
X142010000Y-104870000D02*
X144152000Y-104870000D01*
X137788000Y-104870000D02*
X139930000Y-104870000D01*
X142010000Y-104910000D02*
X144159000Y-104910000D01*
X137781000Y-104910000D02*
X139930000Y-104910000D01*
X142010000Y-104950000D02*
X144165000Y-104950000D01*
X137775000Y-104950000D02*
X139930000Y-104950000D01*
X142010000Y-104990000D02*
X144171000Y-104990000D01*
X137769000Y-104990000D02*
X139930000Y-104990000D01*
X142010000Y-105030000D02*
X144176000Y-105030000D01*
X137764000Y-105030000D02*
X139930000Y-105030000D01*
X142010000Y-105070000D02*
X144181000Y-105070000D01*
X137759000Y-105070000D02*
X139930000Y-105070000D01*
X142010000Y-105110000D02*
X144185000Y-105110000D01*
X137755000Y-105110000D02*
X139930000Y-105110000D01*
X142010000Y-105150000D02*
X144188000Y-105150000D01*
X137752000Y-105150000D02*
X139930000Y-105150000D01*
X142010000Y-105190000D02*
X144192000Y-105190000D01*
X137748000Y-105190000D02*
X139930000Y-105190000D01*
X137746000Y-105230000D02*
X144194000Y-105230000D01*
X137743000Y-105270000D02*
X144197000Y-105270000D01*
X137742000Y-105310000D02*
X144198000Y-105310000D01*
X137740000Y-105350000D02*
X144200000Y-105350000D01*
X137740000Y-105390000D02*
X144200000Y-105390000D01*
X137740000Y-105430000D02*
X144200000Y-105430000D01*
X144240000Y-105430000D02*
G75*
G03*
X144240000Y-105430000I-3270000J0D01*
G01*
X82190000Y-135870000D02*
X79100000Y-135870000D01*
X83145000Y-138430000D02*
G75*
G03*
X83145000Y-138430000I-2500000J0D01*
G01*
X80644538Y-141420000D02*
G75*
G03*
X82189830Y-135870000I462J2990000D01*
G01*
X80645462Y-141420000D02*
G75*
G02*
X79100170Y-135870000I-462J2990000D01*
G01*
X166945000Y-111700000D02*
X168275000Y-111700000D01*
X166945000Y-113030000D02*
X166945000Y-111700000D01*
X166945000Y-114300000D02*
X169605000Y-114300000D01*
X169605000Y-114300000D02*
X169605000Y-119440000D01*
X166945000Y-114300000D02*
X166945000Y-119440000D01*
X166945000Y-119440000D02*
X169605000Y-119440000D01*
X117922500Y-114347500D02*
X115122500Y-114347500D01*
X114472500Y-113647500D02*
X114472500Y-113047500D01*
X115122500Y-112347500D02*
X117922500Y-112347500D01*
X118572500Y-113047500D02*
X118572500Y-113647500D01*
X117722500Y-112147500D02*
X118022500Y-111847500D01*
X118022500Y-111847500D02*
X117422500Y-111847500D01*
X117722500Y-112147500D02*
X117422500Y-111847500D01*
X115172500Y-114347500D02*
G75*
G02*
X114472500Y-113647500I0J700000D01*
G01*
X114472500Y-113047500D02*
G75*
G02*
X115172500Y-112347500I700000J0D01*
G01*
X117872500Y-112347500D02*
G75*
G02*
X118572500Y-113047500I0J-700000D01*
G01*
X118572500Y-113647500D02*
G75*
G02*
X117872500Y-114347500I-700000J0D01*
G01*
X123120000Y-112147500D02*
X122820000Y-111847500D01*
X123420000Y-111847500D02*
X122820000Y-111847500D01*
X123120000Y-112147500D02*
X123420000Y-111847500D01*
X123970000Y-113047500D02*
X123970000Y-113647500D01*
X120520000Y-112347500D02*
X123320000Y-112347500D01*
X119870000Y-113647500D02*
X119870000Y-113047500D01*
X123320000Y-114347500D02*
X120520000Y-114347500D01*
X123970000Y-113647500D02*
G75*
G02*
X123270000Y-114347500I-700000J0D01*
G01*
X123270000Y-112347500D02*
G75*
G02*
X123970000Y-113047500I0J-700000D01*
G01*
X119870000Y-113047500D02*
G75*
G02*
X120570000Y-112347500I700000J0D01*
G01*
X120570000Y-114347500D02*
G75*
G02*
X119870000Y-113647500I0J700000D01*
G01*
X113857100Y-127095000D02*
X116597100Y-127095000D01*
X116597100Y-127095000D02*
X116597100Y-120555000D01*
X116597100Y-120555000D02*
X113857100Y-120555000D01*
X113857100Y-120555000D02*
X113857100Y-127095000D01*
X115227100Y-127865000D02*
X115227100Y-127095000D01*
X115227100Y-119785000D02*
X115227100Y-120555000D01*
X132800000Y-138730000D02*
X129400000Y-138730000D01*
X134440000Y-138730000D02*
X133900000Y-138730000D01*
X127240000Y-135900000D02*
X127240000Y-135390000D01*
X127760000Y-135390000D02*
X127240000Y-135390000D01*
X127760000Y-135900000D02*
X127760000Y-135390000D01*
X128300000Y-138730000D02*
X127760000Y-138730000D01*
X134960000Y-135900000D02*
X134960000Y-135390000D01*
X134440000Y-135900000D02*
X134440000Y-135390000D01*
X127760000Y-138730000D02*
X127760000Y-138500000D01*
X134960000Y-142400000D02*
X134960000Y-138500000D01*
X134960000Y-135390000D02*
X134440000Y-135390000D01*
X127240000Y-142400000D02*
X127240000Y-138500000D01*
X134960000Y-142400000D02*
X127240000Y-142400000D01*
X134440000Y-138730000D02*
X134440000Y-138500000D01*
X149680000Y-138730000D02*
X149680000Y-138500000D01*
X150200000Y-142400000D02*
X142480000Y-142400000D01*
X142480000Y-142400000D02*
X142480000Y-138500000D01*
X150200000Y-135390000D02*
X149680000Y-135390000D01*
X150200000Y-142400000D02*
X150200000Y-138500000D01*
X143000000Y-138730000D02*
X143000000Y-138500000D01*
X149680000Y-135900000D02*
X149680000Y-135390000D01*
X150200000Y-135900000D02*
X150200000Y-135390000D01*
X143540000Y-138730000D02*
X143000000Y-138730000D01*
X143000000Y-135900000D02*
X143000000Y-135390000D01*
X143000000Y-135390000D02*
X142480000Y-135390000D01*
X142480000Y-135900000D02*
X142480000Y-135390000D01*
X149680000Y-138730000D02*
X149140000Y-138730000D01*
X148040000Y-138730000D02*
X144640000Y-138730000D01*
X108405000Y-138730000D02*
X108405000Y-138500000D01*
X108925000Y-142400000D02*
X101205000Y-142400000D01*
X101205000Y-142400000D02*
X101205000Y-138500000D01*
X108925000Y-135390000D02*
X108405000Y-135390000D01*
X108925000Y-142400000D02*
X108925000Y-138500000D01*
X101725000Y-138730000D02*
X101725000Y-138500000D01*
X108405000Y-135900000D02*
X108405000Y-135390000D01*
X108925000Y-135900000D02*
X108925000Y-135390000D01*
X102265000Y-138730000D02*
X101725000Y-138730000D01*
X101725000Y-135900000D02*
X101725000Y-135390000D01*
X101725000Y-135390000D02*
X101205000Y-135390000D01*
X101205000Y-135900000D02*
X101205000Y-135390000D01*
X108405000Y-138730000D02*
X107865000Y-138730000D01*
X106765000Y-138730000D02*
X103365000Y-138730000D01*
X91525000Y-138730000D02*
X88125000Y-138730000D01*
X93165000Y-138730000D02*
X92625000Y-138730000D01*
X85965000Y-135900000D02*
X85965000Y-135390000D01*
X86485000Y-135390000D02*
X85965000Y-135390000D01*
X86485000Y-135900000D02*
X86485000Y-135390000D01*
X87025000Y-138730000D02*
X86485000Y-138730000D01*
X93685000Y-135900000D02*
X93685000Y-135390000D01*
X93165000Y-135900000D02*
X93165000Y-135390000D01*
X86485000Y-138730000D02*
X86485000Y-138500000D01*
X93685000Y-142400000D02*
X93685000Y-138500000D01*
X93685000Y-135390000D02*
X93165000Y-135390000D01*
X85965000Y-142400000D02*
X85965000Y-138500000D01*
X93685000Y-142400000D02*
X85965000Y-142400000D01*
X93165000Y-138730000D02*
X93165000Y-138500000D01*
X80110000Y-99090000D02*
X80110000Y-104030000D01*
X77370000Y-99090000D02*
X77370000Y-104030000D01*
X80110000Y-99090000D02*
X79795000Y-99090000D01*
X77685000Y-99090000D02*
X77370000Y-99090000D01*
X80110000Y-104030000D02*
X79795000Y-104030000D01*
X77685000Y-104030000D02*
X77370000Y-104030000D01*
X162520000Y-138430000D02*
G75*
G03*
X162520000Y-138430000I-2500000J0D01*
G01*
X161565000Y-135870000D02*
X158475000Y-135870000D01*
X160019538Y-141420000D02*
G75*
G03*
X161564830Y-135870000I462J2990000D01*
G01*
X160020462Y-141420000D02*
G75*
G02*
X158475170Y-135870000I-462J2990000D01*
G01*
X132080000Y-117070000D02*
X132080000Y-116300000D01*
X132080000Y-108990000D02*
X132080000Y-109760000D01*
X133450000Y-116300000D02*
X133450000Y-109760000D01*
X130710000Y-116300000D02*
X133450000Y-116300000D01*
X130710000Y-109760000D02*
X130710000Y-116300000D01*
X133450000Y-109760000D02*
X130710000Y-109760000D01*
X160555000Y-131540000D02*
X163295000Y-131540000D01*
X163295000Y-131540000D02*
X163295000Y-125000000D01*
X163295000Y-125000000D02*
X160555000Y-125000000D01*
X160555000Y-125000000D02*
X160555000Y-131540000D01*
X161925000Y-132310000D02*
X161925000Y-131540000D01*
X161925000Y-124230000D02*
X161925000Y-125000000D01*
X152670000Y-124400000D02*
X151420000Y-124400000D01*
X151420000Y-124400000D02*
X151420000Y-132140000D01*
X151420000Y-132140000D02*
X155920000Y-132140000D01*
X155920000Y-132140000D02*
X155920000Y-124400000D01*
X155920000Y-124400000D02*
X154670000Y-124400000D01*
X148420000Y-124340000D02*
X148420000Y-132200000D01*
X148420000Y-132200000D02*
X158920000Y-132200000D01*
X158920000Y-132200000D02*
X158920000Y-124340000D01*
X158920000Y-124340000D02*
X148420000Y-124340000D01*
X154670000Y-124400000D02*
G75*
G02*
X152670000Y-124400000I-1000000J0D01*
G01*
X81220000Y-102600000D02*
X81220000Y-103850000D01*
X81220000Y-103850000D02*
X101660000Y-103850000D01*
X101660000Y-103850000D02*
X101660000Y-99350000D01*
X101660000Y-99350000D02*
X81220000Y-99350000D01*
X81220000Y-99350000D02*
X81220000Y-100600000D01*
X81160000Y-106850000D02*
X101720000Y-106850000D01*
X101720000Y-106850000D02*
X101720000Y-96350000D01*
X101720000Y-96350000D02*
X81160000Y-96350000D01*
X81160000Y-96350000D02*
X81160000Y-106850000D01*
X81220000Y-100600000D02*
G75*
G02*
X81220000Y-102600000I0J-1000000D01*
G01*
D10*
X123618666Y-90638380D02*
X123618666Y-91352666D01*
X123571047Y-91495523D01*
X123475809Y-91590761D01*
X123332952Y-91638380D01*
X123237714Y-91638380D01*
X124618666Y-91638380D02*
X124047238Y-91638380D01*
X124332952Y-91638380D02*
X124332952Y-90638380D01*
X124237714Y-90781238D01*
X124142476Y-90876476D01*
X124047238Y-90924095D01*
X125579428Y-91638380D02*
X125579428Y-90638380D01*
X126055619Y-91638380D02*
X126055619Y-90638380D01*
X126627047Y-91638380D01*
X126627047Y-90638380D01*
X127103238Y-91638380D02*
X127103238Y-90638380D01*
X127484190Y-90638380D01*
X127579428Y-90686000D01*
X127627047Y-90733619D01*
X127674666Y-90828857D01*
X127674666Y-90971714D01*
X127627047Y-91066952D01*
X127579428Y-91114571D01*
X127484190Y-91162190D01*
X127103238Y-91162190D01*
X128103238Y-90638380D02*
X128103238Y-91447904D01*
X128150857Y-91543142D01*
X128198476Y-91590761D01*
X128293714Y-91638380D01*
X128484190Y-91638380D01*
X128579428Y-91590761D01*
X128627047Y-91543142D01*
X128674666Y-91447904D01*
X128674666Y-90638380D01*
X129008000Y-90638380D02*
X129579428Y-90638380D01*
X129293714Y-91638380D02*
X129293714Y-90638380D01*
X72945714Y-112561666D02*
X73421904Y-112561666D01*
X72850476Y-112847380D02*
X73183809Y-111847380D01*
X73517142Y-112847380D01*
X73802857Y-111942619D02*
X73850476Y-111895000D01*
X73945714Y-111847380D01*
X74183809Y-111847380D01*
X74279047Y-111895000D01*
X74326666Y-111942619D01*
X74374285Y-112037857D01*
X74374285Y-112133095D01*
X74326666Y-112275952D01*
X73755238Y-112847380D01*
X74374285Y-112847380D01*
X73002190Y-114752380D02*
X73002190Y-113752380D01*
X73335523Y-114466666D01*
X73668857Y-113752380D01*
X73668857Y-114752380D01*
X74145047Y-114752380D02*
X74145047Y-114085714D01*
X74145047Y-113752380D02*
X74097428Y-113800000D01*
X74145047Y-113847619D01*
X74192666Y-113800000D01*
X74145047Y-113752380D01*
X74145047Y-113847619D01*
X75049809Y-114704761D02*
X74954571Y-114752380D01*
X74764095Y-114752380D01*
X74668857Y-114704761D01*
X74621238Y-114657142D01*
X74573619Y-114561904D01*
X74573619Y-114276190D01*
X74621238Y-114180952D01*
X74668857Y-114133333D01*
X74764095Y-114085714D01*
X74954571Y-114085714D01*
X75049809Y-114133333D01*
X75478380Y-114752380D02*
X75478380Y-114085714D01*
X75478380Y-114276190D02*
X75526000Y-114180952D01*
X75573619Y-114133333D01*
X75668857Y-114085714D01*
X75764095Y-114085714D01*
X76240285Y-114752380D02*
X76145047Y-114704761D01*
X76097428Y-114657142D01*
X76049809Y-114561904D01*
X76049809Y-114276190D01*
X76097428Y-114180952D01*
X76145047Y-114133333D01*
X76240285Y-114085714D01*
X76383142Y-114085714D01*
X76478380Y-114133333D01*
X76526000Y-114180952D01*
X76573619Y-114276190D01*
X76573619Y-114561904D01*
X76526000Y-114657142D01*
X76478380Y-114704761D01*
X76383142Y-114752380D01*
X76240285Y-114752380D01*
X76954571Y-114704761D02*
X77097428Y-114752380D01*
X77335523Y-114752380D01*
X77430761Y-114704761D01*
X77478380Y-114657142D01*
X77526000Y-114561904D01*
X77526000Y-114466666D01*
X77478380Y-114371428D01*
X77430761Y-114323809D01*
X77335523Y-114276190D01*
X77145047Y-114228571D01*
X77049809Y-114180952D01*
X77002190Y-114133333D01*
X76954571Y-114038095D01*
X76954571Y-113942857D01*
X77002190Y-113847619D01*
X77049809Y-113800000D01*
X77145047Y-113752380D01*
X77383142Y-113752380D01*
X77526000Y-113800000D01*
X77954571Y-114752380D02*
X77954571Y-113752380D01*
X78192666Y-113752380D01*
X78335523Y-113800000D01*
X78430761Y-113895238D01*
X78478380Y-113990476D01*
X78526000Y-114180952D01*
X78526000Y-114323809D01*
X78478380Y-114514285D01*
X78430761Y-114609523D01*
X78335523Y-114704761D01*
X78192666Y-114752380D01*
X77954571Y-114752380D01*
X80287904Y-114657142D02*
X80240285Y-114704761D01*
X80097428Y-114752380D01*
X80002190Y-114752380D01*
X79859333Y-114704761D01*
X79764095Y-114609523D01*
X79716476Y-114514285D01*
X79668857Y-114323809D01*
X79668857Y-114180952D01*
X79716476Y-113990476D01*
X79764095Y-113895238D01*
X79859333Y-113800000D01*
X80002190Y-113752380D01*
X80097428Y-113752380D01*
X80240285Y-113800000D01*
X80287904Y-113847619D01*
X81145047Y-114752380D02*
X81145047Y-114228571D01*
X81097428Y-114133333D01*
X81002190Y-114085714D01*
X80811714Y-114085714D01*
X80716476Y-114133333D01*
X81145047Y-114704761D02*
X81049809Y-114752380D01*
X80811714Y-114752380D01*
X80716476Y-114704761D01*
X80668857Y-114609523D01*
X80668857Y-114514285D01*
X80716476Y-114419047D01*
X80811714Y-114371428D01*
X81049809Y-114371428D01*
X81145047Y-114323809D01*
X81621238Y-114752380D02*
X81621238Y-114085714D01*
X81621238Y-114276190D02*
X81668857Y-114180952D01*
X81716476Y-114133333D01*
X81811714Y-114085714D01*
X81906952Y-114085714D01*
X82668857Y-114752380D02*
X82668857Y-113752380D01*
X82668857Y-114704761D02*
X82573619Y-114752380D01*
X82383142Y-114752380D01*
X82287904Y-114704761D01*
X82240285Y-114657142D01*
X82192666Y-114561904D01*
X82192666Y-114276190D01*
X82240285Y-114180952D01*
X82287904Y-114133333D01*
X82383142Y-114085714D01*
X82573619Y-114085714D01*
X82668857Y-114133333D01*
X83859333Y-114466666D02*
X84335523Y-114466666D01*
X83764095Y-114752380D02*
X84097428Y-113752380D01*
X84430761Y-114752380D01*
X85192666Y-114752380D02*
X85192666Y-113752380D01*
X85192666Y-114704761D02*
X85097428Y-114752380D01*
X84906952Y-114752380D01*
X84811714Y-114704761D01*
X84764095Y-114657142D01*
X84716476Y-114561904D01*
X84716476Y-114276190D01*
X84764095Y-114180952D01*
X84811714Y-114133333D01*
X84906952Y-114085714D01*
X85097428Y-114085714D01*
X85192666Y-114133333D01*
X86097428Y-114752380D02*
X86097428Y-114228571D01*
X86049809Y-114133333D01*
X85954571Y-114085714D01*
X85764095Y-114085714D01*
X85668857Y-114133333D01*
X86097428Y-114704761D02*
X86002190Y-114752380D01*
X85764095Y-114752380D01*
X85668857Y-114704761D01*
X85621238Y-114609523D01*
X85621238Y-114514285D01*
X85668857Y-114419047D01*
X85764095Y-114371428D01*
X86002190Y-114371428D01*
X86097428Y-114323809D01*
X86573619Y-114085714D02*
X86573619Y-115085714D01*
X86573619Y-114133333D02*
X86668857Y-114085714D01*
X86859333Y-114085714D01*
X86954571Y-114133333D01*
X87002190Y-114180952D01*
X87049809Y-114276190D01*
X87049809Y-114561904D01*
X87002190Y-114657142D01*
X86954571Y-114704761D01*
X86859333Y-114752380D01*
X86668857Y-114752380D01*
X86573619Y-114704761D01*
X87335523Y-114085714D02*
X87716476Y-114085714D01*
X87478380Y-113752380D02*
X87478380Y-114609523D01*
X87526000Y-114704761D01*
X87621238Y-114752380D01*
X87716476Y-114752380D01*
X88430761Y-114704761D02*
X88335523Y-114752380D01*
X88145047Y-114752380D01*
X88049809Y-114704761D01*
X88002190Y-114609523D01*
X88002190Y-114228571D01*
X88049809Y-114133333D01*
X88145047Y-114085714D01*
X88335523Y-114085714D01*
X88430761Y-114133333D01*
X88478380Y-114228571D01*
X88478380Y-114323809D01*
X88002190Y-114419047D01*
X88906952Y-114752380D02*
X88906952Y-114085714D01*
X88906952Y-114276190D02*
X88954571Y-114180952D01*
X89002190Y-114133333D01*
X89097428Y-114085714D01*
X89192666Y-114085714D01*
D14*
X104800476Y-115805000D02*
X104724285Y-115766904D01*
X104610000Y-115766904D01*
X104495714Y-115805000D01*
X104419523Y-115881190D01*
X104381428Y-115957380D01*
X104343333Y-116109761D01*
X104343333Y-116224047D01*
X104381428Y-116376428D01*
X104419523Y-116452619D01*
X104495714Y-116528809D01*
X104610000Y-116566904D01*
X104686190Y-116566904D01*
X104800476Y-116528809D01*
X104838571Y-116490714D01*
X104838571Y-116224047D01*
X104686190Y-116224047D01*
X105181428Y-116566904D02*
X105181428Y-115766904D01*
X105638571Y-116566904D01*
X105638571Y-115766904D01*
X106019523Y-116566904D02*
X106019523Y-115766904D01*
X106210000Y-115766904D01*
X106324285Y-115805000D01*
X106400476Y-115881190D01*
X106438571Y-115957380D01*
X106476666Y-116109761D01*
X106476666Y-116224047D01*
X106438571Y-116376428D01*
X106400476Y-116452619D01*
X106324285Y-116528809D01*
X106210000Y-116566904D01*
X106019523Y-116566904D01*
X104343333Y-118306904D02*
X104610000Y-119106904D01*
X104876666Y-118306904D01*
X105600476Y-119030714D02*
X105562380Y-119068809D01*
X105448095Y-119106904D01*
X105371904Y-119106904D01*
X105257619Y-119068809D01*
X105181428Y-118992619D01*
X105143333Y-118916428D01*
X105105238Y-118764047D01*
X105105238Y-118649761D01*
X105143333Y-118497380D01*
X105181428Y-118421190D01*
X105257619Y-118345000D01*
X105371904Y-118306904D01*
X105448095Y-118306904D01*
X105562380Y-118345000D01*
X105600476Y-118383095D01*
X106400476Y-119030714D02*
X106362380Y-119068809D01*
X106248095Y-119106904D01*
X106171904Y-119106904D01*
X106057619Y-119068809D01*
X105981428Y-118992619D01*
X105943333Y-118916428D01*
X105905238Y-118764047D01*
X105905238Y-118649761D01*
X105943333Y-118497380D01*
X105981428Y-118421190D01*
X106057619Y-118345000D01*
X106171904Y-118306904D01*
X106248095Y-118306904D01*
X106362380Y-118345000D01*
X106400476Y-118383095D01*
X104152857Y-121646904D02*
X104152857Y-120846904D01*
X104419523Y-121418333D01*
X104686190Y-120846904D01*
X104686190Y-121646904D01*
X105067142Y-121646904D02*
X105067142Y-120846904D01*
X105410000Y-121608809D02*
X105524285Y-121646904D01*
X105714761Y-121646904D01*
X105790952Y-121608809D01*
X105829047Y-121570714D01*
X105867142Y-121494523D01*
X105867142Y-121418333D01*
X105829047Y-121342142D01*
X105790952Y-121304047D01*
X105714761Y-121265952D01*
X105562380Y-121227857D01*
X105486190Y-121189761D01*
X105448095Y-121151666D01*
X105410000Y-121075476D01*
X105410000Y-120999285D01*
X105448095Y-120923095D01*
X105486190Y-120885000D01*
X105562380Y-120846904D01*
X105752857Y-120846904D01*
X105867142Y-120885000D01*
X106362380Y-120846904D02*
X106514761Y-120846904D01*
X106590952Y-120885000D01*
X106667142Y-120961190D01*
X106705238Y-121113571D01*
X106705238Y-121380238D01*
X106667142Y-121532619D01*
X106590952Y-121608809D01*
X106514761Y-121646904D01*
X106362380Y-121646904D01*
X106286190Y-121608809D01*
X106210000Y-121532619D01*
X106171904Y-121380238D01*
X106171904Y-121113571D01*
X106210000Y-120961190D01*
X106286190Y-120885000D01*
X106362380Y-120846904D01*
X104152857Y-124186904D02*
X104152857Y-123386904D01*
X104419523Y-123958333D01*
X104686190Y-123386904D01*
X104686190Y-124186904D01*
X105219523Y-123386904D02*
X105371904Y-123386904D01*
X105448095Y-123425000D01*
X105524285Y-123501190D01*
X105562380Y-123653571D01*
X105562380Y-123920238D01*
X105524285Y-124072619D01*
X105448095Y-124148809D01*
X105371904Y-124186904D01*
X105219523Y-124186904D01*
X105143333Y-124148809D01*
X105067142Y-124072619D01*
X105029047Y-123920238D01*
X105029047Y-123653571D01*
X105067142Y-123501190D01*
X105143333Y-123425000D01*
X105219523Y-123386904D01*
X105867142Y-124148809D02*
X105981428Y-124186904D01*
X106171904Y-124186904D01*
X106248095Y-124148809D01*
X106286190Y-124110714D01*
X106324285Y-124034523D01*
X106324285Y-123958333D01*
X106286190Y-123882142D01*
X106248095Y-123844047D01*
X106171904Y-123805952D01*
X106019523Y-123767857D01*
X105943333Y-123729761D01*
X105905238Y-123691666D01*
X105867142Y-123615476D01*
X105867142Y-123539285D01*
X105905238Y-123463095D01*
X105943333Y-123425000D01*
X106019523Y-123386904D01*
X106210000Y-123386904D01*
X106324285Y-123425000D01*
X106667142Y-124186904D02*
X106667142Y-123386904D01*
X104381428Y-126688809D02*
X104495714Y-126726904D01*
X104686190Y-126726904D01*
X104762380Y-126688809D01*
X104800476Y-126650714D01*
X104838571Y-126574523D01*
X104838571Y-126498333D01*
X104800476Y-126422142D01*
X104762380Y-126384047D01*
X104686190Y-126345952D01*
X104533809Y-126307857D01*
X104457619Y-126269761D01*
X104419523Y-126231666D01*
X104381428Y-126155476D01*
X104381428Y-126079285D01*
X104419523Y-126003095D01*
X104457619Y-125965000D01*
X104533809Y-125926904D01*
X104724285Y-125926904D01*
X104838571Y-125965000D01*
X105638571Y-126650714D02*
X105600476Y-126688809D01*
X105486190Y-126726904D01*
X105410000Y-126726904D01*
X105295714Y-126688809D01*
X105219523Y-126612619D01*
X105181428Y-126536428D01*
X105143333Y-126384047D01*
X105143333Y-126269761D01*
X105181428Y-126117380D01*
X105219523Y-126041190D01*
X105295714Y-125965000D01*
X105410000Y-125926904D01*
X105486190Y-125926904D01*
X105600476Y-125965000D01*
X105638571Y-126003095D01*
X105981428Y-126726904D02*
X105981428Y-125926904D01*
X106438571Y-126726904D02*
X106095714Y-126269761D01*
X106438571Y-125926904D02*
X105981428Y-126384047D01*
X105276666Y-129190714D02*
X105238571Y-129228809D01*
X105124285Y-129266904D01*
X105048095Y-129266904D01*
X104933809Y-129228809D01*
X104857619Y-129152619D01*
X104819523Y-129076428D01*
X104781428Y-128924047D01*
X104781428Y-128809761D01*
X104819523Y-128657380D01*
X104857619Y-128581190D01*
X104933809Y-128505000D01*
X105048095Y-128466904D01*
X105124285Y-128466904D01*
X105238571Y-128505000D01*
X105276666Y-128543095D01*
X105581428Y-129228809D02*
X105695714Y-129266904D01*
X105886190Y-129266904D01*
X105962380Y-129228809D01*
X106000476Y-129190714D01*
X106038571Y-129114523D01*
X106038571Y-129038333D01*
X106000476Y-128962142D01*
X105962380Y-128924047D01*
X105886190Y-128885952D01*
X105733809Y-128847857D01*
X105657619Y-128809761D01*
X105619523Y-128771666D01*
X105581428Y-128695476D01*
X105581428Y-128619285D01*
X105619523Y-128543095D01*
X105657619Y-128505000D01*
X105733809Y-128466904D01*
X105924285Y-128466904D01*
X106038571Y-128505000D01*
D10*
X86026666Y-90638380D02*
X86026666Y-91352666D01*
X85979047Y-91495523D01*
X85883809Y-91590761D01*
X85740952Y-91638380D01*
X85645714Y-91638380D01*
X86455238Y-90733619D02*
X86502857Y-90686000D01*
X86598095Y-90638380D01*
X86836190Y-90638380D01*
X86931428Y-90686000D01*
X86979047Y-90733619D01*
X87026666Y-90828857D01*
X87026666Y-90924095D01*
X86979047Y-91066952D01*
X86407619Y-91638380D01*
X87026666Y-91638380D01*
X88051142Y-91638380D02*
X88051142Y-90638380D01*
X88289238Y-90638380D01*
X88432095Y-90686000D01*
X88527333Y-90781238D01*
X88574952Y-90876476D01*
X88622571Y-91066952D01*
X88622571Y-91209809D01*
X88574952Y-91400285D01*
X88527333Y-91495523D01*
X88432095Y-91590761D01*
X88289238Y-91638380D01*
X88051142Y-91638380D01*
X89003523Y-91352666D02*
X89479714Y-91352666D01*
X88908285Y-91638380D02*
X89241619Y-90638380D01*
X89574952Y-91638380D01*
X89765428Y-90638380D02*
X90336857Y-90638380D01*
X90051142Y-91638380D02*
X90051142Y-90638380D01*
X90622571Y-91352666D02*
X91098761Y-91352666D01*
X90527333Y-91638380D02*
X90860666Y-90638380D01*
X91194000Y-91638380D01*
X91479714Y-91590761D02*
X91622571Y-91638380D01*
X91860666Y-91638380D01*
X91955904Y-91590761D01*
X92003523Y-91543142D01*
X92051142Y-91447904D01*
X92051142Y-91352666D01*
X92003523Y-91257428D01*
X91955904Y-91209809D01*
X91860666Y-91162190D01*
X91670190Y-91114571D01*
X91574952Y-91066952D01*
X91527333Y-91019333D01*
X91479714Y-90924095D01*
X91479714Y-90828857D01*
X91527333Y-90733619D01*
X91574952Y-90686000D01*
X91670190Y-90638380D01*
X91908285Y-90638380D01*
X92051142Y-90686000D01*
X92479714Y-91114571D02*
X92813047Y-91114571D01*
X92955904Y-91638380D02*
X92479714Y-91638380D01*
X92479714Y-90638380D01*
X92955904Y-90638380D01*
X93241619Y-90638380D02*
X93813047Y-90638380D01*
X93527333Y-91638380D02*
X93527333Y-90638380D01*
X94003523Y-90638380D02*
X94574952Y-90638380D01*
X94289238Y-91638380D02*
X94289238Y-90638380D01*
X94908285Y-91114571D02*
X95241619Y-91114571D01*
X95384476Y-91638380D02*
X94908285Y-91638380D01*
X94908285Y-90638380D01*
X95384476Y-90638380D01*
X107481809Y-108402380D02*
X107481809Y-107402380D01*
X108529428Y-108307142D02*
X108481809Y-108354761D01*
X108338952Y-108402380D01*
X108243714Y-108402380D01*
X108100857Y-108354761D01*
X108005619Y-108259523D01*
X107958000Y-108164285D01*
X107910380Y-107973809D01*
X107910380Y-107830952D01*
X107958000Y-107640476D01*
X108005619Y-107545238D01*
X108100857Y-107450000D01*
X108243714Y-107402380D01*
X108338952Y-107402380D01*
X108481809Y-107450000D01*
X108529428Y-107497619D01*
X109481809Y-108402380D02*
X108910380Y-108402380D01*
X109196095Y-108402380D02*
X109196095Y-107402380D01*
X109100857Y-107545238D01*
X109005619Y-107640476D01*
X108910380Y-107688095D01*
D11*
X107563000Y-108972404D02*
X107639190Y-108972404D01*
X107715380Y-109010500D01*
X107753476Y-109048595D01*
X107791571Y-109124785D01*
X107829666Y-109277166D01*
X107829666Y-109467642D01*
X107791571Y-109620023D01*
X107753476Y-109696214D01*
X107715380Y-109734309D01*
X107639190Y-109772404D01*
X107563000Y-109772404D01*
X107486809Y-109734309D01*
X107448714Y-109696214D01*
X107410619Y-109620023D01*
X107372523Y-109467642D01*
X107372523Y-109277166D01*
X107410619Y-109124785D01*
X107448714Y-109048595D01*
X107486809Y-109010500D01*
X107563000Y-108972404D01*
X108172523Y-109696214D02*
X108210619Y-109734309D01*
X108172523Y-109772404D01*
X108134428Y-109734309D01*
X108172523Y-109696214D01*
X108172523Y-109772404D01*
X108591571Y-109772404D02*
X108743952Y-109772404D01*
X108820142Y-109734309D01*
X108858238Y-109696214D01*
X108934428Y-109581928D01*
X108972523Y-109429547D01*
X108972523Y-109124785D01*
X108934428Y-109048595D01*
X108896333Y-109010500D01*
X108820142Y-108972404D01*
X108667761Y-108972404D01*
X108591571Y-109010500D01*
X108553476Y-109048595D01*
X108515380Y-109124785D01*
X108515380Y-109315261D01*
X108553476Y-109391452D01*
X108591571Y-109429547D01*
X108667761Y-109467642D01*
X108820142Y-109467642D01*
X108896333Y-109429547D01*
X108934428Y-109391452D01*
X108972523Y-109315261D01*
X109658238Y-108972404D02*
X109505857Y-108972404D01*
X109429666Y-109010500D01*
X109391571Y-109048595D01*
X109315380Y-109162880D01*
X109277285Y-109315261D01*
X109277285Y-109620023D01*
X109315380Y-109696214D01*
X109353476Y-109734309D01*
X109429666Y-109772404D01*
X109582047Y-109772404D01*
X109658238Y-109734309D01*
X109696333Y-109696214D01*
X109734428Y-109620023D01*
X109734428Y-109429547D01*
X109696333Y-109353357D01*
X109658238Y-109315261D01*
X109582047Y-109277166D01*
X109429666Y-109277166D01*
X109353476Y-109315261D01*
X109315380Y-109353357D01*
X109277285Y-109429547D01*
X109886809Y-109848595D02*
X110496333Y-109848595D01*
X110839190Y-108972404D02*
X110991571Y-108972404D01*
X111067761Y-109010500D01*
X111143952Y-109086690D01*
X111182047Y-109239071D01*
X111182047Y-109505738D01*
X111143952Y-109658119D01*
X111067761Y-109734309D01*
X110991571Y-109772404D01*
X110839190Y-109772404D01*
X110763000Y-109734309D01*
X110686809Y-109658119D01*
X110648714Y-109505738D01*
X110648714Y-109239071D01*
X110686809Y-109086690D01*
X110763000Y-109010500D01*
X110839190Y-108972404D01*
X111905857Y-109772404D02*
X111524904Y-109772404D01*
X111524904Y-108972404D01*
X112172523Y-109353357D02*
X112439190Y-109353357D01*
X112553476Y-109772404D02*
X112172523Y-109772404D01*
X112172523Y-108972404D01*
X112553476Y-108972404D01*
X112896333Y-109772404D02*
X112896333Y-108972404D01*
X113086809Y-108972404D01*
X113201095Y-109010500D01*
X113277285Y-109086690D01*
X113315380Y-109162880D01*
X113353476Y-109315261D01*
X113353476Y-109429547D01*
X113315380Y-109581928D01*
X113277285Y-109658119D01*
X113201095Y-109734309D01*
X113086809Y-109772404D01*
X112896333Y-109772404D01*
D10*
X72056666Y-92162380D02*
X72056666Y-92876666D01*
X72009047Y-93019523D01*
X71913809Y-93114761D01*
X71770952Y-93162380D01*
X71675714Y-93162380D01*
X72961428Y-92162380D02*
X72770952Y-92162380D01*
X72675714Y-92210000D01*
X72628095Y-92257619D01*
X72532857Y-92400476D01*
X72485238Y-92590952D01*
X72485238Y-92971904D01*
X72532857Y-93067142D01*
X72580476Y-93114761D01*
X72675714Y-93162380D01*
X72866190Y-93162380D01*
X72961428Y-93114761D01*
X73009047Y-93067142D01*
X73056666Y-92971904D01*
X73056666Y-92733809D01*
X73009047Y-92638571D01*
X72961428Y-92590952D01*
X72866190Y-92543333D01*
X72675714Y-92543333D01*
X72580476Y-92590952D01*
X72532857Y-92638571D01*
X72485238Y-92733809D01*
D11*
X75291904Y-98837619D02*
X74491904Y-98837619D01*
X75291904Y-98380476D01*
X74491904Y-98380476D01*
X74453809Y-97428095D02*
X75482380Y-98113809D01*
X75215714Y-96704285D02*
X75253809Y-96742380D01*
X75291904Y-96856666D01*
X75291904Y-96932857D01*
X75253809Y-97047142D01*
X75177619Y-97123333D01*
X75101428Y-97161428D01*
X74949047Y-97199523D01*
X74834761Y-97199523D01*
X74682380Y-97161428D01*
X74606190Y-97123333D01*
X74530000Y-97047142D01*
X74491904Y-96932857D01*
X74491904Y-96856666D01*
X74530000Y-96742380D01*
X74568095Y-96704285D01*
D10*
X152955714Y-87161666D02*
X153431904Y-87161666D01*
X152860476Y-87447380D02*
X153193809Y-86447380D01*
X153527142Y-87447380D01*
X154384285Y-87447380D02*
X153812857Y-87447380D01*
X154098571Y-87447380D02*
X154098571Y-86447380D01*
X154003333Y-86590238D01*
X153908095Y-86685476D01*
X153812857Y-86733095D01*
X148812857Y-89701666D02*
X149289047Y-89701666D01*
X148717619Y-89987380D02*
X149050952Y-88987380D01*
X149384285Y-89987380D01*
X149717619Y-89987380D02*
X149717619Y-89320714D01*
X149717619Y-89511190D02*
X149765238Y-89415952D01*
X149812857Y-89368333D01*
X149908095Y-89320714D01*
X150003333Y-89320714D01*
X150765238Y-89987380D02*
X150765238Y-88987380D01*
X150765238Y-89939761D02*
X150670000Y-89987380D01*
X150479523Y-89987380D01*
X150384285Y-89939761D01*
X150336666Y-89892142D01*
X150289047Y-89796904D01*
X150289047Y-89511190D01*
X150336666Y-89415952D01*
X150384285Y-89368333D01*
X150479523Y-89320714D01*
X150670000Y-89320714D01*
X150765238Y-89368333D01*
X151670000Y-89320714D02*
X151670000Y-89987380D01*
X151241428Y-89320714D02*
X151241428Y-89844523D01*
X151289047Y-89939761D01*
X151384285Y-89987380D01*
X151527142Y-89987380D01*
X151622380Y-89939761D01*
X151670000Y-89892142D01*
X152146190Y-89987380D02*
X152146190Y-89320714D01*
X152146190Y-88987380D02*
X152098571Y-89035000D01*
X152146190Y-89082619D01*
X152193809Y-89035000D01*
X152146190Y-88987380D01*
X152146190Y-89082619D01*
X152622380Y-89320714D02*
X152622380Y-89987380D01*
X152622380Y-89415952D02*
X152670000Y-89368333D01*
X152765238Y-89320714D01*
X152908095Y-89320714D01*
X153003333Y-89368333D01*
X153050952Y-89463571D01*
X153050952Y-89987380D01*
X153670000Y-89987380D02*
X153574761Y-89939761D01*
X153527142Y-89892142D01*
X153479523Y-89796904D01*
X153479523Y-89511190D01*
X153527142Y-89415952D01*
X153574761Y-89368333D01*
X153670000Y-89320714D01*
X153812857Y-89320714D01*
X153908095Y-89368333D01*
X153955714Y-89415952D01*
X154003333Y-89511190D01*
X154003333Y-89796904D01*
X153955714Y-89892142D01*
X153908095Y-89939761D01*
X153812857Y-89987380D01*
X153670000Y-89987380D01*
X155193809Y-89987380D02*
X155193809Y-88987380D01*
X155765238Y-89987380D01*
X155765238Y-88987380D01*
X156670000Y-89987380D02*
X156670000Y-89463571D01*
X156622380Y-89368333D01*
X156527142Y-89320714D01*
X156336666Y-89320714D01*
X156241428Y-89368333D01*
X156670000Y-89939761D02*
X156574761Y-89987380D01*
X156336666Y-89987380D01*
X156241428Y-89939761D01*
X156193809Y-89844523D01*
X156193809Y-89749285D01*
X156241428Y-89654047D01*
X156336666Y-89606428D01*
X156574761Y-89606428D01*
X156670000Y-89558809D01*
X157146190Y-89320714D02*
X157146190Y-89987380D01*
X157146190Y-89415952D02*
X157193809Y-89368333D01*
X157289047Y-89320714D01*
X157431904Y-89320714D01*
X157527142Y-89368333D01*
X157574761Y-89463571D01*
X157574761Y-89987380D01*
X158193809Y-89987380D02*
X158098571Y-89939761D01*
X158050952Y-89892142D01*
X158003333Y-89796904D01*
X158003333Y-89511190D01*
X158050952Y-89415952D01*
X158098571Y-89368333D01*
X158193809Y-89320714D01*
X158336666Y-89320714D01*
X158431904Y-89368333D01*
X158479523Y-89415952D01*
X158527142Y-89511190D01*
X158527142Y-89796904D01*
X158479523Y-89892142D01*
X158431904Y-89939761D01*
X158336666Y-89987380D01*
X158193809Y-89987380D01*
D11*
X165677857Y-105917619D02*
X165677857Y-105650952D01*
X166096904Y-105536666D02*
X166096904Y-105917619D01*
X165296904Y-105917619D01*
X165296904Y-105536666D01*
X165296904Y-105270000D02*
X166096904Y-104736666D01*
X165296904Y-104736666D02*
X166096904Y-105270000D01*
X165296904Y-104546190D02*
X165296904Y-104089047D01*
X166096904Y-104317619D02*
X165296904Y-104317619D01*
X165677857Y-103822380D02*
X165677857Y-103555714D01*
X166096904Y-103441428D02*
X166096904Y-103822380D01*
X165296904Y-103822380D01*
X165296904Y-103441428D01*
X166096904Y-103098571D02*
X165296904Y-103098571D01*
X166096904Y-102641428D01*
X165296904Y-102641428D01*
X166058809Y-102298571D02*
X166096904Y-102184285D01*
X166096904Y-101993809D01*
X166058809Y-101917619D01*
X166020714Y-101879523D01*
X165944523Y-101841428D01*
X165868333Y-101841428D01*
X165792142Y-101879523D01*
X165754047Y-101917619D01*
X165715952Y-101993809D01*
X165677857Y-102146190D01*
X165639761Y-102222380D01*
X165601666Y-102260476D01*
X165525476Y-102298571D01*
X165449285Y-102298571D01*
X165373095Y-102260476D01*
X165335000Y-102222380D01*
X165296904Y-102146190D01*
X165296904Y-101955714D01*
X165335000Y-101841428D01*
X166096904Y-101498571D02*
X165296904Y-101498571D01*
X165296904Y-100965238D02*
X165296904Y-100812857D01*
X165335000Y-100736666D01*
X165411190Y-100660476D01*
X165563571Y-100622380D01*
X165830238Y-100622380D01*
X165982619Y-100660476D01*
X166058809Y-100736666D01*
X166096904Y-100812857D01*
X166096904Y-100965238D01*
X166058809Y-101041428D01*
X165982619Y-101117619D01*
X165830238Y-101155714D01*
X165563571Y-101155714D01*
X165411190Y-101117619D01*
X165335000Y-101041428D01*
X165296904Y-100965238D01*
X166096904Y-100279523D02*
X165296904Y-100279523D01*
X166096904Y-99822380D01*
X165296904Y-99822380D01*
D10*
X136927142Y-105596666D02*
X136974761Y-105644285D01*
X137022380Y-105787142D01*
X137022380Y-105882380D01*
X136974761Y-106025238D01*
X136879523Y-106120476D01*
X136784285Y-106168095D01*
X136593809Y-106215714D01*
X136450952Y-106215714D01*
X136260476Y-106168095D01*
X136165238Y-106120476D01*
X136070000Y-106025238D01*
X136022380Y-105882380D01*
X136022380Y-105787142D01*
X136070000Y-105644285D01*
X136117619Y-105596666D01*
X137022380Y-104644285D02*
X137022380Y-105215714D01*
X137022380Y-104930000D02*
X136022380Y-104930000D01*
X136165238Y-105025238D01*
X136260476Y-105120476D01*
X136308095Y-105215714D01*
X134802619Y-107549047D02*
X134755000Y-107501428D01*
X134707380Y-107406190D01*
X134707380Y-107168095D01*
X134755000Y-107072857D01*
X134802619Y-107025238D01*
X134897857Y-106977619D01*
X134993095Y-106977619D01*
X135135952Y-107025238D01*
X135707380Y-107596666D01*
X135707380Y-106977619D01*
X134802619Y-106596666D02*
X134755000Y-106549047D01*
X134707380Y-106453809D01*
X134707380Y-106215714D01*
X134755000Y-106120476D01*
X134802619Y-106072857D01*
X134897857Y-106025238D01*
X134993095Y-106025238D01*
X135135952Y-106072857D01*
X135707380Y-106644285D01*
X135707380Y-106025238D01*
X134707380Y-105406190D02*
X134707380Y-105310952D01*
X134755000Y-105215714D01*
X134802619Y-105168095D01*
X134897857Y-105120476D01*
X135088333Y-105072857D01*
X135326428Y-105072857D01*
X135516904Y-105120476D01*
X135612142Y-105168095D01*
X135659761Y-105215714D01*
X135707380Y-105310952D01*
X135707380Y-105406190D01*
X135659761Y-105501428D01*
X135612142Y-105549047D01*
X135516904Y-105596666D01*
X135326428Y-105644285D01*
X135088333Y-105644285D01*
X134897857Y-105596666D01*
X134802619Y-105549047D01*
X134755000Y-105501428D01*
X134707380Y-105406190D01*
X135040714Y-104215714D02*
X135707380Y-104215714D01*
X135040714Y-104644285D02*
X135564523Y-104644285D01*
X135659761Y-104596666D01*
X135707380Y-104501428D01*
X135707380Y-104358571D01*
X135659761Y-104263333D01*
X135612142Y-104215714D01*
X135183571Y-103406190D02*
X135183571Y-103739523D01*
X135707380Y-103739523D02*
X134707380Y-103739523D01*
X134707380Y-103263333D01*
X78335476Y-135457380D02*
X78335476Y-134457380D01*
X78716428Y-134457380D01*
X78811666Y-134505000D01*
X78859285Y-134552619D01*
X78906904Y-134647857D01*
X78906904Y-134790714D01*
X78859285Y-134885952D01*
X78811666Y-134933571D01*
X78716428Y-134981190D01*
X78335476Y-134981190D01*
X79525952Y-134457380D02*
X79716428Y-134457380D01*
X79811666Y-134505000D01*
X79906904Y-134600238D01*
X79954523Y-134790714D01*
X79954523Y-135124047D01*
X79906904Y-135314523D01*
X79811666Y-135409761D01*
X79716428Y-135457380D01*
X79525952Y-135457380D01*
X79430714Y-135409761D01*
X79335476Y-135314523D01*
X79287857Y-135124047D01*
X79287857Y-134790714D01*
X79335476Y-134600238D01*
X79430714Y-134505000D01*
X79525952Y-134457380D01*
X80287857Y-134457380D02*
X80525952Y-135457380D01*
X80716428Y-134743095D01*
X80906904Y-135457380D01*
X81145000Y-134457380D01*
X81525952Y-134933571D02*
X81859285Y-134933571D01*
X82002142Y-135457380D02*
X81525952Y-135457380D01*
X81525952Y-134457380D01*
X82002142Y-134457380D01*
X83002142Y-135457380D02*
X82668809Y-134981190D01*
X82430714Y-135457380D02*
X82430714Y-134457380D01*
X82811666Y-134457380D01*
X82906904Y-134505000D01*
X82954523Y-134552619D01*
X83002142Y-134647857D01*
X83002142Y-134790714D01*
X82954523Y-134885952D01*
X82906904Y-134933571D01*
X82811666Y-134981190D01*
X82430714Y-134981190D01*
X167941666Y-110152380D02*
X167941666Y-110866666D01*
X167894047Y-111009523D01*
X167798809Y-111104761D01*
X167655952Y-111152380D01*
X167560714Y-111152380D01*
X168894047Y-110152380D02*
X168417857Y-110152380D01*
X168370238Y-110628571D01*
X168417857Y-110580952D01*
X168513095Y-110533333D01*
X168751190Y-110533333D01*
X168846428Y-110580952D01*
X168894047Y-110628571D01*
X168941666Y-110723809D01*
X168941666Y-110961904D01*
X168894047Y-111057142D01*
X168846428Y-111104761D01*
X168751190Y-111152380D01*
X168513095Y-111152380D01*
X168417857Y-111104761D01*
X168370238Y-111057142D01*
D11*
X114585833Y-111067904D02*
X114585833Y-111639333D01*
X114547738Y-111753619D01*
X114471547Y-111829809D01*
X114357261Y-111867904D01*
X114281071Y-111867904D01*
X114966785Y-111867904D02*
X114966785Y-111067904D01*
X115271547Y-111067904D01*
X115347738Y-111106000D01*
X115385833Y-111144095D01*
X115423928Y-111220285D01*
X115423928Y-111334571D01*
X115385833Y-111410761D01*
X115347738Y-111448857D01*
X115271547Y-111486952D01*
X114966785Y-111486952D01*
X116185833Y-111867904D02*
X115728690Y-111867904D01*
X115957261Y-111867904D02*
X115957261Y-111067904D01*
X115881071Y-111182190D01*
X115804880Y-111258380D01*
X115728690Y-111296476D01*
X114408214Y-115677904D02*
X114408214Y-114877904D01*
X114712976Y-114877904D01*
X114789166Y-114916000D01*
X114827261Y-114954095D01*
X114865357Y-115030285D01*
X114865357Y-115144571D01*
X114827261Y-115220761D01*
X114789166Y-115258857D01*
X114712976Y-115296952D01*
X114408214Y-115296952D01*
X115627261Y-115677904D02*
X115170119Y-115677904D01*
X115398690Y-115677904D02*
X115398690Y-114877904D01*
X115322500Y-114992190D01*
X115246309Y-115068380D01*
X115170119Y-115106476D01*
X115779642Y-115754095D02*
X116389166Y-115754095D01*
X116998690Y-114916000D02*
X116922500Y-114877904D01*
X116808214Y-114877904D01*
X116693928Y-114916000D01*
X116617738Y-114992190D01*
X116579642Y-115068380D01*
X116541547Y-115220761D01*
X116541547Y-115335047D01*
X116579642Y-115487428D01*
X116617738Y-115563619D01*
X116693928Y-115639809D01*
X116808214Y-115677904D01*
X116884404Y-115677904D01*
X116998690Y-115639809D01*
X117036785Y-115601714D01*
X117036785Y-115335047D01*
X116884404Y-115335047D01*
X117379642Y-115677904D02*
X117379642Y-114877904D01*
X117836785Y-115677904D01*
X117836785Y-114877904D01*
X118217738Y-115677904D02*
X118217738Y-114877904D01*
X118408214Y-114877904D01*
X118522500Y-114916000D01*
X118598690Y-114992190D01*
X118636785Y-115068380D01*
X118674880Y-115220761D01*
X118674880Y-115335047D01*
X118636785Y-115487428D01*
X118598690Y-115563619D01*
X118522500Y-115639809D01*
X118408214Y-115677904D01*
X118217738Y-115677904D01*
X119983333Y-111067904D02*
X119983333Y-111639333D01*
X119945238Y-111753619D01*
X119869047Y-111829809D01*
X119754761Y-111867904D01*
X119678571Y-111867904D01*
X120364285Y-111867904D02*
X120364285Y-111067904D01*
X120669047Y-111067904D01*
X120745238Y-111106000D01*
X120783333Y-111144095D01*
X120821428Y-111220285D01*
X120821428Y-111334571D01*
X120783333Y-111410761D01*
X120745238Y-111448857D01*
X120669047Y-111486952D01*
X120364285Y-111486952D01*
X121126190Y-111144095D02*
X121164285Y-111106000D01*
X121240476Y-111067904D01*
X121430952Y-111067904D01*
X121507142Y-111106000D01*
X121545238Y-111144095D01*
X121583333Y-111220285D01*
X121583333Y-111296476D01*
X121545238Y-111410761D01*
X121088095Y-111867904D01*
X121583333Y-111867904D01*
X119881904Y-115614404D02*
X119881904Y-114814404D01*
X120186666Y-114814404D01*
X120262857Y-114852500D01*
X120300952Y-114890595D01*
X120339047Y-114966785D01*
X120339047Y-115081071D01*
X120300952Y-115157261D01*
X120262857Y-115195357D01*
X120186666Y-115233452D01*
X119881904Y-115233452D01*
X120643809Y-114890595D02*
X120681904Y-114852500D01*
X120758095Y-114814404D01*
X120948571Y-114814404D01*
X121024761Y-114852500D01*
X121062857Y-114890595D01*
X121100952Y-114966785D01*
X121100952Y-115042976D01*
X121062857Y-115157261D01*
X120605714Y-115614404D01*
X121100952Y-115614404D01*
X121253333Y-115690595D02*
X121862857Y-115690595D01*
X121939047Y-114814404D02*
X122205714Y-115614404D01*
X122472380Y-114814404D01*
X123196190Y-115538214D02*
X123158095Y-115576309D01*
X123043809Y-115614404D01*
X122967619Y-115614404D01*
X122853333Y-115576309D01*
X122777142Y-115500119D01*
X122739047Y-115423928D01*
X122700952Y-115271547D01*
X122700952Y-115157261D01*
X122739047Y-115004880D01*
X122777142Y-114928690D01*
X122853333Y-114852500D01*
X122967619Y-114814404D01*
X123043809Y-114814404D01*
X123158095Y-114852500D01*
X123196190Y-114890595D01*
X123996190Y-115538214D02*
X123958095Y-115576309D01*
X123843809Y-115614404D01*
X123767619Y-115614404D01*
X123653333Y-115576309D01*
X123577142Y-115500119D01*
X123539047Y-115423928D01*
X123500952Y-115271547D01*
X123500952Y-115157261D01*
X123539047Y-115004880D01*
X123577142Y-114928690D01*
X123653333Y-114852500D01*
X123767619Y-114814404D01*
X123843809Y-114814404D01*
X123958095Y-114852500D01*
X123996190Y-114890595D01*
D10*
X115060433Y-122372380D02*
X114727100Y-121896190D01*
X114489004Y-122372380D02*
X114489004Y-121372380D01*
X114869957Y-121372380D01*
X114965195Y-121420000D01*
X115012814Y-121467619D01*
X115060433Y-121562857D01*
X115060433Y-121705714D01*
X115012814Y-121800952D01*
X114965195Y-121848571D01*
X114869957Y-121896190D01*
X114489004Y-121896190D01*
X115917576Y-121372380D02*
X115727100Y-121372380D01*
X115631861Y-121420000D01*
X115584242Y-121467619D01*
X115489004Y-121610476D01*
X115441385Y-121800952D01*
X115441385Y-122181904D01*
X115489004Y-122277142D01*
X115536623Y-122324761D01*
X115631861Y-122372380D01*
X115822338Y-122372380D01*
X115917576Y-122324761D01*
X115965195Y-122277142D01*
X116012814Y-122181904D01*
X116012814Y-121943809D01*
X115965195Y-121848571D01*
X115917576Y-121800952D01*
X115822338Y-121753333D01*
X115631861Y-121753333D01*
X115536623Y-121800952D01*
X115489004Y-121848571D01*
X115441385Y-121943809D01*
X114679480Y-126380714D02*
X114679480Y-125761666D01*
X115060433Y-126095000D01*
X115060433Y-125952142D01*
X115108052Y-125856904D01*
X115155671Y-125809285D01*
X115250909Y-125761666D01*
X115489004Y-125761666D01*
X115584242Y-125809285D01*
X115631861Y-125856904D01*
X115679480Y-125952142D01*
X115679480Y-126237857D01*
X115631861Y-126333095D01*
X115584242Y-126380714D01*
X114679480Y-125428333D02*
X114679480Y-124809285D01*
X115060433Y-125142619D01*
X115060433Y-124999761D01*
X115108052Y-124904523D01*
X115155671Y-124856904D01*
X115250909Y-124809285D01*
X115489004Y-124809285D01*
X115584242Y-124856904D01*
X115631861Y-124904523D01*
X115679480Y-124999761D01*
X115679480Y-125285476D01*
X115631861Y-125380714D01*
X115584242Y-125428333D01*
X114679480Y-124190238D02*
X114679480Y-124095000D01*
X114727100Y-123999761D01*
X114774719Y-123952142D01*
X114869957Y-123904523D01*
X115060433Y-123856904D01*
X115298528Y-123856904D01*
X115489004Y-123904523D01*
X115584242Y-123952142D01*
X115631861Y-123999761D01*
X115679480Y-124095000D01*
X115679480Y-124190238D01*
X115631861Y-124285476D01*
X115584242Y-124333095D01*
X115489004Y-124380714D01*
X115298528Y-124428333D01*
X115060433Y-124428333D01*
X114869957Y-124380714D01*
X114774719Y-124333095D01*
X114727100Y-124285476D01*
X114679480Y-124190238D01*
X129766666Y-138424761D02*
X129909523Y-138472380D01*
X130147619Y-138472380D01*
X130242857Y-138424761D01*
X130290476Y-138377142D01*
X130338095Y-138281904D01*
X130338095Y-138186666D01*
X130290476Y-138091428D01*
X130242857Y-138043809D01*
X130147619Y-137996190D01*
X129957142Y-137948571D01*
X129861904Y-137900952D01*
X129814285Y-137853333D01*
X129766666Y-137758095D01*
X129766666Y-137662857D01*
X129814285Y-137567619D01*
X129861904Y-137520000D01*
X129957142Y-137472380D01*
X130195238Y-137472380D01*
X130338095Y-137520000D01*
X130671428Y-137472380D02*
X130909523Y-138472380D01*
X131100000Y-137758095D01*
X131290476Y-138472380D01*
X131528571Y-137472380D01*
X132433333Y-138472380D02*
X131861904Y-138472380D01*
X132147619Y-138472380D02*
X132147619Y-137472380D01*
X132052380Y-137615238D01*
X131957142Y-137710476D01*
X131861904Y-137758095D01*
X129457142Y-135457380D02*
X129457142Y-134457380D01*
X129838095Y-134457380D01*
X129933333Y-134505000D01*
X129980952Y-134552619D01*
X130028571Y-134647857D01*
X130028571Y-134790714D01*
X129980952Y-134885952D01*
X129933333Y-134933571D01*
X129838095Y-134981190D01*
X129457142Y-134981190D01*
X131028571Y-135457380D02*
X130695238Y-134981190D01*
X130457142Y-135457380D02*
X130457142Y-134457380D01*
X130838095Y-134457380D01*
X130933333Y-134505000D01*
X130980952Y-134552619D01*
X131028571Y-134647857D01*
X131028571Y-134790714D01*
X130980952Y-134885952D01*
X130933333Y-134933571D01*
X130838095Y-134981190D01*
X130457142Y-134981190D01*
X131457142Y-134933571D02*
X131790476Y-134933571D01*
X131933333Y-135457380D02*
X131457142Y-135457380D01*
X131457142Y-134457380D01*
X131933333Y-134457380D01*
X132219047Y-134457380D02*
X132552380Y-135457380D01*
X132885714Y-134457380D01*
X145006666Y-138424761D02*
X145149523Y-138472380D01*
X145387619Y-138472380D01*
X145482857Y-138424761D01*
X145530476Y-138377142D01*
X145578095Y-138281904D01*
X145578095Y-138186666D01*
X145530476Y-138091428D01*
X145482857Y-138043809D01*
X145387619Y-137996190D01*
X145197142Y-137948571D01*
X145101904Y-137900952D01*
X145054285Y-137853333D01*
X145006666Y-137758095D01*
X145006666Y-137662857D01*
X145054285Y-137567619D01*
X145101904Y-137520000D01*
X145197142Y-137472380D01*
X145435238Y-137472380D01*
X145578095Y-137520000D01*
X145911428Y-137472380D02*
X146149523Y-138472380D01*
X146340000Y-137758095D01*
X146530476Y-138472380D01*
X146768571Y-137472380D01*
X147101904Y-137567619D02*
X147149523Y-137520000D01*
X147244761Y-137472380D01*
X147482857Y-137472380D01*
X147578095Y-137520000D01*
X147625714Y-137567619D01*
X147673333Y-137662857D01*
X147673333Y-137758095D01*
X147625714Y-137900952D01*
X147054285Y-138472380D01*
X147673333Y-138472380D01*
X144744761Y-135457380D02*
X144744761Y-134457380D01*
X145316190Y-135457380D01*
X145316190Y-134457380D01*
X145792380Y-134933571D02*
X146125714Y-134933571D01*
X146268571Y-135457380D02*
X145792380Y-135457380D01*
X145792380Y-134457380D01*
X146268571Y-134457380D01*
X146601904Y-134457380D02*
X147268571Y-135457380D01*
X147268571Y-134457380D02*
X146601904Y-135457380D01*
X147506666Y-134457380D02*
X148078095Y-134457380D01*
X147792380Y-135457380D02*
X147792380Y-134457380D01*
X103731666Y-138424761D02*
X103874523Y-138472380D01*
X104112619Y-138472380D01*
X104207857Y-138424761D01*
X104255476Y-138377142D01*
X104303095Y-138281904D01*
X104303095Y-138186666D01*
X104255476Y-138091428D01*
X104207857Y-138043809D01*
X104112619Y-137996190D01*
X103922142Y-137948571D01*
X103826904Y-137900952D01*
X103779285Y-137853333D01*
X103731666Y-137758095D01*
X103731666Y-137662857D01*
X103779285Y-137567619D01*
X103826904Y-137520000D01*
X103922142Y-137472380D01*
X104160238Y-137472380D01*
X104303095Y-137520000D01*
X104636428Y-137472380D02*
X104874523Y-138472380D01*
X105065000Y-137758095D01*
X105255476Y-138472380D01*
X105493571Y-137472380D01*
X105779285Y-137472380D02*
X106398333Y-137472380D01*
X106065000Y-137853333D01*
X106207857Y-137853333D01*
X106303095Y-137900952D01*
X106350714Y-137948571D01*
X106398333Y-138043809D01*
X106398333Y-138281904D01*
X106350714Y-138377142D01*
X106303095Y-138424761D01*
X106207857Y-138472380D01*
X105922142Y-138472380D01*
X105826904Y-138424761D01*
X105779285Y-138377142D01*
X103374523Y-135409761D02*
X103517380Y-135457380D01*
X103755476Y-135457380D01*
X103850714Y-135409761D01*
X103898333Y-135362142D01*
X103945952Y-135266904D01*
X103945952Y-135171666D01*
X103898333Y-135076428D01*
X103850714Y-135028809D01*
X103755476Y-134981190D01*
X103565000Y-134933571D01*
X103469761Y-134885952D01*
X103422142Y-134838333D01*
X103374523Y-134743095D01*
X103374523Y-134647857D01*
X103422142Y-134552619D01*
X103469761Y-134505000D01*
X103565000Y-134457380D01*
X103803095Y-134457380D01*
X103945952Y-134505000D01*
X104231666Y-134457380D02*
X104803095Y-134457380D01*
X104517380Y-135457380D02*
X104517380Y-134457380D01*
X105326904Y-134457380D02*
X105517380Y-134457380D01*
X105612619Y-134505000D01*
X105707857Y-134600238D01*
X105755476Y-134790714D01*
X105755476Y-135124047D01*
X105707857Y-135314523D01*
X105612619Y-135409761D01*
X105517380Y-135457380D01*
X105326904Y-135457380D01*
X105231666Y-135409761D01*
X105136428Y-135314523D01*
X105088809Y-135124047D01*
X105088809Y-134790714D01*
X105136428Y-134600238D01*
X105231666Y-134505000D01*
X105326904Y-134457380D01*
X106184047Y-135457380D02*
X106184047Y-134457380D01*
X106565000Y-134457380D01*
X106660238Y-134505000D01*
X106707857Y-134552619D01*
X106755476Y-134647857D01*
X106755476Y-134790714D01*
X106707857Y-134885952D01*
X106660238Y-134933571D01*
X106565000Y-134981190D01*
X106184047Y-134981190D01*
X88491666Y-138424761D02*
X88634523Y-138472380D01*
X88872619Y-138472380D01*
X88967857Y-138424761D01*
X89015476Y-138377142D01*
X89063095Y-138281904D01*
X89063095Y-138186666D01*
X89015476Y-138091428D01*
X88967857Y-138043809D01*
X88872619Y-137996190D01*
X88682142Y-137948571D01*
X88586904Y-137900952D01*
X88539285Y-137853333D01*
X88491666Y-137758095D01*
X88491666Y-137662857D01*
X88539285Y-137567619D01*
X88586904Y-137520000D01*
X88682142Y-137472380D01*
X88920238Y-137472380D01*
X89063095Y-137520000D01*
X89396428Y-137472380D02*
X89634523Y-138472380D01*
X89825000Y-137758095D01*
X90015476Y-138472380D01*
X90253571Y-137472380D01*
X91063095Y-137805714D02*
X91063095Y-138472380D01*
X90825000Y-137424761D02*
X90586904Y-138139047D01*
X91205952Y-138139047D01*
X88301190Y-135457380D02*
X88301190Y-134457380D01*
X88682142Y-134457380D01*
X88777380Y-134505000D01*
X88825000Y-134552619D01*
X88872619Y-134647857D01*
X88872619Y-134790714D01*
X88825000Y-134885952D01*
X88777380Y-134933571D01*
X88682142Y-134981190D01*
X88301190Y-134981190D01*
X89777380Y-135457380D02*
X89301190Y-135457380D01*
X89301190Y-134457380D01*
X90063095Y-135171666D02*
X90539285Y-135171666D01*
X89967857Y-135457380D02*
X90301190Y-134457380D01*
X90634523Y-135457380D01*
X91158333Y-134981190D02*
X91158333Y-135457380D01*
X90825000Y-134457380D02*
X91158333Y-134981190D01*
X91491666Y-134457380D01*
X79097142Y-101726666D02*
X79144761Y-101774285D01*
X79192380Y-101917142D01*
X79192380Y-102012380D01*
X79144761Y-102155238D01*
X79049523Y-102250476D01*
X78954285Y-102298095D01*
X78763809Y-102345714D01*
X78620952Y-102345714D01*
X78430476Y-102298095D01*
X78335238Y-102250476D01*
X78240000Y-102155238D01*
X78192380Y-102012380D01*
X78192380Y-101917142D01*
X78240000Y-101774285D01*
X78287619Y-101726666D01*
X78287619Y-101345714D02*
X78240000Y-101298095D01*
X78192380Y-101202857D01*
X78192380Y-100964761D01*
X78240000Y-100869523D01*
X78287619Y-100821904D01*
X78382857Y-100774285D01*
X78478095Y-100774285D01*
X78620952Y-100821904D01*
X79192380Y-101393333D01*
X79192380Y-100774285D01*
X157853333Y-135457380D02*
X157520000Y-134981190D01*
X157281904Y-135457380D02*
X157281904Y-134457380D01*
X157662857Y-134457380D01*
X157758095Y-134505000D01*
X157805714Y-134552619D01*
X157853333Y-134647857D01*
X157853333Y-134790714D01*
X157805714Y-134885952D01*
X157758095Y-134933571D01*
X157662857Y-134981190D01*
X157281904Y-134981190D01*
X158281904Y-134933571D02*
X158615238Y-134933571D01*
X158758095Y-135457380D02*
X158281904Y-135457380D01*
X158281904Y-134457380D01*
X158758095Y-134457380D01*
X159758095Y-135362142D02*
X159710476Y-135409761D01*
X159567619Y-135457380D01*
X159472380Y-135457380D01*
X159329523Y-135409761D01*
X159234285Y-135314523D01*
X159186666Y-135219285D01*
X159139047Y-135028809D01*
X159139047Y-134885952D01*
X159186666Y-134695476D01*
X159234285Y-134600238D01*
X159329523Y-134505000D01*
X159472380Y-134457380D01*
X159567619Y-134457380D01*
X159710476Y-134505000D01*
X159758095Y-134552619D01*
X160377142Y-134457380D02*
X160567619Y-134457380D01*
X160662857Y-134505000D01*
X160758095Y-134600238D01*
X160805714Y-134790714D01*
X160805714Y-135124047D01*
X160758095Y-135314523D01*
X160662857Y-135409761D01*
X160567619Y-135457380D01*
X160377142Y-135457380D01*
X160281904Y-135409761D01*
X160186666Y-135314523D01*
X160139047Y-135124047D01*
X160139047Y-134790714D01*
X160186666Y-134600238D01*
X160281904Y-134505000D01*
X160377142Y-134457380D01*
X161805714Y-135457380D02*
X161472380Y-134981190D01*
X161234285Y-135457380D02*
X161234285Y-134457380D01*
X161615238Y-134457380D01*
X161710476Y-134505000D01*
X161758095Y-134552619D01*
X161805714Y-134647857D01*
X161805714Y-134790714D01*
X161758095Y-134885952D01*
X161710476Y-134933571D01*
X161615238Y-134981190D01*
X161234285Y-134981190D01*
X162234285Y-135457380D02*
X162234285Y-134457380D01*
X162472380Y-134457380D01*
X162615238Y-134505000D01*
X162710476Y-134600238D01*
X162758095Y-134695476D01*
X162805714Y-134885952D01*
X162805714Y-135028809D01*
X162758095Y-135219285D01*
X162710476Y-135314523D01*
X162615238Y-135409761D01*
X162472380Y-135457380D01*
X162234285Y-135457380D01*
X132040333Y-111196380D02*
X131707000Y-110720190D01*
X131468904Y-111196380D02*
X131468904Y-110196380D01*
X131849857Y-110196380D01*
X131945095Y-110244000D01*
X131992714Y-110291619D01*
X132040333Y-110386857D01*
X132040333Y-110529714D01*
X131992714Y-110624952D01*
X131945095Y-110672571D01*
X131849857Y-110720190D01*
X131468904Y-110720190D01*
X132992714Y-111196380D02*
X132421285Y-111196380D01*
X132707000Y-111196380D02*
X132707000Y-110196380D01*
X132611761Y-110339238D01*
X132516523Y-110434476D01*
X132421285Y-110482095D01*
X131659380Y-115204714D02*
X131659380Y-114585666D01*
X132040333Y-114919000D01*
X132040333Y-114776142D01*
X132087952Y-114680904D01*
X132135571Y-114633285D01*
X132230809Y-114585666D01*
X132468904Y-114585666D01*
X132564142Y-114633285D01*
X132611761Y-114680904D01*
X132659380Y-114776142D01*
X132659380Y-115061857D01*
X132611761Y-115157095D01*
X132564142Y-115204714D01*
X131659380Y-114252333D02*
X131659380Y-113633285D01*
X132040333Y-113966619D01*
X132040333Y-113823761D01*
X132087952Y-113728523D01*
X132135571Y-113680904D01*
X132230809Y-113633285D01*
X132468904Y-113633285D01*
X132564142Y-113680904D01*
X132611761Y-113728523D01*
X132659380Y-113823761D01*
X132659380Y-114109476D01*
X132611761Y-114204714D01*
X132564142Y-114252333D01*
X131659380Y-113014238D02*
X131659380Y-112919000D01*
X131707000Y-112823761D01*
X131754619Y-112776142D01*
X131849857Y-112728523D01*
X132040333Y-112680904D01*
X132278428Y-112680904D01*
X132468904Y-112728523D01*
X132564142Y-112776142D01*
X132611761Y-112823761D01*
X132659380Y-112919000D01*
X132659380Y-113014238D01*
X132611761Y-113109476D01*
X132564142Y-113157095D01*
X132468904Y-113204714D01*
X132278428Y-113252333D01*
X132040333Y-113252333D01*
X131849857Y-113204714D01*
X131754619Y-113157095D01*
X131707000Y-113109476D01*
X131659380Y-113014238D01*
X161758333Y-126817380D02*
X161425000Y-126341190D01*
X161186904Y-126817380D02*
X161186904Y-125817380D01*
X161567857Y-125817380D01*
X161663095Y-125865000D01*
X161710714Y-125912619D01*
X161758333Y-126007857D01*
X161758333Y-126150714D01*
X161710714Y-126245952D01*
X161663095Y-126293571D01*
X161567857Y-126341190D01*
X161186904Y-126341190D01*
X162139285Y-125912619D02*
X162186904Y-125865000D01*
X162282142Y-125817380D01*
X162520238Y-125817380D01*
X162615476Y-125865000D01*
X162663095Y-125912619D01*
X162710714Y-126007857D01*
X162710714Y-126103095D01*
X162663095Y-126245952D01*
X162091666Y-126817380D01*
X162710714Y-126817380D01*
X161377380Y-130825714D02*
X161377380Y-130206666D01*
X161758333Y-130540000D01*
X161758333Y-130397142D01*
X161805952Y-130301904D01*
X161853571Y-130254285D01*
X161948809Y-130206666D01*
X162186904Y-130206666D01*
X162282142Y-130254285D01*
X162329761Y-130301904D01*
X162377380Y-130397142D01*
X162377380Y-130682857D01*
X162329761Y-130778095D01*
X162282142Y-130825714D01*
X161377380Y-129873333D02*
X161377380Y-129254285D01*
X161758333Y-129587619D01*
X161758333Y-129444761D01*
X161805952Y-129349523D01*
X161853571Y-129301904D01*
X161948809Y-129254285D01*
X162186904Y-129254285D01*
X162282142Y-129301904D01*
X162329761Y-129349523D01*
X162377380Y-129444761D01*
X162377380Y-129730476D01*
X162329761Y-129825714D01*
X162282142Y-129873333D01*
X161377380Y-128635238D02*
X161377380Y-128540000D01*
X161425000Y-128444761D01*
X161472619Y-128397142D01*
X161567857Y-128349523D01*
X161758333Y-128301904D01*
X161996428Y-128301904D01*
X162186904Y-128349523D01*
X162282142Y-128397142D01*
X162329761Y-128444761D01*
X162377380Y-128540000D01*
X162377380Y-128635238D01*
X162329761Y-128730476D01*
X162282142Y-128778095D01*
X162186904Y-128825714D01*
X161996428Y-128873333D01*
X161758333Y-128873333D01*
X161567857Y-128825714D01*
X161472619Y-128778095D01*
X161425000Y-128730476D01*
X161377380Y-128635238D01*
X152908095Y-125817380D02*
X152908095Y-126626904D01*
X152955714Y-126722142D01*
X153003333Y-126769761D01*
X153098571Y-126817380D01*
X153289047Y-126817380D01*
X153384285Y-126769761D01*
X153431904Y-126722142D01*
X153479523Y-126626904D01*
X153479523Y-125817380D01*
X154479523Y-126817380D02*
X153908095Y-126817380D01*
X154193809Y-126817380D02*
X154193809Y-125817380D01*
X154098571Y-125960238D01*
X154003333Y-126055476D01*
X153908095Y-126103095D01*
X153455714Y-130825714D02*
X154122380Y-130825714D01*
X153074761Y-131063809D02*
X153789047Y-131301904D01*
X153789047Y-130682857D01*
X154122380Y-130301904D02*
X153122380Y-130301904D01*
X154122380Y-129730476D01*
X153122380Y-129730476D01*
X153122380Y-129349523D02*
X153122380Y-128730476D01*
X153503333Y-129063809D01*
X153503333Y-128920952D01*
X153550952Y-128825714D01*
X153598571Y-128778095D01*
X153693809Y-128730476D01*
X153931904Y-128730476D01*
X154027142Y-128778095D01*
X154074761Y-128825714D01*
X154122380Y-128920952D01*
X154122380Y-129206666D01*
X154074761Y-129301904D01*
X154027142Y-129349523D01*
X153122380Y-127825714D02*
X153122380Y-128301904D01*
X153598571Y-128349523D01*
X153550952Y-128301904D01*
X153503333Y-128206666D01*
X153503333Y-127968571D01*
X153550952Y-127873333D01*
X153598571Y-127825714D01*
X153693809Y-127778095D01*
X153931904Y-127778095D01*
X154027142Y-127825714D01*
X154074761Y-127873333D01*
X154122380Y-127968571D01*
X154122380Y-128206666D01*
X154074761Y-128301904D01*
X154027142Y-128349523D01*
X84328095Y-101052380D02*
X84328095Y-101861904D01*
X84375714Y-101957142D01*
X84423333Y-102004761D01*
X84518571Y-102052380D01*
X84709047Y-102052380D01*
X84804285Y-102004761D01*
X84851904Y-101957142D01*
X84899523Y-101861904D01*
X84899523Y-101052380D01*
X85328095Y-101147619D02*
X85375714Y-101100000D01*
X85470952Y-101052380D01*
X85709047Y-101052380D01*
X85804285Y-101100000D01*
X85851904Y-101147619D01*
X85899523Y-101242857D01*
X85899523Y-101338095D01*
X85851904Y-101480952D01*
X85280476Y-102052380D01*
X85899523Y-102052380D01*
X89344761Y-101957142D02*
X89297142Y-102004761D01*
X89154285Y-102052380D01*
X89059047Y-102052380D01*
X88916190Y-102004761D01*
X88820952Y-101909523D01*
X88773333Y-101814285D01*
X88725714Y-101623809D01*
X88725714Y-101480952D01*
X88773333Y-101290476D01*
X88820952Y-101195238D01*
X88916190Y-101100000D01*
X89059047Y-101052380D01*
X89154285Y-101052380D01*
X89297142Y-101100000D01*
X89344761Y-101147619D01*
X89773333Y-102052380D02*
X89773333Y-101052380D01*
X90011428Y-101052380D01*
X90154285Y-101100000D01*
X90249523Y-101195238D01*
X90297142Y-101290476D01*
X90344761Y-101480952D01*
X90344761Y-101623809D01*
X90297142Y-101814285D01*
X90249523Y-101909523D01*
X90154285Y-102004761D01*
X90011428Y-102052380D01*
X89773333Y-102052380D01*
X91201904Y-101385714D02*
X91201904Y-102052380D01*
X90963809Y-101004761D02*
X90725714Y-101719047D01*
X91344761Y-101719047D01*
X91916190Y-101052380D02*
X92011428Y-101052380D01*
X92106666Y-101100000D01*
X92154285Y-101147619D01*
X92201904Y-101242857D01*
X92249523Y-101433333D01*
X92249523Y-101671428D01*
X92201904Y-101861904D01*
X92154285Y-101957142D01*
X92106666Y-102004761D01*
X92011428Y-102052380D01*
X91916190Y-102052380D01*
X91820952Y-102004761D01*
X91773333Y-101957142D01*
X91725714Y-101861904D01*
X91678095Y-101671428D01*
X91678095Y-101433333D01*
X91725714Y-101242857D01*
X91773333Y-101147619D01*
X91820952Y-101100000D01*
X91916190Y-101052380D01*
X93154285Y-101052380D02*
X92678095Y-101052380D01*
X92630476Y-101528571D01*
X92678095Y-101480952D01*
X92773333Y-101433333D01*
X93011428Y-101433333D01*
X93106666Y-101480952D01*
X93154285Y-101528571D01*
X93201904Y-101623809D01*
X93201904Y-101861904D01*
X93154285Y-101957142D01*
X93106666Y-102004761D01*
X93011428Y-102052380D01*
X92773333Y-102052380D01*
X92678095Y-102004761D01*
X92630476Y-101957142D01*
X93582857Y-101147619D02*
X93630476Y-101100000D01*
X93725714Y-101052380D01*
X93963809Y-101052380D01*
X94059047Y-101100000D01*
X94106666Y-101147619D01*
X94154285Y-101242857D01*
X94154285Y-101338095D01*
X94106666Y-101480952D01*
X93535238Y-102052380D01*
X94154285Y-102052380D01*
M02*
