G04 #@! TF.GenerationSoftware,KiCad,Pcbnew,(5.1.8)-1*
G04 #@! TF.CreationDate,2022-01-29T23:12:44+01:00*
G04 #@! TF.ProjectId,PlayOnTape Module,506c6179-4f6e-4546-9170-65204d6f6475,rev?*
G04 #@! TF.SameCoordinates,Original*
G04 #@! TF.FileFunction,Copper,L1,Top*
G04 #@! TF.FilePolarity,Positive*
%FSLAX46Y46*%
G04 Gerber Fmt 4.6, Leading zero omitted, Abs format (unit mm)*
G04 Created by KiCad (PCBNEW (5.1.8)-1) date 2022-01-29 23:12:44*
%MOMM*%
%LPD*%
G01*
G04 APERTURE LIST*
G04 #@! TA.AperFunction,WasherPad*
%ADD10O,3.000000X5.000000*%
G04 #@! TD*
G04 #@! TA.AperFunction,ComponentPad*
%ADD11O,1.700000X1.700000*%
G04 #@! TD*
G04 #@! TA.AperFunction,ComponentPad*
%ADD12R,1.700000X1.700000*%
G04 #@! TD*
G04 #@! TA.AperFunction,SMDPad,CuDef*
%ADD13R,2.200000X11.000000*%
G04 #@! TD*
G04 #@! TA.AperFunction,ComponentPad*
%ADD14R,1.524000X1.524000*%
G04 #@! TD*
G04 #@! TA.AperFunction,ComponentPad*
%ADD15C,1.524000*%
G04 #@! TD*
G04 #@! TA.AperFunction,WasherPad*
%ADD16C,2.500000*%
G04 #@! TD*
G04 #@! TA.AperFunction,ComponentPad*
%ADD17R,1.600000X1.600000*%
G04 #@! TD*
G04 #@! TA.AperFunction,ComponentPad*
%ADD18C,1.600000*%
G04 #@! TD*
G04 #@! TA.AperFunction,ComponentPad*
%ADD19O,1.600000X1.600000*%
G04 #@! TD*
G04 #@! TA.AperFunction,ComponentPad*
%ADD20C,5.000000*%
G04 #@! TD*
G04 #@! TA.AperFunction,ComponentPad*
%ADD21R,1.800000X1.800000*%
G04 #@! TD*
G04 #@! TA.AperFunction,ComponentPad*
%ADD22C,1.800000*%
G04 #@! TD*
G04 #@! TA.AperFunction,SMDPad,CuDef*
%ADD23C,0.100000*%
G04 #@! TD*
G04 #@! TA.AperFunction,SMDPad,CuDef*
%ADD24R,1.000000X1.500000*%
G04 #@! TD*
G04 #@! TA.AperFunction,ComponentPad*
%ADD25C,2.100000*%
G04 #@! TD*
G04 #@! TA.AperFunction,ComponentPad*
%ADD26C,1.750000*%
G04 #@! TD*
G04 #@! TA.AperFunction,ComponentPad*
%ADD27R,2.400000X1.600000*%
G04 #@! TD*
G04 #@! TA.AperFunction,ComponentPad*
%ADD28O,2.400000X1.600000*%
G04 #@! TD*
G04 #@! TA.AperFunction,ComponentPad*
%ADD29R,1.600000X2.400000*%
G04 #@! TD*
G04 #@! TA.AperFunction,ComponentPad*
%ADD30O,1.600000X2.400000*%
G04 #@! TD*
G04 #@! TA.AperFunction,ViaPad*
%ADD31C,1.000000*%
G04 #@! TD*
G04 #@! TA.AperFunction,ViaPad*
%ADD32C,0.600000*%
G04 #@! TD*
G04 #@! TA.AperFunction,Conductor*
%ADD33C,0.381000*%
G04 #@! TD*
G04 #@! TA.AperFunction,Conductor*
%ADD34C,0.250000*%
G04 #@! TD*
G04 APERTURE END LIST*
D10*
X133985000Y-81407000D03*
X126365000Y-81407000D03*
D11*
X136525000Y-88265000D03*
X133985000Y-88265000D03*
X131445000Y-88265000D03*
X128905000Y-88265000D03*
X126365000Y-88265000D03*
D12*
X123825000Y-88265000D03*
D13*
X106261500Y-84606500D03*
X102301500Y-84606500D03*
X98341500Y-84606500D03*
X94381500Y-84606500D03*
X90421500Y-84606500D03*
X86461500Y-84606500D03*
D14*
X116525000Y-107950000D03*
D15*
X119065000Y-107950000D03*
X121605000Y-107950000D03*
X124145000Y-107950000D03*
D16*
X132085000Y-132450000D03*
D17*
X109220000Y-116205000D03*
D18*
X109220000Y-118745000D03*
X109220000Y-121285000D03*
X109220000Y-123825000D03*
X109220000Y-126365000D03*
X109220000Y-128905000D03*
D11*
X72390000Y-100330000D03*
X72390000Y-97790000D03*
D12*
X72390000Y-95250000D03*
D17*
X161290000Y-117475000D03*
D19*
X146050000Y-84455000D03*
X161290000Y-114935000D03*
X146050000Y-86995000D03*
X161290000Y-112395000D03*
X146050000Y-89535000D03*
X161290000Y-109855000D03*
X146050000Y-92075000D03*
X161290000Y-107315000D03*
X146050000Y-94615000D03*
X161290000Y-104775000D03*
X146050000Y-97155000D03*
X161290000Y-102235000D03*
X146050000Y-99695000D03*
X161290000Y-99695000D03*
X146050000Y-102235000D03*
X161290000Y-97155000D03*
X146050000Y-104775000D03*
X161290000Y-94615000D03*
X146050000Y-107315000D03*
X161290000Y-92075000D03*
X146050000Y-109855000D03*
X161290000Y-89535000D03*
X146050000Y-112395000D03*
X161290000Y-86995000D03*
X146050000Y-114935000D03*
X161290000Y-84455000D03*
X146050000Y-117475000D03*
X161290000Y-81915000D03*
X146050000Y-81915000D03*
D12*
X168275000Y-95250000D03*
D11*
X168275000Y-97790000D03*
X168275000Y-100330000D03*
X168275000Y-102870000D03*
X168275000Y-105410000D03*
X168275000Y-107950000D03*
X168275000Y-110490000D03*
D20*
X73660000Y-139065000D03*
X167005000Y-139065000D03*
X167005000Y-81280000D03*
X73660000Y-81280000D03*
D17*
X141605000Y-94615000D03*
D18*
X139105000Y-94615000D03*
D21*
X80645000Y-137160000D03*
D22*
X80645000Y-139700000D03*
D12*
X168275000Y-113030000D03*
D11*
X168275000Y-115570000D03*
X168275000Y-118110000D03*
G04 #@! TA.AperFunction,SMDPad,CuDef*
D23*
G36*
X117272500Y-112597500D02*
G01*
X117822500Y-112597500D01*
X117822500Y-112598102D01*
X117847034Y-112598102D01*
X117895865Y-112602912D01*
X117943990Y-112612484D01*
X117990945Y-112626728D01*
X118036278Y-112645505D01*
X118079551Y-112668636D01*
X118120350Y-112695896D01*
X118158279Y-112727024D01*
X118192976Y-112761721D01*
X118224104Y-112799650D01*
X118251364Y-112840449D01*
X118274495Y-112883722D01*
X118293272Y-112929055D01*
X118307516Y-112976010D01*
X118317088Y-113024135D01*
X118321898Y-113072966D01*
X118321898Y-113097500D01*
X118322500Y-113097500D01*
X118322500Y-113597500D01*
X118321898Y-113597500D01*
X118321898Y-113622034D01*
X118317088Y-113670865D01*
X118307516Y-113718990D01*
X118293272Y-113765945D01*
X118274495Y-113811278D01*
X118251364Y-113854551D01*
X118224104Y-113895350D01*
X118192976Y-113933279D01*
X118158279Y-113967976D01*
X118120350Y-113999104D01*
X118079551Y-114026364D01*
X118036278Y-114049495D01*
X117990945Y-114068272D01*
X117943990Y-114082516D01*
X117895865Y-114092088D01*
X117847034Y-114096898D01*
X117822500Y-114096898D01*
X117822500Y-114097500D01*
X117272500Y-114097500D01*
X117272500Y-112597500D01*
G37*
G04 #@! TD.AperFunction*
G04 #@! TA.AperFunction,SMDPad,CuDef*
G36*
X115222500Y-114096898D02*
G01*
X115197966Y-114096898D01*
X115149135Y-114092088D01*
X115101010Y-114082516D01*
X115054055Y-114068272D01*
X115008722Y-114049495D01*
X114965449Y-114026364D01*
X114924650Y-113999104D01*
X114886721Y-113967976D01*
X114852024Y-113933279D01*
X114820896Y-113895350D01*
X114793636Y-113854551D01*
X114770505Y-113811278D01*
X114751728Y-113765945D01*
X114737484Y-113718990D01*
X114727912Y-113670865D01*
X114723102Y-113622034D01*
X114723102Y-113597500D01*
X114722500Y-113597500D01*
X114722500Y-113097500D01*
X114723102Y-113097500D01*
X114723102Y-113072966D01*
X114727912Y-113024135D01*
X114737484Y-112976010D01*
X114751728Y-112929055D01*
X114770505Y-112883722D01*
X114793636Y-112840449D01*
X114820896Y-112799650D01*
X114852024Y-112761721D01*
X114886721Y-112727024D01*
X114924650Y-112695896D01*
X114965449Y-112668636D01*
X115008722Y-112645505D01*
X115054055Y-112626728D01*
X115101010Y-112612484D01*
X115149135Y-112602912D01*
X115197966Y-112598102D01*
X115222500Y-112598102D01*
X115222500Y-112597500D01*
X115772500Y-112597500D01*
X115772500Y-114097500D01*
X115222500Y-114097500D01*
X115222500Y-114096898D01*
G37*
G04 #@! TD.AperFunction*
D24*
X116522500Y-113347500D03*
X121920000Y-113347500D03*
G04 #@! TA.AperFunction,SMDPad,CuDef*
D23*
G36*
X120620000Y-114096898D02*
G01*
X120595466Y-114096898D01*
X120546635Y-114092088D01*
X120498510Y-114082516D01*
X120451555Y-114068272D01*
X120406222Y-114049495D01*
X120362949Y-114026364D01*
X120322150Y-113999104D01*
X120284221Y-113967976D01*
X120249524Y-113933279D01*
X120218396Y-113895350D01*
X120191136Y-113854551D01*
X120168005Y-113811278D01*
X120149228Y-113765945D01*
X120134984Y-113718990D01*
X120125412Y-113670865D01*
X120120602Y-113622034D01*
X120120602Y-113597500D01*
X120120000Y-113597500D01*
X120120000Y-113097500D01*
X120120602Y-113097500D01*
X120120602Y-113072966D01*
X120125412Y-113024135D01*
X120134984Y-112976010D01*
X120149228Y-112929055D01*
X120168005Y-112883722D01*
X120191136Y-112840449D01*
X120218396Y-112799650D01*
X120249524Y-112761721D01*
X120284221Y-112727024D01*
X120322150Y-112695896D01*
X120362949Y-112668636D01*
X120406222Y-112645505D01*
X120451555Y-112626728D01*
X120498510Y-112612484D01*
X120546635Y-112602912D01*
X120595466Y-112598102D01*
X120620000Y-112598102D01*
X120620000Y-112597500D01*
X121170000Y-112597500D01*
X121170000Y-114097500D01*
X120620000Y-114097500D01*
X120620000Y-114096898D01*
G37*
G04 #@! TD.AperFunction*
G04 #@! TA.AperFunction,SMDPad,CuDef*
G36*
X122670000Y-112597500D02*
G01*
X123220000Y-112597500D01*
X123220000Y-112598102D01*
X123244534Y-112598102D01*
X123293365Y-112602912D01*
X123341490Y-112612484D01*
X123388445Y-112626728D01*
X123433778Y-112645505D01*
X123477051Y-112668636D01*
X123517850Y-112695896D01*
X123555779Y-112727024D01*
X123590476Y-112761721D01*
X123621604Y-112799650D01*
X123648864Y-112840449D01*
X123671995Y-112883722D01*
X123690772Y-112929055D01*
X123705016Y-112976010D01*
X123714588Y-113024135D01*
X123719398Y-113072966D01*
X123719398Y-113097500D01*
X123720000Y-113097500D01*
X123720000Y-113597500D01*
X123719398Y-113597500D01*
X123719398Y-113622034D01*
X123714588Y-113670865D01*
X123705016Y-113718990D01*
X123690772Y-113765945D01*
X123671995Y-113811278D01*
X123648864Y-113854551D01*
X123621604Y-113895350D01*
X123590476Y-113933279D01*
X123555779Y-113967976D01*
X123517850Y-113999104D01*
X123477051Y-114026364D01*
X123433778Y-114049495D01*
X123388445Y-114068272D01*
X123341490Y-114082516D01*
X123293365Y-114092088D01*
X123244534Y-114096898D01*
X123220000Y-114096898D01*
X123220000Y-114097500D01*
X122670000Y-114097500D01*
X122670000Y-112597500D01*
G37*
G04 #@! TD.AperFunction*
D19*
X115227100Y-118745000D03*
D18*
X115227100Y-128905000D03*
D25*
X127590000Y-137210000D03*
D26*
X128850000Y-139700000D03*
X133350000Y-139700000D03*
D25*
X134600000Y-137210000D03*
X149840000Y-137210000D03*
D26*
X148590000Y-139700000D03*
X144090000Y-139700000D03*
D25*
X142830000Y-137210000D03*
X108565000Y-137210000D03*
D26*
X107315000Y-139700000D03*
X102815000Y-139700000D03*
D25*
X101555000Y-137210000D03*
X86315000Y-137210000D03*
D26*
X87575000Y-139700000D03*
X92075000Y-139700000D03*
D25*
X93325000Y-137210000D03*
D18*
X78740000Y-99060000D03*
X78740000Y-104060000D03*
D21*
X160020000Y-137160000D03*
D22*
X160020000Y-139700000D03*
D19*
X132080000Y-118110000D03*
D18*
X132080000Y-107950000D03*
X161925000Y-133350000D03*
D19*
X161925000Y-123190000D03*
D27*
X149860000Y-125730000D03*
D28*
X157480000Y-130810000D03*
X149860000Y-128270000D03*
X157480000Y-128270000D03*
X149860000Y-130810000D03*
X157480000Y-125730000D03*
D29*
X82550000Y-105410000D03*
D30*
X100330000Y-97790000D03*
X85090000Y-105410000D03*
X97790000Y-97790000D03*
X87630000Y-105410000D03*
X95250000Y-97790000D03*
X90170000Y-105410000D03*
X92710000Y-97790000D03*
X92710000Y-105410000D03*
X90170000Y-97790000D03*
X95250000Y-105410000D03*
X87630000Y-97790000D03*
X97790000Y-105410000D03*
X85090000Y-97790000D03*
X100330000Y-105410000D03*
X82550000Y-97790000D03*
D31*
X106299000Y-90932000D03*
X119253000Y-113411000D03*
D32*
X141605000Y-115570000D03*
X140970000Y-114935000D03*
X141605000Y-114300000D03*
X140970000Y-113665000D03*
X165679500Y-95885000D03*
X142295500Y-100965000D03*
X165679500Y-99060000D03*
X104140000Y-99695000D03*
X156845000Y-100965000D03*
X86461500Y-90932000D03*
X103886000Y-91948000D03*
X156845000Y-93980040D03*
X157480000Y-97155000D03*
X127000000Y-97790000D03*
X128905000Y-95885000D03*
D31*
X88400001Y-91939999D03*
X123825000Y-99694988D03*
X123825006Y-92710006D03*
X143700000Y-103505000D03*
X133350000Y-92710000D03*
X102362000Y-90932000D03*
D32*
X158115000Y-107950000D03*
X154940000Y-104140000D03*
X155575000Y-86995000D03*
X159385000Y-102235000D03*
X156210000Y-104140000D03*
X155575000Y-85725000D03*
D31*
X98361500Y-90932000D03*
X125729994Y-99695000D03*
X125730002Y-93980002D03*
D32*
X94361000Y-90932000D03*
X90424000Y-90932000D03*
D33*
X106261500Y-91021500D02*
X106299000Y-91059000D01*
X106299000Y-84644000D02*
X106261500Y-84606500D01*
X106299000Y-90932000D02*
X106299000Y-84644000D01*
X119189500Y-113347500D02*
X119253000Y-113411000D01*
X117822500Y-113347500D02*
X119189500Y-113347500D01*
X119189500Y-113347500D02*
X120620000Y-113347500D01*
D34*
X83185000Y-139700000D02*
X80645000Y-139700000D01*
X83820000Y-139065000D02*
X83185000Y-139700000D01*
X83820000Y-133286500D02*
X83820000Y-139065000D01*
X85026500Y-132080000D02*
X83820000Y-133286500D01*
X114350800Y-132080000D02*
X85026500Y-132080000D01*
X115227100Y-131203700D02*
X114350800Y-132080000D01*
X115227100Y-128905000D02*
X115227100Y-131203700D01*
D33*
X119065000Y-109476500D02*
X119065000Y-107950000D01*
X121920000Y-112331500D02*
X119065000Y-109476500D01*
X121920000Y-113347500D02*
X121920000Y-112331500D01*
X116522500Y-107952500D02*
X116525000Y-107950000D01*
X116522500Y-113347500D02*
X116522500Y-107952500D01*
D34*
X148590000Y-139700000D02*
X143510000Y-134620000D01*
X143510000Y-134620000D02*
X130810000Y-134620000D01*
X130810000Y-134620000D02*
X129540000Y-133350000D01*
X129540000Y-133350000D02*
X129540000Y-118745000D01*
X132715000Y-115570000D02*
X141605000Y-115570000D01*
X129540000Y-118745000D02*
X132715000Y-115570000D01*
X132080000Y-114935000D02*
X140970000Y-114935000D01*
X128905000Y-135255000D02*
X128905000Y-118110000D01*
X128905000Y-118110000D02*
X132080000Y-114935000D01*
X133350000Y-139700000D02*
X128905000Y-135255000D01*
X110490000Y-139700000D02*
X118110000Y-132080000D01*
X118110000Y-127635000D02*
X131445000Y-114300000D01*
X131445000Y-114300000D02*
X141605000Y-114300000D01*
X118110000Y-132080000D02*
X118110000Y-127635000D01*
X107315000Y-139700000D02*
X110490000Y-139700000D01*
X117475000Y-127000000D02*
X130810000Y-113665000D01*
X116205000Y-132715000D02*
X117475000Y-131445000D01*
X101600000Y-132715000D02*
X116205000Y-132715000D01*
X94615000Y-139700000D02*
X101600000Y-132715000D01*
X92075000Y-139700000D02*
X94615000Y-139700000D01*
X130810000Y-113665000D02*
X140970000Y-113665000D01*
X117475000Y-131445000D02*
X117475000Y-127000000D01*
X142295500Y-109164500D02*
X142295500Y-100965000D01*
X141605000Y-109855000D02*
X142295500Y-109164500D01*
X125095000Y-109855000D02*
X141605000Y-109855000D01*
X124145000Y-108905000D02*
X125095000Y-109855000D01*
X124145000Y-107950000D02*
X124145000Y-108905000D01*
X148590000Y-97790000D02*
X146685000Y-99695000D01*
X146685000Y-99695000D02*
X146050000Y-99695000D01*
X158115000Y-97790000D02*
X148590000Y-97790000D01*
X160020000Y-95885000D02*
X158115000Y-97790000D01*
X165679500Y-95885000D02*
X160020000Y-95885000D01*
X142875000Y-102870000D02*
X143510000Y-102235000D01*
X142875000Y-109855000D02*
X142875000Y-102870000D01*
X143510000Y-102235000D02*
X146050000Y-102235000D01*
X142240000Y-110490000D02*
X142875000Y-109855000D01*
X122555000Y-110490000D02*
X142240000Y-110490000D01*
X121605000Y-109540000D02*
X122555000Y-110490000D01*
X121605000Y-107950000D02*
X121605000Y-109540000D01*
X165100000Y-98480500D02*
X165679500Y-99060000D01*
X160599500Y-98480500D02*
X165100000Y-98480500D01*
X156845000Y-102235000D02*
X160599500Y-98480500D01*
X146050000Y-102235000D02*
X156845000Y-102235000D01*
D33*
X147320000Y-84455000D02*
X146050000Y-84455000D01*
X162560000Y-80010000D02*
X148590000Y-80010000D01*
X147955000Y-80645000D02*
X147955000Y-83820000D01*
X163195000Y-80645000D02*
X162560000Y-80010000D01*
X163195000Y-82550000D02*
X163195000Y-80645000D01*
X166370000Y-85725000D02*
X163195000Y-82550000D01*
X166370000Y-112395000D02*
X166370000Y-85725000D01*
X148590000Y-80010000D02*
X147955000Y-80645000D01*
X167005000Y-113030000D02*
X166370000Y-112395000D01*
X147955000Y-83820000D02*
X147320000Y-84455000D01*
X168275000Y-113030000D02*
X167005000Y-113030000D01*
D34*
X105410000Y-98425000D02*
X104140000Y-99695000D01*
X142240000Y-98425000D02*
X105410000Y-98425000D01*
X144780000Y-100965000D02*
X142240000Y-98425000D01*
X156845000Y-100965000D02*
X144780000Y-100965000D01*
X158750000Y-128270000D02*
X157480000Y-128270000D01*
X159385000Y-127635000D02*
X158750000Y-128270000D01*
X159385000Y-125095000D02*
X159385000Y-127635000D01*
X158750000Y-124460000D02*
X159385000Y-125095000D01*
X158750000Y-104140000D02*
X158750000Y-124460000D01*
X160655000Y-102235000D02*
X158750000Y-104140000D01*
X161290000Y-102235000D02*
X160655000Y-102235000D01*
X86461500Y-90932000D02*
X86461500Y-84606500D01*
X108966000Y-91948000D02*
X103886000Y-91948000D01*
X115697000Y-91948000D02*
X108966000Y-91948000D01*
X116840000Y-90805000D02*
X115697000Y-91948000D01*
X116840000Y-86995000D02*
X116840000Y-90805000D01*
X117475000Y-86360000D02*
X116840000Y-86995000D01*
X135890000Y-86360000D02*
X117475000Y-86360000D01*
X136525000Y-86995000D02*
X135890000Y-86360000D01*
X136525000Y-88265000D02*
X136525000Y-86995000D01*
X151129960Y-88265000D02*
X156845000Y-93980040D01*
X136525000Y-88265000D02*
X151129960Y-88265000D01*
X148590000Y-97155000D02*
X157480000Y-97155000D01*
X147320000Y-95885000D02*
X148590000Y-97155000D01*
X143510000Y-97155000D02*
X144780000Y-95885000D01*
X104140000Y-97155000D02*
X143510000Y-97155000D01*
X144780000Y-95885000D02*
X147320000Y-95885000D01*
X99695000Y-99695000D02*
X101600000Y-99695000D01*
X101600000Y-99695000D02*
X104140000Y-97155000D01*
X97790000Y-97790000D02*
X99695000Y-99695000D01*
X100330000Y-97790000D02*
X102235000Y-97790000D01*
X103505000Y-96520000D02*
X142875000Y-96520000D01*
X142875000Y-96520000D02*
X143510000Y-95885000D01*
X102235000Y-97790000D02*
X103505000Y-96520000D01*
X143510000Y-95885000D02*
X143510000Y-93980000D01*
X143510000Y-93980000D02*
X144145000Y-93345000D01*
X144145000Y-93345000D02*
X147320000Y-93345000D01*
X160337500Y-94615000D02*
X161290000Y-94615000D01*
X147320000Y-93345000D02*
X149860000Y-95885000D01*
X149860000Y-95885000D02*
X159067500Y-95885000D01*
X159067500Y-95885000D02*
X160337500Y-94615000D01*
X87630000Y-105410000D02*
X87630000Y-107315000D01*
X87630000Y-107315000D02*
X88265000Y-107950000D01*
X88265000Y-107950000D02*
X102235000Y-107950000D01*
X102235000Y-107950000D02*
X102870000Y-107315000D01*
X102870000Y-107315000D02*
X102870000Y-99695000D01*
X102870000Y-99695000D02*
X104775000Y-97790000D01*
X104775000Y-97790000D02*
X127000000Y-97790000D01*
X161290000Y-92075000D02*
X158115000Y-95250000D01*
X152400000Y-95250000D02*
X147955000Y-90805000D01*
X158115000Y-95250000D02*
X152400000Y-95250000D01*
X147955000Y-90805000D02*
X133985000Y-90805000D01*
X133985000Y-90805000D02*
X128905000Y-95885000D01*
D33*
X80010000Y-97790000D02*
X78740000Y-99060000D01*
X82550000Y-97790000D02*
X80010000Y-97790000D01*
X123220000Y-114746250D02*
X123220000Y-113347500D01*
X122396250Y-115570000D02*
X123220000Y-114746250D01*
X109220000Y-118745000D02*
X115227100Y-118745000D01*
X115222500Y-118740400D02*
X115227100Y-118745000D01*
X122396250Y-115570000D02*
X115256000Y-115570000D01*
X115256000Y-115570000D02*
X115222500Y-115603500D01*
X115222500Y-115603500D02*
X115222500Y-118740400D01*
X115222500Y-113347500D02*
X115222500Y-115603500D01*
X123825000Y-104140000D02*
X123825000Y-99694988D01*
X122591053Y-105373947D02*
X123825000Y-104140000D01*
X116317253Y-105373947D02*
X122591053Y-105373947D01*
X115222500Y-106468700D02*
X116317253Y-105373947D01*
X115222500Y-113347500D02*
X115222500Y-106468700D01*
X126365000Y-90170012D02*
X123825006Y-92710006D01*
X102362000Y-91948000D02*
X103124006Y-92710006D01*
X102362000Y-90931998D02*
X102362000Y-91948000D01*
X103124006Y-92710006D02*
X123825006Y-92710006D01*
X126365000Y-88265000D02*
X126365000Y-90170012D01*
X157480000Y-102870000D02*
X150495000Y-102870000D01*
X159385000Y-100965000D02*
X157480000Y-102870000D01*
X165100000Y-100965000D02*
X159385000Y-100965000D01*
X165735000Y-101600000D02*
X165100000Y-100965000D01*
X165735000Y-116840000D02*
X165735000Y-101600000D01*
X167005000Y-118110000D02*
X165735000Y-116840000D01*
X168275000Y-118110000D02*
X167005000Y-118110000D01*
X150495000Y-102870000D02*
X147955000Y-102870000D01*
X147320000Y-103505000D02*
X143700000Y-103505000D01*
X147955000Y-102870000D02*
X147320000Y-103505000D01*
X143700000Y-103505000D02*
X143700000Y-108775000D01*
X144780000Y-109855000D02*
X146050000Y-109855000D01*
X143700000Y-108775000D02*
X144780000Y-109855000D01*
X139700000Y-92710000D02*
X133350000Y-92710000D01*
X141605000Y-94615000D02*
X139700000Y-92710000D01*
X102362000Y-84667000D02*
X102301500Y-84606500D01*
X102362000Y-90932000D02*
X102362000Y-84667000D01*
X82550000Y-95885000D02*
X82550000Y-97790000D01*
X86495001Y-91939999D02*
X82550000Y-95885000D01*
X88400001Y-91939999D02*
X86495001Y-91939999D01*
D34*
X158115000Y-118110000D02*
X158115000Y-107950000D01*
X156210000Y-120015000D02*
X158115000Y-118110000D01*
X142875000Y-118745000D02*
X144145000Y-120015000D01*
X142240000Y-113030000D02*
X142875000Y-113665000D01*
X142875000Y-113665000D02*
X142875000Y-118745000D01*
X130175000Y-113030000D02*
X142240000Y-113030000D01*
X116205000Y-127000000D02*
X130175000Y-113030000D01*
X112395000Y-127000000D02*
X116205000Y-127000000D01*
X144145000Y-120015000D02*
X156210000Y-120015000D01*
X110490000Y-128905000D02*
X112395000Y-127000000D01*
X109220000Y-128905000D02*
X110490000Y-128905000D01*
X151765000Y-104140000D02*
X154940000Y-104140000D01*
X149860000Y-104140000D02*
X151765000Y-104140000D01*
X148590000Y-105410000D02*
X149860000Y-104140000D01*
X147320000Y-113665000D02*
X148590000Y-112395000D01*
X144145000Y-113030000D02*
X144780000Y-113665000D01*
X144145000Y-112395000D02*
X144145000Y-113030000D01*
X148590000Y-112395000D02*
X148590000Y-105410000D01*
X143510000Y-111760000D02*
X144145000Y-112395000D01*
X128905000Y-111760000D02*
X143510000Y-111760000D01*
X144780000Y-113665000D02*
X147320000Y-113665000D01*
X116840000Y-123825000D02*
X128905000Y-111760000D01*
X109220000Y-123825000D02*
X116840000Y-123825000D01*
X158115000Y-84455000D02*
X155575000Y-86995000D01*
X161290000Y-84455000D02*
X158115000Y-84455000D01*
X158115000Y-103505000D02*
X159385000Y-102235000D01*
X149225000Y-103505000D02*
X158115000Y-103505000D01*
X147955000Y-104775000D02*
X149225000Y-103505000D01*
X147320000Y-111125000D02*
X147955000Y-110490000D01*
X128270000Y-111125000D02*
X147320000Y-111125000D01*
X147955000Y-110490000D02*
X147955000Y-104775000D01*
X118110000Y-121285000D02*
X128270000Y-111125000D01*
X109220000Y-121285000D02*
X118110000Y-121285000D01*
X156210000Y-118745000D02*
X156210000Y-115570000D01*
X155575000Y-119380000D02*
X156210000Y-118745000D01*
X143510000Y-113030000D02*
X143510000Y-118110000D01*
X142875000Y-112395000D02*
X143510000Y-113030000D01*
X143510000Y-118110000D02*
X144780000Y-119380000D01*
X129540000Y-112395000D02*
X142875000Y-112395000D01*
X144780000Y-119380000D02*
X155575000Y-119380000D01*
X115570000Y-126365000D02*
X129540000Y-112395000D01*
X156210000Y-115570000D02*
X156210000Y-104140000D01*
X109220000Y-126365000D02*
X115570000Y-126365000D01*
X144780000Y-85725000D02*
X155575000Y-85725000D01*
X144145000Y-83820000D02*
X144145000Y-85090000D01*
X146050000Y-81915000D02*
X144145000Y-83820000D01*
X144145000Y-85090000D02*
X144780000Y-85725000D01*
X161925000Y-139065000D02*
X161290000Y-139700000D01*
X161925000Y-133350000D02*
X161925000Y-139065000D01*
X160020000Y-139700000D02*
X161290000Y-139700000D01*
D33*
X98341500Y-90912000D02*
X98361500Y-90932000D01*
X98361500Y-84626500D02*
X98341500Y-84606500D01*
X98361500Y-90932000D02*
X98361500Y-84626500D01*
X125729994Y-99695000D02*
X125729994Y-104139994D01*
X125729994Y-104139994D02*
X126936500Y-105346500D01*
X132080000Y-106553000D02*
X130873500Y-105346500D01*
X132080000Y-107950000D02*
X132080000Y-106553000D01*
X126936500Y-105346500D02*
X130873500Y-105346500D01*
X128905000Y-90805004D02*
X125730002Y-93980002D01*
X128905000Y-88265000D02*
X128905000Y-90805004D01*
X100869752Y-93980002D02*
X125730002Y-93980002D01*
X98361500Y-91471750D02*
X100869752Y-93980002D01*
X98361500Y-90932000D02*
X98361500Y-91471750D01*
D34*
X92710000Y-95885000D02*
X92710000Y-97790000D01*
X93345000Y-95250000D02*
X92710000Y-95885000D01*
X126365000Y-95250000D02*
X93345000Y-95250000D01*
X131445000Y-90170000D02*
X126365000Y-95250000D01*
X131445000Y-88265000D02*
X131445000Y-90170000D01*
X133985000Y-89027000D02*
X133985000Y-88265000D01*
X127127000Y-95885000D02*
X133985000Y-89027000D01*
X93980000Y-96520000D02*
X94615000Y-95885000D01*
X93980000Y-106680000D02*
X93980000Y-96520000D01*
X93345000Y-107315000D02*
X93980000Y-106680000D01*
X92075000Y-107315000D02*
X93345000Y-107315000D01*
X91440000Y-106680000D02*
X92075000Y-107315000D01*
X91440000Y-104140000D02*
X91440000Y-106680000D01*
X90805000Y-103505000D02*
X91440000Y-104140000D01*
X83185000Y-103505000D02*
X90805000Y-103505000D01*
X82550000Y-104140000D02*
X83185000Y-103505000D01*
X94615000Y-95885000D02*
X127127000Y-95885000D01*
X82550000Y-105410000D02*
X82550000Y-104140000D01*
X94361000Y-84627000D02*
X94381500Y-84606500D01*
X94361000Y-90932000D02*
X94361000Y-84627000D01*
X91440000Y-93853000D02*
X94361000Y-90932000D01*
X91440000Y-99695000D02*
X91440000Y-93853000D01*
X92710000Y-100965000D02*
X91440000Y-99695000D01*
X92710000Y-105410000D02*
X92710000Y-100965000D01*
X90424000Y-84609000D02*
X90421500Y-84606500D01*
X90424000Y-90932000D02*
X90424000Y-84609000D01*
X90424000Y-90932000D02*
X90424000Y-91821000D01*
X87630000Y-94615000D02*
X87630000Y-97790000D01*
X90424000Y-91821000D02*
X87630000Y-94615000D01*
X133350000Y-125730000D02*
X132080000Y-124460000D01*
X149860000Y-125730000D02*
X133350000Y-125730000D01*
X132080000Y-118110000D02*
X132080000Y-124460000D01*
X160020000Y-107315000D02*
X161290000Y-107315000D01*
X159385000Y-107950000D02*
X160020000Y-107315000D01*
X159385000Y-120650000D02*
X159385000Y-107950000D01*
X161925000Y-123190000D02*
X159385000Y-120650000D01*
M02*
