G04 #@! TF.GenerationSoftware,KiCad,Pcbnew,(5.1.8)-1*
G04 #@! TF.CreationDate,2022-01-29T23:12:44+01:00*
G04 #@! TF.ProjectId,PlayOnTape Module,506c6179-4f6e-4546-9170-65204d6f6475,rev?*
G04 #@! TF.SameCoordinates,Original*
G04 #@! TF.FileFunction,Profile,NP*
%FSLAX46Y46*%
G04 Gerber Fmt 4.6, Leading zero omitted, Abs format (unit mm)*
G04 Created by KiCad (PCBNEW (5.1.8)-1) date 2022-01-29 23:12:44*
%MOMM*%
%LPD*%
G01*
G04 APERTURE LIST*
G04 #@! TA.AperFunction,Profile*
%ADD10C,0.150000*%
G04 #@! TD*
G04 APERTURE END LIST*
D10*
X117094000Y-78105000D02*
G75*
G03*
X115824000Y-79375000I0J-1270000D01*
G01*
X76835000Y-79375000D02*
G75*
G03*
X75565000Y-78105000I-1270000J0D01*
G01*
X109329600Y-78105000D02*
G75*
G02*
X109829600Y-78605000I0J-500000D01*
G01*
X82835000Y-78605000D02*
G75*
G02*
X83335000Y-78105000I500000J0D01*
G01*
X117094000Y-78105000D02*
X168910000Y-78105000D01*
X115824000Y-79375000D02*
X115829600Y-90106500D01*
X115829600Y-90106500D02*
X109829600Y-90106500D01*
X109829600Y-78605000D02*
X109829600Y-90106500D01*
X101071680Y-78107540D02*
X109329600Y-78105000D01*
X101071680Y-89855040D02*
X101071680Y-78107540D01*
X99568000Y-89852500D02*
X101071680Y-89855040D01*
X99568000Y-78105000D02*
X99568000Y-89852500D01*
X83335000Y-78105000D02*
X99568000Y-78105000D01*
X76835000Y-90106500D02*
X82835000Y-90106500D01*
X76835000Y-79375000D02*
X76835000Y-90106500D01*
X82835000Y-78605000D02*
X82835000Y-90106500D01*
X70485000Y-79375000D02*
X70485000Y-118110000D01*
X70485000Y-129151000D02*
X72390000Y-127627000D01*
X70485000Y-140970000D02*
X70485000Y-129151000D01*
X72390000Y-119380000D02*
X72390000Y-127627000D01*
X70485000Y-118110000D02*
X72390000Y-119380000D01*
X75565000Y-78105000D02*
X71755000Y-78105000D01*
X71755000Y-78105000D02*
G75*
G03*
X70485000Y-79375000I0J-1270000D01*
G01*
X170180000Y-79375000D02*
G75*
G03*
X168910000Y-78105000I-1270000J0D01*
G01*
X170180000Y-140970000D02*
X170180000Y-79375000D01*
X168910000Y-142240000D02*
G75*
G03*
X170180000Y-140970000I0J1270000D01*
G01*
X71755000Y-142240000D02*
X168910000Y-142240000D01*
X70485000Y-140970000D02*
G75*
G03*
X71755000Y-142240000I1270000J0D01*
G01*
M02*
