G04 #@! TF.GenerationSoftware,KiCad,Pcbnew,(5.1.8)-1*
G04 #@! TF.CreationDate,2022-01-29T23:12:44+01:00*
G04 #@! TF.ProjectId,PlayOnTape Module,506c6179-4f6e-4546-9170-65204d6f6475,rev?*
G04 #@! TF.SameCoordinates,Original*
G04 #@! TF.FileFunction,Legend,Bot*
G04 #@! TF.FilePolarity,Positive*
%FSLAX46Y46*%
G04 Gerber Fmt 4.6, Leading zero omitted, Abs format (unit mm)*
G04 Created by KiCad (PCBNEW (5.1.8)-1) date 2022-01-29 23:12:44*
%MOMM*%
%LPD*%
G01*
G04 APERTURE LIST*
%ADD10C,0.100000*%
%ADD11C,0.150000*%
%ADD12C,0.200000*%
%ADD13C,0.010000*%
G04 APERTURE END LIST*
D10*
X166096904Y-114503333D02*
X165296904Y-114503333D01*
X165296904Y-114808095D01*
X165335000Y-114884285D01*
X165373095Y-114922380D01*
X165449285Y-114960476D01*
X165563571Y-114960476D01*
X165639761Y-114922380D01*
X165677857Y-114884285D01*
X165715952Y-114808095D01*
X165715952Y-114503333D01*
X165296904Y-115227142D02*
X166096904Y-115417619D01*
X165525476Y-115570000D01*
X166096904Y-115722380D01*
X165296904Y-115912857D01*
X166096904Y-116674761D02*
X165715952Y-116408095D01*
X166096904Y-116217619D02*
X165296904Y-116217619D01*
X165296904Y-116522380D01*
X165335000Y-116598571D01*
X165373095Y-116636666D01*
X165449285Y-116674761D01*
X165563571Y-116674761D01*
X165639761Y-116636666D01*
X165677857Y-116598571D01*
X165715952Y-116522380D01*
X165715952Y-116217619D01*
D11*
X74295000Y-102235000D02*
X70485000Y-102235000D01*
X74295000Y-93345000D02*
X70485000Y-93345000D01*
X74295000Y-102235000D02*
X74295000Y-93345000D01*
D12*
X146050000Y-118110000D02*
X146050000Y-121920000D01*
D10*
X157555714Y-99828333D02*
X157174761Y-99828333D01*
X157631904Y-100056904D02*
X157365238Y-99256904D01*
X157098571Y-100056904D01*
X156831904Y-100056904D02*
X156831904Y-99523571D01*
X156831904Y-99675952D02*
X156793809Y-99599761D01*
X156755714Y-99561666D01*
X156679523Y-99523571D01*
X156603333Y-99523571D01*
X155993809Y-100056904D02*
X155993809Y-99256904D01*
X155993809Y-100018809D02*
X156070000Y-100056904D01*
X156222380Y-100056904D01*
X156298571Y-100018809D01*
X156336666Y-99980714D01*
X156374761Y-99904523D01*
X156374761Y-99675952D01*
X156336666Y-99599761D01*
X156298571Y-99561666D01*
X156222380Y-99523571D01*
X156070000Y-99523571D01*
X155993809Y-99561666D01*
X155270000Y-99523571D02*
X155270000Y-100056904D01*
X155612857Y-99523571D02*
X155612857Y-99942619D01*
X155574761Y-100018809D01*
X155498571Y-100056904D01*
X155384285Y-100056904D01*
X155308095Y-100018809D01*
X155270000Y-99980714D01*
X154889047Y-100056904D02*
X154889047Y-99523571D01*
X154889047Y-99256904D02*
X154927142Y-99295000D01*
X154889047Y-99333095D01*
X154850952Y-99295000D01*
X154889047Y-99256904D01*
X154889047Y-99333095D01*
X154508095Y-99523571D02*
X154508095Y-100056904D01*
X154508095Y-99599761D02*
X154470000Y-99561666D01*
X154393809Y-99523571D01*
X154279523Y-99523571D01*
X154203333Y-99561666D01*
X154165238Y-99637857D01*
X154165238Y-100056904D01*
X153670000Y-100056904D02*
X153746190Y-100018809D01*
X153784285Y-99980714D01*
X153822380Y-99904523D01*
X153822380Y-99675952D01*
X153784285Y-99599761D01*
X153746190Y-99561666D01*
X153670000Y-99523571D01*
X153555714Y-99523571D01*
X153479523Y-99561666D01*
X153441428Y-99599761D01*
X153403333Y-99675952D01*
X153403333Y-99904523D01*
X153441428Y-99980714D01*
X153479523Y-100018809D01*
X153555714Y-100056904D01*
X153670000Y-100056904D01*
X152450952Y-100056904D02*
X152450952Y-99256904D01*
X151993809Y-100056904D01*
X151993809Y-99256904D01*
X151270000Y-100056904D02*
X151270000Y-99637857D01*
X151308095Y-99561666D01*
X151384285Y-99523571D01*
X151536666Y-99523571D01*
X151612857Y-99561666D01*
X151270000Y-100018809D02*
X151346190Y-100056904D01*
X151536666Y-100056904D01*
X151612857Y-100018809D01*
X151650952Y-99942619D01*
X151650952Y-99866428D01*
X151612857Y-99790238D01*
X151536666Y-99752142D01*
X151346190Y-99752142D01*
X151270000Y-99714047D01*
X150889047Y-99523571D02*
X150889047Y-100056904D01*
X150889047Y-99599761D02*
X150850952Y-99561666D01*
X150774761Y-99523571D01*
X150660476Y-99523571D01*
X150584285Y-99561666D01*
X150546190Y-99637857D01*
X150546190Y-100056904D01*
X150050952Y-100056904D02*
X150127142Y-100018809D01*
X150165238Y-99980714D01*
X150203333Y-99904523D01*
X150203333Y-99675952D01*
X150165238Y-99599761D01*
X150127142Y-99561666D01*
X150050952Y-99523571D01*
X149936666Y-99523571D01*
X149860476Y-99561666D01*
X149822380Y-99599761D01*
X149784285Y-99675952D01*
X149784285Y-99904523D01*
X149822380Y-99980714D01*
X149860476Y-100018809D01*
X149936666Y-100056904D01*
X150050952Y-100056904D01*
X165677857Y-99822380D02*
X165677857Y-100089047D01*
X166096904Y-100203333D02*
X166096904Y-99822380D01*
X165296904Y-99822380D01*
X165296904Y-100203333D01*
X165296904Y-100470000D02*
X166096904Y-101003333D01*
X165296904Y-101003333D02*
X166096904Y-100470000D01*
X165296904Y-101193809D02*
X165296904Y-101650952D01*
X166096904Y-101422380D02*
X165296904Y-101422380D01*
X165677857Y-101917619D02*
X165677857Y-102184285D01*
X166096904Y-102298571D02*
X166096904Y-101917619D01*
X165296904Y-101917619D01*
X165296904Y-102298571D01*
X166096904Y-102641428D02*
X165296904Y-102641428D01*
X166096904Y-103098571D01*
X165296904Y-103098571D01*
X166058809Y-103441428D02*
X166096904Y-103555714D01*
X166096904Y-103746190D01*
X166058809Y-103822380D01*
X166020714Y-103860476D01*
X165944523Y-103898571D01*
X165868333Y-103898571D01*
X165792142Y-103860476D01*
X165754047Y-103822380D01*
X165715952Y-103746190D01*
X165677857Y-103593809D01*
X165639761Y-103517619D01*
X165601666Y-103479523D01*
X165525476Y-103441428D01*
X165449285Y-103441428D01*
X165373095Y-103479523D01*
X165335000Y-103517619D01*
X165296904Y-103593809D01*
X165296904Y-103784285D01*
X165335000Y-103898571D01*
X166096904Y-104241428D02*
X165296904Y-104241428D01*
X165296904Y-104774761D02*
X165296904Y-104927142D01*
X165335000Y-105003333D01*
X165411190Y-105079523D01*
X165563571Y-105117619D01*
X165830238Y-105117619D01*
X165982619Y-105079523D01*
X166058809Y-105003333D01*
X166096904Y-104927142D01*
X166096904Y-104774761D01*
X166058809Y-104698571D01*
X165982619Y-104622380D01*
X165830238Y-104584285D01*
X165563571Y-104584285D01*
X165411190Y-104622380D01*
X165335000Y-104698571D01*
X165296904Y-104774761D01*
X166096904Y-105460476D02*
X165296904Y-105460476D01*
X166096904Y-105917619D01*
X165296904Y-105917619D01*
D12*
X161290000Y-121920000D02*
X161290000Y-118110000D01*
X146050000Y-121920000D02*
X161290000Y-121920000D01*
X161290000Y-78740000D02*
X161290000Y-81280000D01*
X146050000Y-78740000D02*
X161290000Y-78740000D01*
X146050000Y-81280000D02*
X146050000Y-78740000D01*
X166370000Y-93345000D02*
X170180000Y-93345000D01*
X166370000Y-111760000D02*
X166370000Y-93345000D01*
X166370000Y-120015000D02*
X170180000Y-120015000D01*
X166370000Y-111760000D02*
X166370000Y-120015000D01*
X170180000Y-111760000D02*
X166370000Y-111760000D01*
D13*
G36*
X125684870Y-99900311D02*
G01*
X125125510Y-99900311D01*
X125125510Y-99086697D01*
X124591576Y-99086697D01*
X124591576Y-100179990D01*
X124871256Y-100179990D01*
X124871256Y-100459670D01*
X125150936Y-100459670D01*
X125150936Y-100739350D01*
X126244229Y-100739350D01*
X126244229Y-100459670D01*
X125405190Y-100459670D01*
X125405190Y-100179990D01*
X125964549Y-100179990D01*
X125964549Y-99900311D01*
X126244229Y-99900311D01*
X126244229Y-99086697D01*
X125684870Y-99086697D01*
X125684870Y-99900311D01*
G37*
X125684870Y-99900311D02*
X125125510Y-99900311D01*
X125125510Y-99086697D01*
X124591576Y-99086697D01*
X124591576Y-100179990D01*
X124871256Y-100179990D01*
X124871256Y-100459670D01*
X125150936Y-100459670D01*
X125150936Y-100739350D01*
X126244229Y-100739350D01*
X126244229Y-100459670D01*
X125405190Y-100459670D01*
X125405190Y-100179990D01*
X125964549Y-100179990D01*
X125964549Y-99900311D01*
X126244229Y-99900311D01*
X126244229Y-99086697D01*
X125684870Y-99086697D01*
X125684870Y-99900311D01*
G36*
X110780543Y-99220180D02*
G01*
X110772858Y-99353664D01*
X110639374Y-99361349D01*
X110505891Y-99369034D01*
X110505891Y-99897653D01*
X110639374Y-99905338D01*
X110772858Y-99913023D01*
X110780543Y-100046507D01*
X110788228Y-100179990D01*
X111599184Y-100179990D01*
X111599184Y-100739350D01*
X112158543Y-100739350D01*
X112158543Y-99900311D01*
X111599184Y-99900311D01*
X111038104Y-99900311D01*
X111045321Y-99626987D01*
X111052537Y-99353664D01*
X111325861Y-99346447D01*
X111599184Y-99339231D01*
X111599184Y-99900311D01*
X112158543Y-99900311D01*
X112158543Y-99086697D01*
X110788228Y-99086697D01*
X110780543Y-99220180D01*
G37*
X110780543Y-99220180D02*
X110772858Y-99353664D01*
X110639374Y-99361349D01*
X110505891Y-99369034D01*
X110505891Y-99897653D01*
X110639374Y-99905338D01*
X110772858Y-99913023D01*
X110780543Y-100046507D01*
X110788228Y-100179990D01*
X111599184Y-100179990D01*
X111599184Y-100739350D01*
X112158543Y-100739350D01*
X112158543Y-99900311D01*
X111599184Y-99900311D01*
X111038104Y-99900311D01*
X111045321Y-99626987D01*
X111052537Y-99353664D01*
X111325861Y-99346447D01*
X111599184Y-99339231D01*
X111599184Y-99900311D01*
X112158543Y-99900311D01*
X112158543Y-99086697D01*
X110788228Y-99086697D01*
X110780543Y-99220180D01*
G36*
X130103866Y-98660821D02*
G01*
X130096181Y-98794305D01*
X129962697Y-98801990D01*
X129829214Y-98809675D01*
X129829214Y-99338294D01*
X129962697Y-99345979D01*
X130096181Y-99353664D01*
X130103866Y-99487147D01*
X130111551Y-99620631D01*
X130922507Y-99620631D01*
X130922507Y-100459670D01*
X131481867Y-100459670D01*
X131481867Y-98807017D01*
X130922507Y-98807017D01*
X130922507Y-99368097D01*
X130649184Y-99360881D01*
X130375861Y-99353664D01*
X130368644Y-99080341D01*
X130361428Y-98807017D01*
X130922507Y-98807017D01*
X131481867Y-98807017D01*
X131481867Y-98527338D01*
X130111551Y-98527338D01*
X130103866Y-98660821D01*
G37*
X130103866Y-98660821D02*
X130096181Y-98794305D01*
X129962697Y-98801990D01*
X129829214Y-98809675D01*
X129829214Y-99338294D01*
X129962697Y-99345979D01*
X130096181Y-99353664D01*
X130103866Y-99487147D01*
X130111551Y-99620631D01*
X130922507Y-99620631D01*
X130922507Y-100459670D01*
X131481867Y-100459670D01*
X131481867Y-98807017D01*
X130922507Y-98807017D01*
X130922507Y-99368097D01*
X130649184Y-99360881D01*
X130375861Y-99353664D01*
X130368644Y-99080341D01*
X130361428Y-98807017D01*
X130922507Y-98807017D01*
X131481867Y-98807017D01*
X131481867Y-98527338D01*
X130111551Y-98527338D01*
X130103866Y-98660821D01*
G36*
X128710495Y-100179990D02*
G01*
X128456241Y-100179990D01*
X128456241Y-100459670D01*
X129549534Y-100459670D01*
X129549534Y-100179990D01*
X129269855Y-100179990D01*
X129269855Y-99086697D01*
X129549534Y-99086697D01*
X129549534Y-98807017D01*
X128710495Y-98807017D01*
X128710495Y-100179990D01*
G37*
X128710495Y-100179990D02*
X128456241Y-100179990D01*
X128456241Y-100459670D01*
X129549534Y-100459670D01*
X129549534Y-100179990D01*
X129269855Y-100179990D01*
X129269855Y-99086697D01*
X129549534Y-99086697D01*
X129549534Y-98807017D01*
X128710495Y-98807017D01*
X128710495Y-100179990D01*
G36*
X126798561Y-99220180D02*
G01*
X126790876Y-99353664D01*
X126657392Y-99361349D01*
X126523909Y-99369034D01*
X126523909Y-100459670D01*
X127896882Y-100459670D01*
X127896882Y-100179990D01*
X127617202Y-100179990D01*
X127055185Y-100179990D01*
X127062870Y-100046507D01*
X127070555Y-99913023D01*
X127343879Y-99905807D01*
X127617202Y-99898590D01*
X127617202Y-100179990D01*
X127896882Y-100179990D01*
X128176561Y-100179990D01*
X128176561Y-99900311D01*
X127896882Y-99900311D01*
X127896882Y-99620631D01*
X127055185Y-99620631D01*
X127062870Y-99487147D01*
X127070555Y-99353664D01*
X127483719Y-99346678D01*
X127896882Y-99339692D01*
X127896882Y-99086697D01*
X126806246Y-99086697D01*
X126798561Y-99220180D01*
G37*
X126798561Y-99220180D02*
X126790876Y-99353664D01*
X126657392Y-99361349D01*
X126523909Y-99369034D01*
X126523909Y-100459670D01*
X127896882Y-100459670D01*
X127896882Y-100179990D01*
X127617202Y-100179990D01*
X127055185Y-100179990D01*
X127062870Y-100046507D01*
X127070555Y-99913023D01*
X127343879Y-99905807D01*
X127617202Y-99898590D01*
X127617202Y-100179990D01*
X127896882Y-100179990D01*
X128176561Y-100179990D01*
X128176561Y-99900311D01*
X127896882Y-99900311D01*
X127896882Y-99620631D01*
X127055185Y-99620631D01*
X127062870Y-99487147D01*
X127070555Y-99353664D01*
X127483719Y-99346678D01*
X127896882Y-99339692D01*
X127896882Y-99086697D01*
X126806246Y-99086697D01*
X126798561Y-99220180D01*
G36*
X120721884Y-98660821D02*
G01*
X120714199Y-98794305D01*
X120580716Y-98801990D01*
X120447232Y-98809675D01*
X120447232Y-100179990D01*
X120726912Y-100179990D01*
X120726912Y-100459670D01*
X121820205Y-100459670D01*
X121820205Y-100179990D01*
X122099885Y-100179990D01*
X122099885Y-98807017D01*
X121820205Y-98807017D01*
X121540525Y-98807017D01*
X121540525Y-100179990D01*
X120981166Y-100179990D01*
X120981166Y-98807017D01*
X121540525Y-98807017D01*
X121820205Y-98807017D01*
X121820205Y-98527338D01*
X120729569Y-98527338D01*
X120721884Y-98660821D01*
G37*
X120721884Y-98660821D02*
X120714199Y-98794305D01*
X120580716Y-98801990D01*
X120447232Y-98809675D01*
X120447232Y-100179990D01*
X120726912Y-100179990D01*
X120726912Y-100459670D01*
X121820205Y-100459670D01*
X121820205Y-100179990D01*
X122099885Y-100179990D01*
X122099885Y-98807017D01*
X121820205Y-98807017D01*
X121540525Y-98807017D01*
X121540525Y-100179990D01*
X120981166Y-100179990D01*
X120981166Y-98807017D01*
X121540525Y-98807017D01*
X121820205Y-98807017D01*
X121820205Y-98527338D01*
X120729569Y-98527338D01*
X120721884Y-98660821D01*
G36*
X118789552Y-99220180D02*
G01*
X118781867Y-99353664D01*
X118648383Y-99361349D01*
X118514900Y-99369034D01*
X118514900Y-100459670D01*
X119047842Y-100459670D01*
X119061546Y-99353664D01*
X119334870Y-99346447D01*
X119608193Y-99339231D01*
X119608193Y-100459670D01*
X120167552Y-100459670D01*
X120167552Y-99086697D01*
X118797237Y-99086697D01*
X118789552Y-99220180D01*
G37*
X118789552Y-99220180D02*
X118781867Y-99353664D01*
X118648383Y-99361349D01*
X118514900Y-99369034D01*
X118514900Y-100459670D01*
X119047842Y-100459670D01*
X119061546Y-99353664D01*
X119334870Y-99346447D01*
X119608193Y-99339231D01*
X119608193Y-100459670D01*
X120167552Y-100459670D01*
X120167552Y-99086697D01*
X118797237Y-99086697D01*
X118789552Y-99220180D01*
G36*
X114370555Y-98807017D02*
G01*
X114929915Y-98807017D01*
X114929915Y-100459670D01*
X115463849Y-100459670D01*
X115463849Y-98807017D01*
X116023208Y-98807017D01*
X116023208Y-98527338D01*
X114370555Y-98527338D01*
X114370555Y-98807017D01*
G37*
X114370555Y-98807017D02*
X114929915Y-98807017D01*
X114929915Y-100459670D01*
X115463849Y-100459670D01*
X115463849Y-98807017D01*
X116023208Y-98807017D01*
X116023208Y-98527338D01*
X114370555Y-98527338D01*
X114370555Y-98807017D01*
G36*
X112712875Y-99220180D02*
G01*
X112705190Y-99353664D01*
X112571706Y-99361349D01*
X112438223Y-99369034D01*
X112438223Y-100459670D01*
X113811196Y-100459670D01*
X113811196Y-100179990D01*
X113531516Y-100179990D01*
X112969500Y-100179990D01*
X112977185Y-100046507D01*
X112984870Y-99913023D01*
X113258193Y-99905807D01*
X113531516Y-99898590D01*
X113531516Y-100179990D01*
X113811196Y-100179990D01*
X114090876Y-100179990D01*
X114090876Y-99900311D01*
X113811196Y-99900311D01*
X113811196Y-99620631D01*
X112969500Y-99620631D01*
X112977185Y-99487147D01*
X112984870Y-99353664D01*
X113811196Y-99339692D01*
X113811196Y-99086697D01*
X112720560Y-99086697D01*
X112712875Y-99220180D01*
G37*
X112712875Y-99220180D02*
X112705190Y-99353664D01*
X112571706Y-99361349D01*
X112438223Y-99369034D01*
X112438223Y-100459670D01*
X113811196Y-100459670D01*
X113811196Y-100179990D01*
X113531516Y-100179990D01*
X112969500Y-100179990D01*
X112977185Y-100046507D01*
X112984870Y-99913023D01*
X113258193Y-99905807D01*
X113531516Y-99898590D01*
X113531516Y-100179990D01*
X113811196Y-100179990D01*
X114090876Y-100179990D01*
X114090876Y-99900311D01*
X113811196Y-99900311D01*
X113811196Y-99620631D01*
X112969500Y-99620631D01*
X112977185Y-99487147D01*
X112984870Y-99353664D01*
X113811196Y-99339692D01*
X113811196Y-99086697D01*
X112720560Y-99086697D01*
X112712875Y-99220180D01*
G36*
X108848210Y-99220180D02*
G01*
X108840525Y-99353664D01*
X108707042Y-99361349D01*
X108573558Y-99369034D01*
X108573558Y-99900311D01*
X109666852Y-99900311D01*
X109666852Y-100179990D01*
X108853238Y-100179990D01*
X108853238Y-100459670D01*
X109946531Y-100459670D01*
X109946531Y-100179990D01*
X110226211Y-100179990D01*
X110226211Y-99620631D01*
X109666852Y-99620631D01*
X109104835Y-99620631D01*
X109112520Y-99487147D01*
X109120205Y-99353664D01*
X109393528Y-99346447D01*
X109666852Y-99339231D01*
X109666852Y-99620631D01*
X110226211Y-99620631D01*
X110226211Y-99369034D01*
X110092728Y-99361349D01*
X109959244Y-99353664D01*
X109951559Y-99220180D01*
X109943874Y-99086697D01*
X108855895Y-99086697D01*
X108848210Y-99220180D01*
G37*
X108848210Y-99220180D02*
X108840525Y-99353664D01*
X108707042Y-99361349D01*
X108573558Y-99369034D01*
X108573558Y-99900311D01*
X109666852Y-99900311D01*
X109666852Y-100179990D01*
X108853238Y-100179990D01*
X108853238Y-100459670D01*
X109946531Y-100459670D01*
X109946531Y-100179990D01*
X110226211Y-100179990D01*
X110226211Y-99620631D01*
X109666852Y-99620631D01*
X109104835Y-99620631D01*
X109112520Y-99487147D01*
X109120205Y-99353664D01*
X109393528Y-99346447D01*
X109666852Y-99339231D01*
X109666852Y-99620631D01*
X110226211Y-99620631D01*
X110226211Y-99369034D01*
X110092728Y-99361349D01*
X109959244Y-99353664D01*
X109951559Y-99220180D01*
X109943874Y-99086697D01*
X108855895Y-99086697D01*
X108848210Y-99220180D01*
G36*
X122557542Y-95374585D02*
G01*
X122099885Y-95374585D01*
X122099885Y-95806817D01*
X122989775Y-95806817D01*
X122989775Y-95374585D01*
X123879664Y-95374585D01*
X123879664Y-97612022D01*
X122989775Y-97612022D01*
X122989775Y-97154365D01*
X122099885Y-97154365D01*
X122099885Y-97584617D01*
X122322357Y-97591963D01*
X122544830Y-97599310D01*
X122552176Y-97821782D01*
X122559522Y-98044255D01*
X124309917Y-98044255D01*
X124317263Y-97821782D01*
X124324609Y-97599310D01*
X124547082Y-97591963D01*
X124769554Y-97584617D01*
X124769554Y-95374585D01*
X124311897Y-95374585D01*
X124311897Y-94942353D01*
X122557542Y-94942353D01*
X122557542Y-95374585D01*
G37*
X122557542Y-95374585D02*
X122099885Y-95374585D01*
X122099885Y-95806817D01*
X122989775Y-95806817D01*
X122989775Y-95374585D01*
X123879664Y-95374585D01*
X123879664Y-97612022D01*
X122989775Y-97612022D01*
X122989775Y-97154365D01*
X122099885Y-97154365D01*
X122099885Y-97584617D01*
X122322357Y-97591963D01*
X122544830Y-97599310D01*
X122552176Y-97821782D01*
X122559522Y-98044255D01*
X124309917Y-98044255D01*
X124317263Y-97821782D01*
X124324609Y-97599310D01*
X124547082Y-97591963D01*
X124769554Y-97584617D01*
X124769554Y-95374585D01*
X124311897Y-95374585D01*
X124311897Y-94942353D01*
X122557542Y-94942353D01*
X122557542Y-95374585D01*
G36*
X119455640Y-95374585D02*
G01*
X118997983Y-95374585D01*
X118997983Y-95806817D01*
X119887873Y-95806817D01*
X119887873Y-95374585D01*
X120777763Y-95374585D01*
X120777763Y-96264475D01*
X119457620Y-96264475D01*
X119450274Y-96486947D01*
X119442928Y-96709420D01*
X119220455Y-96716766D01*
X118997983Y-96724112D01*
X118997983Y-97584617D01*
X119220455Y-97591963D01*
X119442928Y-97599310D01*
X119450274Y-97821782D01*
X119457620Y-98044255D01*
X121208015Y-98044255D01*
X121215361Y-97821782D01*
X121222707Y-97599310D01*
X121445180Y-97591963D01*
X121667652Y-97584617D01*
X121667652Y-96696707D01*
X120777763Y-96696707D01*
X120777763Y-97612022D01*
X119887873Y-97612022D01*
X119887873Y-96696707D01*
X120777763Y-96696707D01*
X121667652Y-96696707D01*
X121667652Y-95374585D01*
X121209995Y-95374585D01*
X121209995Y-94942353D01*
X119455640Y-94942353D01*
X119455640Y-95374585D01*
G37*
X119455640Y-95374585D02*
X118997983Y-95374585D01*
X118997983Y-95806817D01*
X119887873Y-95806817D01*
X119887873Y-95374585D01*
X120777763Y-95374585D01*
X120777763Y-96264475D01*
X119457620Y-96264475D01*
X119450274Y-96486947D01*
X119442928Y-96709420D01*
X119220455Y-96716766D01*
X118997983Y-96724112D01*
X118997983Y-97584617D01*
X119220455Y-97591963D01*
X119442928Y-97599310D01*
X119450274Y-97821782D01*
X119457620Y-98044255D01*
X121208015Y-98044255D01*
X121215361Y-97821782D01*
X121222707Y-97599310D01*
X121445180Y-97591963D01*
X121667652Y-97584617D01*
X121667652Y-96696707D01*
X120777763Y-96696707D01*
X120777763Y-97612022D01*
X119887873Y-97612022D01*
X119887873Y-96696707D01*
X120777763Y-96696707D01*
X121667652Y-96696707D01*
X121667652Y-95374585D01*
X121209995Y-95374585D01*
X121209995Y-94942353D01*
X119455640Y-94942353D01*
X119455640Y-95374585D01*
G36*
X115896081Y-96722132D02*
G01*
X115463849Y-96722132D01*
X115463849Y-97154365D01*
X115896081Y-97154365D01*
X115896081Y-98044255D01*
X116785971Y-98044255D01*
X116785971Y-97154365D01*
X118565751Y-97154365D01*
X118565751Y-96264475D01*
X117675861Y-96264475D01*
X117675861Y-96722132D01*
X116785971Y-96722132D01*
X116785971Y-96264475D01*
X117675861Y-96264475D01*
X117675861Y-95834222D01*
X117453388Y-95826876D01*
X117230916Y-95819530D01*
X117223569Y-95597057D01*
X117216223Y-95374585D01*
X116785971Y-95374585D01*
X116785971Y-94942353D01*
X115896081Y-94942353D01*
X115896081Y-96722132D01*
G37*
X115896081Y-96722132D02*
X115463849Y-96722132D01*
X115463849Y-97154365D01*
X115896081Y-97154365D01*
X115896081Y-98044255D01*
X116785971Y-98044255D01*
X116785971Y-97154365D01*
X118565751Y-97154365D01*
X118565751Y-96264475D01*
X117675861Y-96264475D01*
X117675861Y-96722132D01*
X116785971Y-96722132D01*
X116785971Y-96264475D01*
X117675861Y-96264475D01*
X117675861Y-95834222D01*
X117453388Y-95826876D01*
X117230916Y-95819530D01*
X117223569Y-95597057D01*
X117216223Y-95374585D01*
X116785971Y-95374585D01*
X116785971Y-94942353D01*
X115896081Y-94942353D01*
X115896081Y-96722132D01*
M02*
