M48
INCH,TZ
T1C0.0157
T2C0.0300
T3C0.0315
T4C0.0354
T5C0.0390
T6C0.0394
T7C0.0472
T8C0.0512
T9C0.1200
%
G90
G05
T1
X34040Y-35800
X34803Y-36197
X35600Y-35800
X37150Y-35800
X38725Y-35800
X40300Y-35800
X40900Y-36200
X41000Y-39250
X41850Y-35800
X46950Y-44650
X48750Y-39250
X48750Y-36500
X49500Y-39250
X49500Y-37000
X50000Y-38500
X50750Y-37750
X55500Y-44750
X55500Y-45250
X55750Y-45000
X55750Y-45500
X56022Y-39750
X56575Y-41825
X61000Y-41000
X61250Y-33750
X61250Y-34250
X61500Y-41000
X61750Y-37000
X61750Y-39750
X62000Y-38250
X62250Y-42500
X62750Y-40250
X65228Y-37750
X65228Y-39000
T2
X45876Y-42500
X46876Y-42500
X47876Y-42500
X48876Y-42500
T3
X31000Y-39000
X31000Y-40969
X55500Y-41016
X55500Y-42000
X32500Y-38500
X32500Y-41500
X33500Y-38500
X33500Y-41500
X34500Y-38500
X34500Y-41500
X35500Y-38500
X35500Y-41500
X36500Y-38500
X36500Y-41500
X37500Y-38500
X37500Y-41500
X38500Y-38500
X38500Y-41500
X39500Y-38500
X39500Y-41500
X45365Y-46750
X45365Y-50750
X57500Y-32250
X57500Y-33250
X57500Y-34250
X57500Y-35250
X57500Y-36250
X57500Y-37250
X57500Y-38250
X57500Y-39250
X57500Y-40250
X57500Y-41250
X57500Y-42250
X57500Y-43250
X57500Y-44250
X57500Y-45250
X57500Y-46250
X63500Y-32250
X63500Y-33250
X63500Y-34250
X63500Y-35250
X63500Y-36250
X63500Y-37250
X63500Y-38250
X63500Y-39250
X63500Y-40250
X63500Y-41250
X63500Y-42250
X63500Y-43250
X63500Y-44250
X63500Y-45250
X63500Y-46250
X59000Y-49500
X59000Y-50500
X59000Y-51500
X62000Y-49500
X62000Y-50500
X62000Y-51500
X63750Y-48500
X63750Y-52500
X52000Y-42500
X52000Y-46500
T4
X63000Y-54000
X63000Y-55000
X31750Y-54000
X31750Y-55000
T5
X40478Y-55000
X42250Y-55000
X50728Y-55000
X52500Y-55000
X56728Y-55000
X58500Y-55000
X34478Y-55000
X36250Y-55000
T6
X28500Y-37500
X28500Y-38500
X28500Y-39500
X66250Y-44500
X66250Y-45500
X66250Y-46500
X66250Y-37500
X66250Y-38500
X66250Y-39500
X66250Y-40500
X66250Y-41500
X66250Y-42500
X66250Y-43500
T8
X39982Y-54020
X42742Y-54020
X50232Y-54020
X52992Y-54020
X56232Y-54020
X58992Y-54020
X33982Y-54020
X36742Y-54020
T9
X29000Y-32000
X65750Y-32000
X65750Y-54750
X29000Y-54750
T7
G00X42941Y-45750
M15
G01X43059Y-45750
M16
G05
G00X42941Y-46750
M15
G01X43059Y-46750
M16
G05
G00X42941Y-47750
M15
G01X43059Y-47750
M16
G05
G00X42941Y-48750
M15
G01X43059Y-48750
M16
G05
G00X42941Y-49750
M15
G01X43059Y-49750
M16
G05
G00X42941Y-50750
M15
G01X43059Y-50750
M16
G05
G00X48750Y-34809
M15
G01X48750Y-34691
M16
G05
G00X49750Y-34809
M15
G01X49750Y-34691
M16
G05
G00X50750Y-34809
M15
G01X50750Y-34691
M16
G05
G00X51750Y-34809
M15
G01X51750Y-34691
M16
G05
G00X52750Y-34809
M15
G01X52750Y-34691
M16
G05
G00X53750Y-34809
M15
G01X53750Y-34691
M16
G05
T0
M30
