G04 #@! TF.GenerationSoftware,KiCad,Pcbnew,(5.1.8)-1*
G04 #@! TF.CreationDate,2022-02-20T18:46:50+01:00*
G04 #@! TF.ProjectId,PlayOnTape Module,506c6179-4f6e-4546-9170-65204d6f6475,rev?*
G04 #@! TF.SameCoordinates,Original*
G04 #@! TF.FileFunction,Soldermask,Top*
G04 #@! TF.FilePolarity,Negative*
%FSLAX46Y46*%
G04 Gerber Fmt 4.6, Leading zero omitted, Abs format (unit mm)*
G04 Created by KiCad (PCBNEW (5.1.8)-1) date 2022-02-20 18:46:50*
%MOMM*%
%LPD*%
G01*
G04 APERTURE LIST*
%ADD10O,3.000000X5.000000*%
%ADD11O,1.800000X2.500000*%
%ADD12R,1.800000X2.500000*%
%ADD13R,2.500000X1.800000*%
%ADD14O,2.500000X1.800000*%
%ADD15R,2.200000X11.000000*%
%ADD16R,1.524000X1.524000*%
%ADD17C,1.524000*%
%ADD18C,2.500000*%
%ADD19O,1.700000X1.700000*%
%ADD20R,1.700000X1.700000*%
%ADD21R,1.600000X1.600000*%
%ADD22O,1.600000X1.600000*%
%ADD23C,5.000000*%
%ADD24C,1.600000*%
%ADD25R,1.800000X1.800000*%
%ADD26C,1.800000*%
%ADD27C,0.100000*%
%ADD28R,1.000000X1.500000*%
%ADD29C,2.100000*%
%ADD30C,1.750000*%
%ADD31R,2.400000X1.600000*%
%ADD32O,2.400000X1.600000*%
%ADD33R,1.600000X2.400000*%
%ADD34O,1.600000X2.400000*%
G04 APERTURE END LIST*
D10*
X133985000Y-81407000D03*
X126365000Y-81407000D03*
D11*
X136525000Y-88265000D03*
X133985000Y-88265000D03*
X131445000Y-88265000D03*
X128905000Y-88265000D03*
X126365000Y-88265000D03*
D12*
X123825000Y-88265000D03*
D13*
X109220000Y-116205000D03*
D14*
X109220000Y-118745000D03*
X109220000Y-121285000D03*
X109220000Y-123825000D03*
X109220000Y-126365000D03*
X109220000Y-128905000D03*
D15*
X106261500Y-84606500D03*
X102301500Y-84606500D03*
X98341500Y-84606500D03*
X94381500Y-84606500D03*
X90421500Y-84606500D03*
X86461500Y-84606500D03*
D16*
X116525000Y-107950000D03*
D17*
X119065000Y-107950000D03*
X121605000Y-107950000D03*
X124145000Y-107950000D03*
D18*
X132085000Y-132450000D03*
D19*
X72390000Y-100330000D03*
X72390000Y-97790000D03*
D20*
X72390000Y-95250000D03*
D21*
X161290000Y-117475000D03*
D22*
X146050000Y-84455000D03*
X161290000Y-114935000D03*
X146050000Y-86995000D03*
X161290000Y-112395000D03*
X146050000Y-89535000D03*
X161290000Y-109855000D03*
X146050000Y-92075000D03*
X161290000Y-107315000D03*
X146050000Y-94615000D03*
X161290000Y-104775000D03*
X146050000Y-97155000D03*
X161290000Y-102235000D03*
X146050000Y-99695000D03*
X161290000Y-99695000D03*
X146050000Y-102235000D03*
X161290000Y-97155000D03*
X146050000Y-104775000D03*
X161290000Y-94615000D03*
X146050000Y-107315000D03*
X161290000Y-92075000D03*
X146050000Y-109855000D03*
X161290000Y-89535000D03*
X146050000Y-112395000D03*
X161290000Y-86995000D03*
X146050000Y-114935000D03*
X161290000Y-84455000D03*
X146050000Y-117475000D03*
X161290000Y-81915000D03*
X146050000Y-81915000D03*
D20*
X168275000Y-95250000D03*
D19*
X168275000Y-97790000D03*
X168275000Y-100330000D03*
X168275000Y-102870000D03*
X168275000Y-105410000D03*
X168275000Y-107950000D03*
X168275000Y-110490000D03*
D23*
X73660000Y-139065000D03*
X167005000Y-139065000D03*
X167005000Y-81280000D03*
X73660000Y-81280000D03*
D21*
X140970000Y-106680000D03*
D24*
X140970000Y-104180000D03*
D25*
X80645000Y-137160000D03*
D26*
X80645000Y-139700000D03*
D20*
X168275000Y-113030000D03*
D19*
X168275000Y-115570000D03*
X168275000Y-118110000D03*
D27*
G36*
X117272500Y-112597500D02*
G01*
X117822500Y-112597500D01*
X117822500Y-112598102D01*
X117847034Y-112598102D01*
X117895865Y-112602912D01*
X117943990Y-112612484D01*
X117990945Y-112626728D01*
X118036278Y-112645505D01*
X118079551Y-112668636D01*
X118120350Y-112695896D01*
X118158279Y-112727024D01*
X118192976Y-112761721D01*
X118224104Y-112799650D01*
X118251364Y-112840449D01*
X118274495Y-112883722D01*
X118293272Y-112929055D01*
X118307516Y-112976010D01*
X118317088Y-113024135D01*
X118321898Y-113072966D01*
X118321898Y-113097500D01*
X118322500Y-113097500D01*
X118322500Y-113597500D01*
X118321898Y-113597500D01*
X118321898Y-113622034D01*
X118317088Y-113670865D01*
X118307516Y-113718990D01*
X118293272Y-113765945D01*
X118274495Y-113811278D01*
X118251364Y-113854551D01*
X118224104Y-113895350D01*
X118192976Y-113933279D01*
X118158279Y-113967976D01*
X118120350Y-113999104D01*
X118079551Y-114026364D01*
X118036278Y-114049495D01*
X117990945Y-114068272D01*
X117943990Y-114082516D01*
X117895865Y-114092088D01*
X117847034Y-114096898D01*
X117822500Y-114096898D01*
X117822500Y-114097500D01*
X117272500Y-114097500D01*
X117272500Y-112597500D01*
G37*
G36*
X115222500Y-114096898D02*
G01*
X115197966Y-114096898D01*
X115149135Y-114092088D01*
X115101010Y-114082516D01*
X115054055Y-114068272D01*
X115008722Y-114049495D01*
X114965449Y-114026364D01*
X114924650Y-113999104D01*
X114886721Y-113967976D01*
X114852024Y-113933279D01*
X114820896Y-113895350D01*
X114793636Y-113854551D01*
X114770505Y-113811278D01*
X114751728Y-113765945D01*
X114737484Y-113718990D01*
X114727912Y-113670865D01*
X114723102Y-113622034D01*
X114723102Y-113597500D01*
X114722500Y-113597500D01*
X114722500Y-113097500D01*
X114723102Y-113097500D01*
X114723102Y-113072966D01*
X114727912Y-113024135D01*
X114737484Y-112976010D01*
X114751728Y-112929055D01*
X114770505Y-112883722D01*
X114793636Y-112840449D01*
X114820896Y-112799650D01*
X114852024Y-112761721D01*
X114886721Y-112727024D01*
X114924650Y-112695896D01*
X114965449Y-112668636D01*
X115008722Y-112645505D01*
X115054055Y-112626728D01*
X115101010Y-112612484D01*
X115149135Y-112602912D01*
X115197966Y-112598102D01*
X115222500Y-112598102D01*
X115222500Y-112597500D01*
X115772500Y-112597500D01*
X115772500Y-114097500D01*
X115222500Y-114097500D01*
X115222500Y-114096898D01*
G37*
D28*
X116522500Y-113347500D03*
X121920000Y-113347500D03*
D27*
G36*
X120620000Y-114096898D02*
G01*
X120595466Y-114096898D01*
X120546635Y-114092088D01*
X120498510Y-114082516D01*
X120451555Y-114068272D01*
X120406222Y-114049495D01*
X120362949Y-114026364D01*
X120322150Y-113999104D01*
X120284221Y-113967976D01*
X120249524Y-113933279D01*
X120218396Y-113895350D01*
X120191136Y-113854551D01*
X120168005Y-113811278D01*
X120149228Y-113765945D01*
X120134984Y-113718990D01*
X120125412Y-113670865D01*
X120120602Y-113622034D01*
X120120602Y-113597500D01*
X120120000Y-113597500D01*
X120120000Y-113097500D01*
X120120602Y-113097500D01*
X120120602Y-113072966D01*
X120125412Y-113024135D01*
X120134984Y-112976010D01*
X120149228Y-112929055D01*
X120168005Y-112883722D01*
X120191136Y-112840449D01*
X120218396Y-112799650D01*
X120249524Y-112761721D01*
X120284221Y-112727024D01*
X120322150Y-112695896D01*
X120362949Y-112668636D01*
X120406222Y-112645505D01*
X120451555Y-112626728D01*
X120498510Y-112612484D01*
X120546635Y-112602912D01*
X120595466Y-112598102D01*
X120620000Y-112598102D01*
X120620000Y-112597500D01*
X121170000Y-112597500D01*
X121170000Y-114097500D01*
X120620000Y-114097500D01*
X120620000Y-114096898D01*
G37*
G36*
X122670000Y-112597500D02*
G01*
X123220000Y-112597500D01*
X123220000Y-112598102D01*
X123244534Y-112598102D01*
X123293365Y-112602912D01*
X123341490Y-112612484D01*
X123388445Y-112626728D01*
X123433778Y-112645505D01*
X123477051Y-112668636D01*
X123517850Y-112695896D01*
X123555779Y-112727024D01*
X123590476Y-112761721D01*
X123621604Y-112799650D01*
X123648864Y-112840449D01*
X123671995Y-112883722D01*
X123690772Y-112929055D01*
X123705016Y-112976010D01*
X123714588Y-113024135D01*
X123719398Y-113072966D01*
X123719398Y-113097500D01*
X123720000Y-113097500D01*
X123720000Y-113597500D01*
X123719398Y-113597500D01*
X123719398Y-113622034D01*
X123714588Y-113670865D01*
X123705016Y-113718990D01*
X123690772Y-113765945D01*
X123671995Y-113811278D01*
X123648864Y-113854551D01*
X123621604Y-113895350D01*
X123590476Y-113933279D01*
X123555779Y-113967976D01*
X123517850Y-113999104D01*
X123477051Y-114026364D01*
X123433778Y-114049495D01*
X123388445Y-114068272D01*
X123341490Y-114082516D01*
X123293365Y-114092088D01*
X123244534Y-114096898D01*
X123220000Y-114096898D01*
X123220000Y-114097500D01*
X122670000Y-114097500D01*
X122670000Y-112597500D01*
G37*
D22*
X115227100Y-118745000D03*
D24*
X115227100Y-128905000D03*
D29*
X127590000Y-137210000D03*
D30*
X128850000Y-139700000D03*
X133350000Y-139700000D03*
D29*
X134600000Y-137210000D03*
X149840000Y-137210000D03*
D30*
X148590000Y-139700000D03*
X144090000Y-139700000D03*
D29*
X142830000Y-137210000D03*
X108565000Y-137210000D03*
D30*
X107315000Y-139700000D03*
X102815000Y-139700000D03*
D29*
X101555000Y-137210000D03*
X86315000Y-137210000D03*
D30*
X87575000Y-139700000D03*
X92075000Y-139700000D03*
D29*
X93325000Y-137210000D03*
D24*
X78740000Y-99060000D03*
X78740000Y-104060000D03*
D25*
X160020000Y-137160000D03*
D26*
X160020000Y-139700000D03*
D22*
X132080000Y-118110000D03*
D24*
X132080000Y-107950000D03*
X161925000Y-133350000D03*
D22*
X161925000Y-123190000D03*
D31*
X149860000Y-125730000D03*
D32*
X157480000Y-130810000D03*
X149860000Y-128270000D03*
X157480000Y-128270000D03*
X149860000Y-130810000D03*
X157480000Y-125730000D03*
D33*
X82550000Y-105410000D03*
D34*
X100330000Y-97790000D03*
X85090000Y-105410000D03*
X97790000Y-97790000D03*
X87630000Y-105410000D03*
X95250000Y-97790000D03*
X90170000Y-105410000D03*
X92710000Y-97790000D03*
X92710000Y-105410000D03*
X90170000Y-97790000D03*
X95250000Y-105410000D03*
X87630000Y-97790000D03*
X97790000Y-105410000D03*
X85090000Y-97790000D03*
X100330000Y-105410000D03*
X82550000Y-97790000D03*
M02*
