G04 #@! TF.GenerationSoftware,KiCad,Pcbnew,(5.1.8)-1*
G04 #@! TF.CreationDate,2022-02-20T18:46:36+01:00*
G04 #@! TF.ProjectId,PlayOnTape Faceplate A1,506c6179-4f6e-4546-9170-652046616365,rev?*
G04 #@! TF.SameCoordinates,Original*
G04 #@! TF.FileFunction,Legend,Top*
G04 #@! TF.FilePolarity,Positive*
%FSLAX46Y46*%
G04 Gerber Fmt 4.6, Leading zero omitted, Abs format (unit mm)*
G04 Created by KiCad (PCBNEW (5.1.8)-1) date 2022-02-20 18:46:36*
%MOMM*%
%LPD*%
G01*
G04 APERTURE LIST*
%ADD10C,0.300000*%
%ADD11C,2.300000*%
%ADD12C,0.400000*%
%ADD13C,0.600000*%
%ADD14C,0.500000*%
%ADD15C,0.150000*%
%ADD16C,0.200000*%
%ADD17C,0.100000*%
%ADD18C,0.010000*%
%ADD19C,0.120000*%
G04 APERTURE END LIST*
D10*
X81200714Y-105275000D02*
X82629285Y-105275000D01*
X80915000Y-106132142D02*
X81915000Y-103132142D01*
X82915000Y-106132142D01*
D11*
X88900000Y-106680000D02*
G75*
G03*
X98425000Y-116205000I9525000J0D01*
G01*
X98425000Y-97155000D02*
G75*
G03*
X88900000Y-106680000I0J-9525000D01*
G01*
X142240000Y-116205000D02*
G75*
G03*
X151765000Y-106680000I0J9525000D01*
G01*
X151765000Y-106680000D02*
G75*
G03*
X142240000Y-97155000I-9525000J0D01*
G01*
X98425000Y-97155000D02*
X142240000Y-97155000D01*
X98425000Y-116205000D02*
X142240000Y-116205000D01*
D12*
X76200000Y-124460000D02*
X164465000Y-124460000D01*
D13*
X142240000Y-99060000D02*
X98425000Y-99060000D01*
X98425000Y-114300000D02*
X142240000Y-114300000D01*
X90805000Y-106680000D02*
G75*
G03*
X98425000Y-114300000I7620000J0D01*
G01*
D14*
X155595238Y-108108571D02*
X155476190Y-108299047D01*
X155119047Y-108489523D01*
X154880952Y-108489523D01*
X154523809Y-108299047D01*
X154285714Y-107918095D01*
X154166666Y-107537142D01*
X154047619Y-106775238D01*
X154047619Y-106203809D01*
X154166666Y-105441904D01*
X154285714Y-105060952D01*
X154523809Y-104680000D01*
X154880952Y-104489523D01*
X155119047Y-104489523D01*
X155476190Y-104680000D01*
X155595238Y-104870476D01*
X156666666Y-106965714D02*
X158571428Y-106965714D01*
X161071428Y-108489523D02*
X159642857Y-108489523D01*
X160357142Y-108489523D02*
X160357142Y-104489523D01*
X160119047Y-105060952D01*
X159880952Y-105441904D01*
X159642857Y-105632380D01*
X162023809Y-104870476D02*
X162142857Y-104680000D01*
X162380952Y-104489523D01*
X162976190Y-104489523D01*
X163214285Y-104680000D01*
X163333333Y-104870476D01*
X163452380Y-105251428D01*
X163452380Y-105632380D01*
X163333333Y-106203809D01*
X161904761Y-108489523D01*
X163452380Y-108489523D01*
D15*
X78962619Y-109394523D02*
X79248333Y-109489761D01*
X79724523Y-109489761D01*
X79915000Y-109394523D01*
X80010238Y-109299285D01*
X80105476Y-109108809D01*
X80105476Y-108918333D01*
X80010238Y-108727857D01*
X79915000Y-108632619D01*
X79724523Y-108537380D01*
X79343571Y-108442142D01*
X79153095Y-108346904D01*
X79057857Y-108251666D01*
X78962619Y-108061190D01*
X78962619Y-107870714D01*
X79057857Y-107680238D01*
X79153095Y-107585000D01*
X79343571Y-107489761D01*
X79819761Y-107489761D01*
X80105476Y-107585000D01*
X80962619Y-109489761D02*
X80962619Y-107489761D01*
X81915000Y-109489761D02*
X81915000Y-107489761D01*
X82391190Y-107489761D01*
X82676904Y-107585000D01*
X82867380Y-107775476D01*
X82962619Y-107965952D01*
X83057857Y-108346904D01*
X83057857Y-108632619D01*
X82962619Y-109013571D01*
X82867380Y-109204047D01*
X82676904Y-109394523D01*
X82391190Y-109489761D01*
X81915000Y-109489761D01*
X83915000Y-108442142D02*
X84581666Y-108442142D01*
X84867380Y-109489761D02*
X83915000Y-109489761D01*
X83915000Y-107489761D01*
X84867380Y-107489761D01*
D16*
X99695000Y-88900000D02*
X140970000Y-88900000D01*
X99695000Y-91440000D02*
X140970000Y-91440000D01*
D17*
X114927738Y-89955714D02*
X114927738Y-90765238D01*
X114880119Y-90860476D01*
X114832500Y-90908095D01*
X114737261Y-90955714D01*
X114594404Y-90955714D01*
X114499166Y-90908095D01*
X114927738Y-90574761D02*
X114832500Y-90622380D01*
X114642023Y-90622380D01*
X114546785Y-90574761D01*
X114499166Y-90527142D01*
X114451547Y-90431904D01*
X114451547Y-90146190D01*
X114499166Y-90050952D01*
X114546785Y-90003333D01*
X114642023Y-89955714D01*
X114832500Y-89955714D01*
X114927738Y-90003333D01*
X115403928Y-90622380D02*
X115403928Y-89955714D01*
X115403928Y-89622380D02*
X115356309Y-89670000D01*
X115403928Y-89717619D01*
X115451547Y-89670000D01*
X115403928Y-89622380D01*
X115403928Y-89717619D01*
X115737261Y-89955714D02*
X116118214Y-89955714D01*
X115880119Y-89622380D02*
X115880119Y-90479523D01*
X115927738Y-90574761D01*
X116022976Y-90622380D01*
X116118214Y-90622380D01*
X116451547Y-90622380D02*
X116451547Y-89622380D01*
X116880119Y-90622380D02*
X116880119Y-90098571D01*
X116832500Y-90003333D01*
X116737261Y-89955714D01*
X116594404Y-89955714D01*
X116499166Y-90003333D01*
X116451547Y-90050952D01*
X117784880Y-89955714D02*
X117784880Y-90622380D01*
X117356309Y-89955714D02*
X117356309Y-90479523D01*
X117403928Y-90574761D01*
X117499166Y-90622380D01*
X117642023Y-90622380D01*
X117737261Y-90574761D01*
X117784880Y-90527142D01*
X118261071Y-90622380D02*
X118261071Y-89622380D01*
X118261071Y-90003333D02*
X118356309Y-89955714D01*
X118546785Y-89955714D01*
X118642023Y-90003333D01*
X118689642Y-90050952D01*
X118737261Y-90146190D01*
X118737261Y-90431904D01*
X118689642Y-90527142D01*
X118642023Y-90574761D01*
X118546785Y-90622380D01*
X118356309Y-90622380D01*
X118261071Y-90574761D01*
X119165833Y-90527142D02*
X119213452Y-90574761D01*
X119165833Y-90622380D01*
X119118214Y-90574761D01*
X119165833Y-90527142D01*
X119165833Y-90622380D01*
X120070595Y-90574761D02*
X119975357Y-90622380D01*
X119784880Y-90622380D01*
X119689642Y-90574761D01*
X119642023Y-90527142D01*
X119594404Y-90431904D01*
X119594404Y-90146190D01*
X119642023Y-90050952D01*
X119689642Y-90003333D01*
X119784880Y-89955714D01*
X119975357Y-89955714D01*
X120070595Y-90003333D01*
X120642023Y-90622380D02*
X120546785Y-90574761D01*
X120499166Y-90527142D01*
X120451547Y-90431904D01*
X120451547Y-90146190D01*
X120499166Y-90050952D01*
X120546785Y-90003333D01*
X120642023Y-89955714D01*
X120784880Y-89955714D01*
X120880119Y-90003333D01*
X120927738Y-90050952D01*
X120975357Y-90146190D01*
X120975357Y-90431904D01*
X120927738Y-90527142D01*
X120880119Y-90574761D01*
X120784880Y-90622380D01*
X120642023Y-90622380D01*
X121403928Y-90622380D02*
X121403928Y-89955714D01*
X121403928Y-90050952D02*
X121451547Y-90003333D01*
X121546785Y-89955714D01*
X121689642Y-89955714D01*
X121784880Y-90003333D01*
X121832500Y-90098571D01*
X121832500Y-90622380D01*
X121832500Y-90098571D02*
X121880119Y-90003333D01*
X121975357Y-89955714D01*
X122118214Y-89955714D01*
X122213452Y-90003333D01*
X122261071Y-90098571D01*
X122261071Y-90622380D01*
X123451547Y-89574761D02*
X122594404Y-90860476D01*
X123642023Y-89955714D02*
X124022976Y-89955714D01*
X123784880Y-89622380D02*
X123784880Y-90479523D01*
X123832500Y-90574761D01*
X123927738Y-90622380D01*
X124022976Y-90622380D01*
X124737261Y-90574761D02*
X124642023Y-90622380D01*
X124451547Y-90622380D01*
X124356309Y-90574761D01*
X124308690Y-90479523D01*
X124308690Y-90098571D01*
X124356309Y-90003333D01*
X124451547Y-89955714D01*
X124642023Y-89955714D01*
X124737261Y-90003333D01*
X124784880Y-90098571D01*
X124784880Y-90193809D01*
X124308690Y-90289047D01*
X125213452Y-90622380D02*
X125213452Y-89622380D01*
X125213452Y-90003333D02*
X125308690Y-89955714D01*
X125499166Y-89955714D01*
X125594404Y-90003333D01*
X125642023Y-90050952D01*
X125689642Y-90146190D01*
X125689642Y-90431904D01*
X125642023Y-90527142D01*
X125594404Y-90574761D01*
X125499166Y-90622380D01*
X125308690Y-90622380D01*
X125213452Y-90574761D01*
X126261071Y-90622380D02*
X126165833Y-90574761D01*
X126118214Y-90479523D01*
X126118214Y-89622380D01*
X115022976Y-87987142D02*
X114975357Y-88034761D01*
X114832500Y-88082380D01*
X114737261Y-88082380D01*
X114594404Y-88034761D01*
X114499166Y-87939523D01*
X114451547Y-87844285D01*
X114403928Y-87653809D01*
X114403928Y-87510952D01*
X114451547Y-87320476D01*
X114499166Y-87225238D01*
X114594404Y-87130000D01*
X114737261Y-87082380D01*
X114832500Y-87082380D01*
X114975357Y-87130000D01*
X115022976Y-87177619D01*
X115880119Y-87082380D02*
X115689642Y-87082380D01*
X115594404Y-87130000D01*
X115546785Y-87177619D01*
X115451547Y-87320476D01*
X115403928Y-87510952D01*
X115403928Y-87891904D01*
X115451547Y-87987142D01*
X115499166Y-88034761D01*
X115594404Y-88082380D01*
X115784880Y-88082380D01*
X115880119Y-88034761D01*
X115927738Y-87987142D01*
X115975357Y-87891904D01*
X115975357Y-87653809D01*
X115927738Y-87558571D01*
X115880119Y-87510952D01*
X115784880Y-87463333D01*
X115594404Y-87463333D01*
X115499166Y-87510952D01*
X115451547Y-87558571D01*
X115403928Y-87653809D01*
X116832500Y-87415714D02*
X116832500Y-88082380D01*
X116594404Y-87034761D02*
X116356309Y-87749047D01*
X116975357Y-87749047D01*
X118118214Y-88082380D02*
X118118214Y-87082380D01*
X118499166Y-87082380D01*
X118594404Y-87130000D01*
X118642023Y-87177619D01*
X118689642Y-87272857D01*
X118689642Y-87415714D01*
X118642023Y-87510952D01*
X118594404Y-87558571D01*
X118499166Y-87606190D01*
X118118214Y-87606190D01*
X119261071Y-88082380D02*
X119165833Y-88034761D01*
X119118214Y-87939523D01*
X119118214Y-87082380D01*
X120070595Y-88082380D02*
X120070595Y-87558571D01*
X120022976Y-87463333D01*
X119927738Y-87415714D01*
X119737261Y-87415714D01*
X119642023Y-87463333D01*
X120070595Y-88034761D02*
X119975357Y-88082380D01*
X119737261Y-88082380D01*
X119642023Y-88034761D01*
X119594404Y-87939523D01*
X119594404Y-87844285D01*
X119642023Y-87749047D01*
X119737261Y-87701428D01*
X119975357Y-87701428D01*
X120070595Y-87653809D01*
X120451547Y-87415714D02*
X120689642Y-88082380D01*
X120927738Y-87415714D02*
X120689642Y-88082380D01*
X120594404Y-88320476D01*
X120546785Y-88368095D01*
X120451547Y-88415714D01*
X121499166Y-87082380D02*
X121689642Y-87082380D01*
X121784880Y-87130000D01*
X121880119Y-87225238D01*
X121927738Y-87415714D01*
X121927738Y-87749047D01*
X121880119Y-87939523D01*
X121784880Y-88034761D01*
X121689642Y-88082380D01*
X121499166Y-88082380D01*
X121403928Y-88034761D01*
X121308690Y-87939523D01*
X121261071Y-87749047D01*
X121261071Y-87415714D01*
X121308690Y-87225238D01*
X121403928Y-87130000D01*
X121499166Y-87082380D01*
X122356309Y-87415714D02*
X122356309Y-88082380D01*
X122356309Y-87510952D02*
X122403928Y-87463333D01*
X122499166Y-87415714D01*
X122642023Y-87415714D01*
X122737261Y-87463333D01*
X122784880Y-87558571D01*
X122784880Y-88082380D01*
X123118214Y-87082380D02*
X123689642Y-87082380D01*
X123403928Y-88082380D02*
X123403928Y-87082380D01*
X124451547Y-88082380D02*
X124451547Y-87558571D01*
X124403928Y-87463333D01*
X124308690Y-87415714D01*
X124118214Y-87415714D01*
X124022976Y-87463333D01*
X124451547Y-88034761D02*
X124356309Y-88082380D01*
X124118214Y-88082380D01*
X124022976Y-88034761D01*
X123975357Y-87939523D01*
X123975357Y-87844285D01*
X124022976Y-87749047D01*
X124118214Y-87701428D01*
X124356309Y-87701428D01*
X124451547Y-87653809D01*
X124927738Y-87415714D02*
X124927738Y-88415714D01*
X124927738Y-87463333D02*
X125022976Y-87415714D01*
X125213452Y-87415714D01*
X125308690Y-87463333D01*
X125356309Y-87510952D01*
X125403928Y-87606190D01*
X125403928Y-87891904D01*
X125356309Y-87987142D01*
X125308690Y-88034761D01*
X125213452Y-88082380D01*
X125022976Y-88082380D01*
X124927738Y-88034761D01*
X126213452Y-88034761D02*
X126118214Y-88082380D01*
X125927738Y-88082380D01*
X125832500Y-88034761D01*
X125784880Y-87939523D01*
X125784880Y-87558571D01*
X125832500Y-87463333D01*
X125927738Y-87415714D01*
X126118214Y-87415714D01*
X126213452Y-87463333D01*
X126261071Y-87558571D01*
X126261071Y-87653809D01*
X125784880Y-87749047D01*
D16*
X153670000Y-142240000D02*
X150495000Y-127000000D01*
X86995000Y-142240000D02*
X89530000Y-127000000D01*
X150495000Y-127000000D02*
X89535000Y-127000000D01*
D13*
X149860000Y-106680000D02*
G75*
G03*
X142240000Y-99060000I-7620000J0D01*
G01*
X142240000Y-114300000D02*
G75*
G03*
X149860000Y-106680000I0J7620000D01*
G01*
X98425000Y-99060000D02*
G75*
G03*
X90805000Y-106680000I0J-7620000D01*
G01*
D12*
X160655000Y-83820000D02*
X80010000Y-83820000D01*
X165100000Y-123825000D02*
X165100000Y-88265000D01*
X164465000Y-124460000D02*
G75*
G03*
X165100000Y-123825000I0J635000D01*
G01*
X75565000Y-123825000D02*
X75565000Y-88265000D01*
X75565000Y-123825000D02*
G75*
G03*
X76200000Y-124460000I635000J0D01*
G01*
X160655000Y-83820000D02*
X165100000Y-88265000D01*
X80010000Y-83820000D02*
X75565000Y-88265000D01*
D13*
X88900000Y-126365000D02*
X151130000Y-126365000D01*
X88900000Y-126365000D02*
X86360000Y-142240000D01*
X151130000Y-126365000D02*
X154305000Y-142240000D01*
D18*
G36*
X147538290Y-138225067D02*
G01*
X147483800Y-138326194D01*
X147469414Y-138342321D01*
X147427202Y-138375243D01*
X147342011Y-138432095D01*
X147220029Y-138509086D01*
X147067446Y-138602421D01*
X146890451Y-138708310D01*
X146695231Y-138822959D01*
X146516914Y-138926000D01*
X146304000Y-139048147D01*
X146097494Y-139166686D01*
X145904790Y-139277366D01*
X145733282Y-139375938D01*
X145590364Y-139458155D01*
X145483428Y-139519765D01*
X145430949Y-139550092D01*
X145285012Y-139626649D01*
X145170910Y-139665575D01*
X145079121Y-139667655D01*
X145000128Y-139633674D01*
X144948410Y-139589918D01*
X144865914Y-139507422D01*
X144865914Y-136854522D01*
X144938978Y-136767690D01*
X144971593Y-136730810D01*
X145003877Y-136702749D01*
X145040247Y-136685259D01*
X145085116Y-136680090D01*
X145142902Y-136688996D01*
X145218017Y-136713727D01*
X145314879Y-136756035D01*
X145437902Y-136817673D01*
X145591501Y-136900391D01*
X145780092Y-137005942D01*
X146008089Y-137136077D01*
X146279908Y-137292548D01*
X146319659Y-137315471D01*
X146549489Y-137448804D01*
X146765859Y-137575832D01*
X146963482Y-137693343D01*
X147137072Y-137798125D01*
X147281343Y-137886966D01*
X147391009Y-137956655D01*
X147460782Y-138003980D01*
X147483525Y-138022601D01*
X147538307Y-138121425D01*
X147538290Y-138225067D01*
G37*
X147538290Y-138225067D02*
X147483800Y-138326194D01*
X147469414Y-138342321D01*
X147427202Y-138375243D01*
X147342011Y-138432095D01*
X147220029Y-138509086D01*
X147067446Y-138602421D01*
X146890451Y-138708310D01*
X146695231Y-138822959D01*
X146516914Y-138926000D01*
X146304000Y-139048147D01*
X146097494Y-139166686D01*
X145904790Y-139277366D01*
X145733282Y-139375938D01*
X145590364Y-139458155D01*
X145483428Y-139519765D01*
X145430949Y-139550092D01*
X145285012Y-139626649D01*
X145170910Y-139665575D01*
X145079121Y-139667655D01*
X145000128Y-139633674D01*
X144948410Y-139589918D01*
X144865914Y-139507422D01*
X144865914Y-136854522D01*
X144938978Y-136767690D01*
X144971593Y-136730810D01*
X145003877Y-136702749D01*
X145040247Y-136685259D01*
X145085116Y-136680090D01*
X145142902Y-136688996D01*
X145218017Y-136713727D01*
X145314879Y-136756035D01*
X145437902Y-136817673D01*
X145591501Y-136900391D01*
X145780092Y-137005942D01*
X146008089Y-137136077D01*
X146279908Y-137292548D01*
X146319659Y-137315471D01*
X146549489Y-137448804D01*
X146765859Y-137575832D01*
X146963482Y-137693343D01*
X147137072Y-137798125D01*
X147281343Y-137886966D01*
X147391009Y-137956655D01*
X147460782Y-138003980D01*
X147483525Y-138022601D01*
X147538307Y-138121425D01*
X147538290Y-138225067D01*
G36*
X148488290Y-138225067D02*
G01*
X148433800Y-138326194D01*
X148419414Y-138342321D01*
X148377202Y-138375243D01*
X148292011Y-138432095D01*
X148170029Y-138509086D01*
X148017446Y-138602421D01*
X147840451Y-138708310D01*
X147645231Y-138822959D01*
X147466914Y-138926000D01*
X147254000Y-139048147D01*
X147047494Y-139166686D01*
X146854790Y-139277366D01*
X146683282Y-139375938D01*
X146540364Y-139458155D01*
X146433428Y-139519765D01*
X146380949Y-139550092D01*
X146235012Y-139626649D01*
X146120910Y-139665575D01*
X146029121Y-139667655D01*
X145950128Y-139633674D01*
X145898410Y-139589918D01*
X145815914Y-139507422D01*
X145815914Y-136854522D01*
X145888978Y-136767690D01*
X145921593Y-136730810D01*
X145953877Y-136702749D01*
X145990247Y-136685259D01*
X146035116Y-136680090D01*
X146092902Y-136688996D01*
X146168017Y-136713727D01*
X146264879Y-136756035D01*
X146387902Y-136817673D01*
X146541501Y-136900391D01*
X146730092Y-137005942D01*
X146958089Y-137136077D01*
X147229908Y-137292548D01*
X147269659Y-137315471D01*
X147499489Y-137448804D01*
X147715859Y-137575832D01*
X147913482Y-137693343D01*
X148087072Y-137798125D01*
X148231343Y-137886966D01*
X148341009Y-137956655D01*
X148410782Y-138003980D01*
X148433525Y-138022601D01*
X148488307Y-138121425D01*
X148488290Y-138225067D01*
G37*
X148488290Y-138225067D02*
X148433800Y-138326194D01*
X148419414Y-138342321D01*
X148377202Y-138375243D01*
X148292011Y-138432095D01*
X148170029Y-138509086D01*
X148017446Y-138602421D01*
X147840451Y-138708310D01*
X147645231Y-138822959D01*
X147466914Y-138926000D01*
X147254000Y-139048147D01*
X147047494Y-139166686D01*
X146854790Y-139277366D01*
X146683282Y-139375938D01*
X146540364Y-139458155D01*
X146433428Y-139519765D01*
X146380949Y-139550092D01*
X146235012Y-139626649D01*
X146120910Y-139665575D01*
X146029121Y-139667655D01*
X145950128Y-139633674D01*
X145898410Y-139589918D01*
X145815914Y-139507422D01*
X145815914Y-136854522D01*
X145888978Y-136767690D01*
X145921593Y-136730810D01*
X145953877Y-136702749D01*
X145990247Y-136685259D01*
X146035116Y-136680090D01*
X146092902Y-136688996D01*
X146168017Y-136713727D01*
X146264879Y-136756035D01*
X146387902Y-136817673D01*
X146541501Y-136900391D01*
X146730092Y-137005942D01*
X146958089Y-137136077D01*
X147229908Y-137292548D01*
X147269659Y-137315471D01*
X147499489Y-137448804D01*
X147715859Y-137575832D01*
X147913482Y-137693343D01*
X148087072Y-137798125D01*
X148231343Y-137886966D01*
X148341009Y-137956655D01*
X148410782Y-138003980D01*
X148433525Y-138022601D01*
X148488307Y-138121425D01*
X148488290Y-138225067D01*
G36*
X129865710Y-138126933D02*
G01*
X129920200Y-138025806D01*
X129934586Y-138009679D01*
X129976798Y-137976757D01*
X130061989Y-137919905D01*
X130183971Y-137842914D01*
X130336554Y-137749579D01*
X130513549Y-137643690D01*
X130708769Y-137529041D01*
X130887086Y-137426000D01*
X131100000Y-137303853D01*
X131306506Y-137185314D01*
X131499210Y-137074634D01*
X131670718Y-136976062D01*
X131813636Y-136893845D01*
X131920572Y-136832235D01*
X131973051Y-136801908D01*
X132118988Y-136725351D01*
X132233090Y-136686425D01*
X132324879Y-136684345D01*
X132403872Y-136718326D01*
X132455590Y-136762082D01*
X132538086Y-136844578D01*
X132538086Y-139497478D01*
X132465022Y-139584310D01*
X132432407Y-139621190D01*
X132400123Y-139649251D01*
X132363753Y-139666741D01*
X132318884Y-139671910D01*
X132261098Y-139663004D01*
X132185983Y-139638273D01*
X132089121Y-139595965D01*
X131966098Y-139534327D01*
X131812499Y-139451609D01*
X131623908Y-139346058D01*
X131395911Y-139215923D01*
X131124092Y-139059452D01*
X131084341Y-139036529D01*
X130854511Y-138903196D01*
X130638141Y-138776168D01*
X130440518Y-138658657D01*
X130266928Y-138553875D01*
X130122657Y-138465034D01*
X130012991Y-138395345D01*
X129943218Y-138348020D01*
X129920475Y-138329399D01*
X129865693Y-138230575D01*
X129865710Y-138126933D01*
G37*
X129865710Y-138126933D02*
X129920200Y-138025806D01*
X129934586Y-138009679D01*
X129976798Y-137976757D01*
X130061989Y-137919905D01*
X130183971Y-137842914D01*
X130336554Y-137749579D01*
X130513549Y-137643690D01*
X130708769Y-137529041D01*
X130887086Y-137426000D01*
X131100000Y-137303853D01*
X131306506Y-137185314D01*
X131499210Y-137074634D01*
X131670718Y-136976062D01*
X131813636Y-136893845D01*
X131920572Y-136832235D01*
X131973051Y-136801908D01*
X132118988Y-136725351D01*
X132233090Y-136686425D01*
X132324879Y-136684345D01*
X132403872Y-136718326D01*
X132455590Y-136762082D01*
X132538086Y-136844578D01*
X132538086Y-139497478D01*
X132465022Y-139584310D01*
X132432407Y-139621190D01*
X132400123Y-139649251D01*
X132363753Y-139666741D01*
X132318884Y-139671910D01*
X132261098Y-139663004D01*
X132185983Y-139638273D01*
X132089121Y-139595965D01*
X131966098Y-139534327D01*
X131812499Y-139451609D01*
X131623908Y-139346058D01*
X131395911Y-139215923D01*
X131124092Y-139059452D01*
X131084341Y-139036529D01*
X130854511Y-138903196D01*
X130638141Y-138776168D01*
X130440518Y-138658657D01*
X130266928Y-138553875D01*
X130122657Y-138465034D01*
X130012991Y-138395345D01*
X129943218Y-138348020D01*
X129920475Y-138329399D01*
X129865693Y-138230575D01*
X129865710Y-138126933D01*
G36*
X128915710Y-138126933D02*
G01*
X128970200Y-138025806D01*
X128984586Y-138009679D01*
X129026798Y-137976757D01*
X129111989Y-137919905D01*
X129233971Y-137842914D01*
X129386554Y-137749579D01*
X129563549Y-137643690D01*
X129758769Y-137529041D01*
X129937086Y-137426000D01*
X130150000Y-137303853D01*
X130356506Y-137185314D01*
X130549210Y-137074634D01*
X130720718Y-136976062D01*
X130863636Y-136893845D01*
X130970572Y-136832235D01*
X131023051Y-136801908D01*
X131168988Y-136725351D01*
X131283090Y-136686425D01*
X131374879Y-136684345D01*
X131453872Y-136718326D01*
X131505590Y-136762082D01*
X131588086Y-136844578D01*
X131588086Y-139497478D01*
X131515022Y-139584310D01*
X131482407Y-139621190D01*
X131450123Y-139649251D01*
X131413753Y-139666741D01*
X131368884Y-139671910D01*
X131311098Y-139663004D01*
X131235983Y-139638273D01*
X131139121Y-139595965D01*
X131016098Y-139534327D01*
X130862499Y-139451609D01*
X130673908Y-139346058D01*
X130445911Y-139215923D01*
X130174092Y-139059452D01*
X130134341Y-139036529D01*
X129904511Y-138903196D01*
X129688141Y-138776168D01*
X129490518Y-138658657D01*
X129316928Y-138553875D01*
X129172657Y-138465034D01*
X129062991Y-138395345D01*
X128993218Y-138348020D01*
X128970475Y-138329399D01*
X128915693Y-138230575D01*
X128915710Y-138126933D01*
G37*
X128915710Y-138126933D02*
X128970200Y-138025806D01*
X128984586Y-138009679D01*
X129026798Y-137976757D01*
X129111989Y-137919905D01*
X129233971Y-137842914D01*
X129386554Y-137749579D01*
X129563549Y-137643690D01*
X129758769Y-137529041D01*
X129937086Y-137426000D01*
X130150000Y-137303853D01*
X130356506Y-137185314D01*
X130549210Y-137074634D01*
X130720718Y-136976062D01*
X130863636Y-136893845D01*
X130970572Y-136832235D01*
X131023051Y-136801908D01*
X131168988Y-136725351D01*
X131283090Y-136686425D01*
X131374879Y-136684345D01*
X131453872Y-136718326D01*
X131505590Y-136762082D01*
X131588086Y-136844578D01*
X131588086Y-139497478D01*
X131515022Y-139584310D01*
X131482407Y-139621190D01*
X131450123Y-139649251D01*
X131413753Y-139666741D01*
X131368884Y-139671910D01*
X131311098Y-139663004D01*
X131235983Y-139638273D01*
X131139121Y-139595965D01*
X131016098Y-139534327D01*
X130862499Y-139451609D01*
X130673908Y-139346058D01*
X130445911Y-139215923D01*
X130174092Y-139059452D01*
X130134341Y-139036529D01*
X129904511Y-138903196D01*
X129688141Y-138776168D01*
X129490518Y-138658657D01*
X129316928Y-138553875D01*
X129172657Y-138465034D01*
X129062991Y-138395345D01*
X128993218Y-138348020D01*
X128970475Y-138329399D01*
X128915693Y-138230575D01*
X128915710Y-138126933D01*
G36*
X136316130Y-123014311D02*
G01*
X136875490Y-123014311D01*
X136875490Y-122200697D01*
X137409424Y-122200697D01*
X137409424Y-123293990D01*
X137129744Y-123293990D01*
X137129744Y-123573670D01*
X136850064Y-123573670D01*
X136850064Y-123853350D01*
X135756771Y-123853350D01*
X135756771Y-123573670D01*
X136595810Y-123573670D01*
X136595810Y-123293990D01*
X136036451Y-123293990D01*
X136036451Y-123014311D01*
X135756771Y-123014311D01*
X135756771Y-122200697D01*
X136316130Y-122200697D01*
X136316130Y-123014311D01*
G37*
X136316130Y-123014311D02*
X136875490Y-123014311D01*
X136875490Y-122200697D01*
X137409424Y-122200697D01*
X137409424Y-123293990D01*
X137129744Y-123293990D01*
X137129744Y-123573670D01*
X136850064Y-123573670D01*
X136850064Y-123853350D01*
X135756771Y-123853350D01*
X135756771Y-123573670D01*
X136595810Y-123573670D01*
X136595810Y-123293990D01*
X136036451Y-123293990D01*
X136036451Y-123014311D01*
X135756771Y-123014311D01*
X135756771Y-122200697D01*
X136316130Y-122200697D01*
X136316130Y-123014311D01*
G36*
X151220457Y-122334180D02*
G01*
X151228142Y-122467664D01*
X151361626Y-122475349D01*
X151495109Y-122483034D01*
X151495109Y-123011653D01*
X151361626Y-123019338D01*
X151228142Y-123027023D01*
X151220457Y-123160507D01*
X151212772Y-123293990D01*
X150401816Y-123293990D01*
X150401816Y-123853350D01*
X149842457Y-123853350D01*
X149842457Y-123014311D01*
X150401816Y-123014311D01*
X150962896Y-123014311D01*
X150955679Y-122740987D01*
X150948463Y-122467664D01*
X150675139Y-122460447D01*
X150401816Y-122453231D01*
X150401816Y-123014311D01*
X149842457Y-123014311D01*
X149842457Y-122200697D01*
X151212772Y-122200697D01*
X151220457Y-122334180D01*
G37*
X151220457Y-122334180D02*
X151228142Y-122467664D01*
X151361626Y-122475349D01*
X151495109Y-122483034D01*
X151495109Y-123011653D01*
X151361626Y-123019338D01*
X151228142Y-123027023D01*
X151220457Y-123160507D01*
X151212772Y-123293990D01*
X150401816Y-123293990D01*
X150401816Y-123853350D01*
X149842457Y-123853350D01*
X149842457Y-123014311D01*
X150401816Y-123014311D01*
X150962896Y-123014311D01*
X150955679Y-122740987D01*
X150948463Y-122467664D01*
X150675139Y-122460447D01*
X150401816Y-122453231D01*
X150401816Y-123014311D01*
X149842457Y-123014311D01*
X149842457Y-122200697D01*
X151212772Y-122200697D01*
X151220457Y-122334180D01*
G36*
X131897134Y-121774821D02*
G01*
X131904819Y-121908305D01*
X132038303Y-121915990D01*
X132171786Y-121923675D01*
X132171786Y-122452294D01*
X132038303Y-122459979D01*
X131904819Y-122467664D01*
X131897134Y-122601147D01*
X131889449Y-122734631D01*
X131078493Y-122734631D01*
X131078493Y-123573670D01*
X130519133Y-123573670D01*
X130519133Y-121921017D01*
X131078493Y-121921017D01*
X131078493Y-122482097D01*
X131351816Y-122474881D01*
X131625139Y-122467664D01*
X131632356Y-122194341D01*
X131639572Y-121921017D01*
X131078493Y-121921017D01*
X130519133Y-121921017D01*
X130519133Y-121641338D01*
X131889449Y-121641338D01*
X131897134Y-121774821D01*
G37*
X131897134Y-121774821D02*
X131904819Y-121908305D01*
X132038303Y-121915990D01*
X132171786Y-121923675D01*
X132171786Y-122452294D01*
X132038303Y-122459979D01*
X131904819Y-122467664D01*
X131897134Y-122601147D01*
X131889449Y-122734631D01*
X131078493Y-122734631D01*
X131078493Y-123573670D01*
X130519133Y-123573670D01*
X130519133Y-121921017D01*
X131078493Y-121921017D01*
X131078493Y-122482097D01*
X131351816Y-122474881D01*
X131625139Y-122467664D01*
X131632356Y-122194341D01*
X131639572Y-121921017D01*
X131078493Y-121921017D01*
X130519133Y-121921017D01*
X130519133Y-121641338D01*
X131889449Y-121641338D01*
X131897134Y-121774821D01*
G36*
X133290505Y-123293990D02*
G01*
X133544759Y-123293990D01*
X133544759Y-123573670D01*
X132451466Y-123573670D01*
X132451466Y-123293990D01*
X132731145Y-123293990D01*
X132731145Y-122200697D01*
X132451466Y-122200697D01*
X132451466Y-121921017D01*
X133290505Y-121921017D01*
X133290505Y-123293990D01*
G37*
X133290505Y-123293990D02*
X133544759Y-123293990D01*
X133544759Y-123573670D01*
X132451466Y-123573670D01*
X132451466Y-123293990D01*
X132731145Y-123293990D01*
X132731145Y-122200697D01*
X132451466Y-122200697D01*
X132451466Y-121921017D01*
X133290505Y-121921017D01*
X133290505Y-123293990D01*
G36*
X135202439Y-122334180D02*
G01*
X135210124Y-122467664D01*
X135343608Y-122475349D01*
X135477091Y-122483034D01*
X135477091Y-123573670D01*
X134104118Y-123573670D01*
X134104118Y-123293990D01*
X134383798Y-123293990D01*
X134945815Y-123293990D01*
X134938130Y-123160507D01*
X134930445Y-123027023D01*
X134657121Y-123019807D01*
X134383798Y-123012590D01*
X134383798Y-123293990D01*
X134104118Y-123293990D01*
X133824439Y-123293990D01*
X133824439Y-123014311D01*
X134104118Y-123014311D01*
X134104118Y-122734631D01*
X134945815Y-122734631D01*
X134938130Y-122601147D01*
X134930445Y-122467664D01*
X134517281Y-122460678D01*
X134104118Y-122453692D01*
X134104118Y-122200697D01*
X135194754Y-122200697D01*
X135202439Y-122334180D01*
G37*
X135202439Y-122334180D02*
X135210124Y-122467664D01*
X135343608Y-122475349D01*
X135477091Y-122483034D01*
X135477091Y-123573670D01*
X134104118Y-123573670D01*
X134104118Y-123293990D01*
X134383798Y-123293990D01*
X134945815Y-123293990D01*
X134938130Y-123160507D01*
X134930445Y-123027023D01*
X134657121Y-123019807D01*
X134383798Y-123012590D01*
X134383798Y-123293990D01*
X134104118Y-123293990D01*
X133824439Y-123293990D01*
X133824439Y-123014311D01*
X134104118Y-123014311D01*
X134104118Y-122734631D01*
X134945815Y-122734631D01*
X134938130Y-122601147D01*
X134930445Y-122467664D01*
X134517281Y-122460678D01*
X134104118Y-122453692D01*
X134104118Y-122200697D01*
X135194754Y-122200697D01*
X135202439Y-122334180D01*
G36*
X141279116Y-121774821D02*
G01*
X141286801Y-121908305D01*
X141420284Y-121915990D01*
X141553768Y-121923675D01*
X141553768Y-123293990D01*
X141274088Y-123293990D01*
X141274088Y-123573670D01*
X140180795Y-123573670D01*
X140180795Y-123293990D01*
X139901115Y-123293990D01*
X139901115Y-121921017D01*
X140180795Y-121921017D01*
X140460475Y-121921017D01*
X140460475Y-123293990D01*
X141019834Y-123293990D01*
X141019834Y-121921017D01*
X140460475Y-121921017D01*
X140180795Y-121921017D01*
X140180795Y-121641338D01*
X141271431Y-121641338D01*
X141279116Y-121774821D01*
G37*
X141279116Y-121774821D02*
X141286801Y-121908305D01*
X141420284Y-121915990D01*
X141553768Y-121923675D01*
X141553768Y-123293990D01*
X141274088Y-123293990D01*
X141274088Y-123573670D01*
X140180795Y-123573670D01*
X140180795Y-123293990D01*
X139901115Y-123293990D01*
X139901115Y-121921017D01*
X140180795Y-121921017D01*
X140460475Y-121921017D01*
X140460475Y-123293990D01*
X141019834Y-123293990D01*
X141019834Y-121921017D01*
X140460475Y-121921017D01*
X140180795Y-121921017D01*
X140180795Y-121641338D01*
X141271431Y-121641338D01*
X141279116Y-121774821D01*
G36*
X143211448Y-122334180D02*
G01*
X143219133Y-122467664D01*
X143352617Y-122475349D01*
X143486100Y-122483034D01*
X143486100Y-123573670D01*
X142953158Y-123573670D01*
X142939454Y-122467664D01*
X142666130Y-122460447D01*
X142392807Y-122453231D01*
X142392807Y-123573670D01*
X141833448Y-123573670D01*
X141833448Y-122200697D01*
X143203763Y-122200697D01*
X143211448Y-122334180D01*
G37*
X143211448Y-122334180D02*
X143219133Y-122467664D01*
X143352617Y-122475349D01*
X143486100Y-122483034D01*
X143486100Y-123573670D01*
X142953158Y-123573670D01*
X142939454Y-122467664D01*
X142666130Y-122460447D01*
X142392807Y-122453231D01*
X142392807Y-123573670D01*
X141833448Y-123573670D01*
X141833448Y-122200697D01*
X143203763Y-122200697D01*
X143211448Y-122334180D01*
G36*
X147630445Y-121921017D02*
G01*
X147071085Y-121921017D01*
X147071085Y-123573670D01*
X146537151Y-123573670D01*
X146537151Y-121921017D01*
X145977792Y-121921017D01*
X145977792Y-121641338D01*
X147630445Y-121641338D01*
X147630445Y-121921017D01*
G37*
X147630445Y-121921017D02*
X147071085Y-121921017D01*
X147071085Y-123573670D01*
X146537151Y-123573670D01*
X146537151Y-121921017D01*
X145977792Y-121921017D01*
X145977792Y-121641338D01*
X147630445Y-121641338D01*
X147630445Y-121921017D01*
G36*
X149288125Y-122334180D02*
G01*
X149295810Y-122467664D01*
X149429294Y-122475349D01*
X149562777Y-122483034D01*
X149562777Y-123573670D01*
X148189804Y-123573670D01*
X148189804Y-123293990D01*
X148469484Y-123293990D01*
X149031500Y-123293990D01*
X149023815Y-123160507D01*
X149016130Y-123027023D01*
X148742807Y-123019807D01*
X148469484Y-123012590D01*
X148469484Y-123293990D01*
X148189804Y-123293990D01*
X147910124Y-123293990D01*
X147910124Y-123014311D01*
X148189804Y-123014311D01*
X148189804Y-122734631D01*
X149031500Y-122734631D01*
X149023815Y-122601147D01*
X149016130Y-122467664D01*
X148189804Y-122453692D01*
X148189804Y-122200697D01*
X149280440Y-122200697D01*
X149288125Y-122334180D01*
G37*
X149288125Y-122334180D02*
X149295810Y-122467664D01*
X149429294Y-122475349D01*
X149562777Y-122483034D01*
X149562777Y-123573670D01*
X148189804Y-123573670D01*
X148189804Y-123293990D01*
X148469484Y-123293990D01*
X149031500Y-123293990D01*
X149023815Y-123160507D01*
X149016130Y-123027023D01*
X148742807Y-123019807D01*
X148469484Y-123012590D01*
X148469484Y-123293990D01*
X148189804Y-123293990D01*
X147910124Y-123293990D01*
X147910124Y-123014311D01*
X148189804Y-123014311D01*
X148189804Y-122734631D01*
X149031500Y-122734631D01*
X149023815Y-122601147D01*
X149016130Y-122467664D01*
X148189804Y-122453692D01*
X148189804Y-122200697D01*
X149280440Y-122200697D01*
X149288125Y-122334180D01*
G36*
X153152790Y-122334180D02*
G01*
X153160475Y-122467664D01*
X153293958Y-122475349D01*
X153427442Y-122483034D01*
X153427442Y-123014311D01*
X152334148Y-123014311D01*
X152334148Y-123293990D01*
X153147762Y-123293990D01*
X153147762Y-123573670D01*
X152054469Y-123573670D01*
X152054469Y-123293990D01*
X151774789Y-123293990D01*
X151774789Y-122734631D01*
X152334148Y-122734631D01*
X152896165Y-122734631D01*
X152888480Y-122601147D01*
X152880795Y-122467664D01*
X152607472Y-122460447D01*
X152334148Y-122453231D01*
X152334148Y-122734631D01*
X151774789Y-122734631D01*
X151774789Y-122483034D01*
X151908272Y-122475349D01*
X152041756Y-122467664D01*
X152049441Y-122334180D01*
X152057126Y-122200697D01*
X153145105Y-122200697D01*
X153152790Y-122334180D01*
G37*
X153152790Y-122334180D02*
X153160475Y-122467664D01*
X153293958Y-122475349D01*
X153427442Y-122483034D01*
X153427442Y-123014311D01*
X152334148Y-123014311D01*
X152334148Y-123293990D01*
X153147762Y-123293990D01*
X153147762Y-123573670D01*
X152054469Y-123573670D01*
X152054469Y-123293990D01*
X151774789Y-123293990D01*
X151774789Y-122734631D01*
X152334148Y-122734631D01*
X152896165Y-122734631D01*
X152888480Y-122601147D01*
X152880795Y-122467664D01*
X152607472Y-122460447D01*
X152334148Y-122453231D01*
X152334148Y-122734631D01*
X151774789Y-122734631D01*
X151774789Y-122483034D01*
X151908272Y-122475349D01*
X152041756Y-122467664D01*
X152049441Y-122334180D01*
X152057126Y-122200697D01*
X153145105Y-122200697D01*
X153152790Y-122334180D01*
G36*
X139443458Y-118488585D02*
G01*
X139901115Y-118488585D01*
X139901115Y-118920817D01*
X139011225Y-118920817D01*
X139011225Y-118488585D01*
X138121336Y-118488585D01*
X138121336Y-120726022D01*
X139011225Y-120726022D01*
X139011225Y-120268365D01*
X139901115Y-120268365D01*
X139901115Y-120698617D01*
X139678643Y-120705963D01*
X139456170Y-120713310D01*
X139448824Y-120935782D01*
X139441478Y-121158255D01*
X137691083Y-121158255D01*
X137683737Y-120935782D01*
X137676391Y-120713310D01*
X137453918Y-120705963D01*
X137231446Y-120698617D01*
X137231446Y-118488585D01*
X137689103Y-118488585D01*
X137689103Y-118056353D01*
X139443458Y-118056353D01*
X139443458Y-118488585D01*
G37*
X139443458Y-118488585D02*
X139901115Y-118488585D01*
X139901115Y-118920817D01*
X139011225Y-118920817D01*
X139011225Y-118488585D01*
X138121336Y-118488585D01*
X138121336Y-120726022D01*
X139011225Y-120726022D01*
X139011225Y-120268365D01*
X139901115Y-120268365D01*
X139901115Y-120698617D01*
X139678643Y-120705963D01*
X139456170Y-120713310D01*
X139448824Y-120935782D01*
X139441478Y-121158255D01*
X137691083Y-121158255D01*
X137683737Y-120935782D01*
X137676391Y-120713310D01*
X137453918Y-120705963D01*
X137231446Y-120698617D01*
X137231446Y-118488585D01*
X137689103Y-118488585D01*
X137689103Y-118056353D01*
X139443458Y-118056353D01*
X139443458Y-118488585D01*
G36*
X142545360Y-118488585D02*
G01*
X143003017Y-118488585D01*
X143003017Y-118920817D01*
X142113127Y-118920817D01*
X142113127Y-118488585D01*
X141223237Y-118488585D01*
X141223237Y-119378475D01*
X142543380Y-119378475D01*
X142550726Y-119600947D01*
X142558072Y-119823420D01*
X142780545Y-119830766D01*
X143003017Y-119838112D01*
X143003017Y-120698617D01*
X142780545Y-120705963D01*
X142558072Y-120713310D01*
X142550726Y-120935782D01*
X142543380Y-121158255D01*
X140792985Y-121158255D01*
X140785639Y-120935782D01*
X140778293Y-120713310D01*
X140555820Y-120705963D01*
X140333348Y-120698617D01*
X140333348Y-119810707D01*
X141223237Y-119810707D01*
X141223237Y-120726022D01*
X142113127Y-120726022D01*
X142113127Y-119810707D01*
X141223237Y-119810707D01*
X140333348Y-119810707D01*
X140333348Y-118488585D01*
X140791005Y-118488585D01*
X140791005Y-118056353D01*
X142545360Y-118056353D01*
X142545360Y-118488585D01*
G37*
X142545360Y-118488585D02*
X143003017Y-118488585D01*
X143003017Y-118920817D01*
X142113127Y-118920817D01*
X142113127Y-118488585D01*
X141223237Y-118488585D01*
X141223237Y-119378475D01*
X142543380Y-119378475D01*
X142550726Y-119600947D01*
X142558072Y-119823420D01*
X142780545Y-119830766D01*
X143003017Y-119838112D01*
X143003017Y-120698617D01*
X142780545Y-120705963D01*
X142558072Y-120713310D01*
X142550726Y-120935782D01*
X142543380Y-121158255D01*
X140792985Y-121158255D01*
X140785639Y-120935782D01*
X140778293Y-120713310D01*
X140555820Y-120705963D01*
X140333348Y-120698617D01*
X140333348Y-119810707D01*
X141223237Y-119810707D01*
X141223237Y-120726022D01*
X142113127Y-120726022D01*
X142113127Y-119810707D01*
X141223237Y-119810707D01*
X140333348Y-119810707D01*
X140333348Y-118488585D01*
X140791005Y-118488585D01*
X140791005Y-118056353D01*
X142545360Y-118056353D01*
X142545360Y-118488585D01*
G36*
X146104919Y-119836132D02*
G01*
X146537151Y-119836132D01*
X146537151Y-120268365D01*
X146104919Y-120268365D01*
X146104919Y-121158255D01*
X145215029Y-121158255D01*
X145215029Y-120268365D01*
X143435249Y-120268365D01*
X143435249Y-119378475D01*
X144325139Y-119378475D01*
X144325139Y-119836132D01*
X145215029Y-119836132D01*
X145215029Y-119378475D01*
X144325139Y-119378475D01*
X144325139Y-118948222D01*
X144547612Y-118940876D01*
X144770084Y-118933530D01*
X144777431Y-118711057D01*
X144784777Y-118488585D01*
X145215029Y-118488585D01*
X145215029Y-118056353D01*
X146104919Y-118056353D01*
X146104919Y-119836132D01*
G37*
X146104919Y-119836132D02*
X146537151Y-119836132D01*
X146537151Y-120268365D01*
X146104919Y-120268365D01*
X146104919Y-121158255D01*
X145215029Y-121158255D01*
X145215029Y-120268365D01*
X143435249Y-120268365D01*
X143435249Y-119378475D01*
X144325139Y-119378475D01*
X144325139Y-119836132D01*
X145215029Y-119836132D01*
X145215029Y-119378475D01*
X144325139Y-119378475D01*
X144325139Y-118948222D01*
X144547612Y-118940876D01*
X144770084Y-118933530D01*
X144777431Y-118711057D01*
X144784777Y-118488585D01*
X145215029Y-118488585D01*
X145215029Y-118056353D01*
X146104919Y-118056353D01*
X146104919Y-119836132D01*
D19*
X71060000Y-93920000D02*
X72390000Y-93920000D01*
X71060000Y-95250000D02*
X71060000Y-93920000D01*
X71060000Y-96520000D02*
X73720000Y-96520000D01*
X73720000Y-96520000D02*
X73720000Y-119440000D01*
X71060000Y-96520000D02*
X71060000Y-119440000D01*
X71060000Y-119440000D02*
X73720000Y-119440000D01*
X75946000Y-139065000D02*
G75*
G03*
X75946000Y-139065000I-2286000J0D01*
G01*
X169291000Y-139065000D02*
G75*
G03*
X169291000Y-139065000I-2286000J0D01*
G01*
X169291000Y-81280000D02*
G75*
G03*
X169291000Y-81280000I-2286000J0D01*
G01*
X75946000Y-81280000D02*
G75*
G03*
X75946000Y-81280000I-2286000J0D01*
G01*
D18*
G36*
X88918908Y-136706653D02*
G01*
X89047678Y-136758817D01*
X89154590Y-136816790D01*
X89228716Y-136859672D01*
X89344528Y-136926514D01*
X89494779Y-137013140D01*
X89672224Y-137115375D01*
X89869614Y-137229044D01*
X90079705Y-137349971D01*
X90262157Y-137454946D01*
X90469420Y-137575216D01*
X90662816Y-137689434D01*
X90836437Y-137793960D01*
X90984377Y-137885154D01*
X91100728Y-137959376D01*
X91179583Y-138012987D01*
X91214657Y-138041852D01*
X91264411Y-138143950D01*
X91258984Y-138248631D01*
X91198849Y-138349050D01*
X91193056Y-138355268D01*
X91150981Y-138387908D01*
X91065861Y-138444512D01*
X90943827Y-138521335D01*
X90791008Y-138614631D01*
X90613534Y-138720653D01*
X90417534Y-138835656D01*
X90226445Y-138945985D01*
X90012735Y-139068491D01*
X89806226Y-139186994D01*
X89614090Y-139297366D01*
X89443501Y-139395484D01*
X89301634Y-139477220D01*
X89195663Y-139538449D01*
X89140337Y-139570605D01*
X88990930Y-139647847D01*
X88872405Y-139684122D01*
X88777288Y-139679877D01*
X88698106Y-139635555D01*
X88662620Y-139599057D01*
X88589556Y-139512225D01*
X88589556Y-136867998D01*
X88662620Y-136781166D01*
X88734188Y-136718393D01*
X88817014Y-136693367D01*
X88918908Y-136706653D01*
G37*
X88918908Y-136706653D02*
X89047678Y-136758817D01*
X89154590Y-136816790D01*
X89228716Y-136859672D01*
X89344528Y-136926514D01*
X89494779Y-137013140D01*
X89672224Y-137115375D01*
X89869614Y-137229044D01*
X90079705Y-137349971D01*
X90262157Y-137454946D01*
X90469420Y-137575216D01*
X90662816Y-137689434D01*
X90836437Y-137793960D01*
X90984377Y-137885154D01*
X91100728Y-137959376D01*
X91179583Y-138012987D01*
X91214657Y-138041852D01*
X91264411Y-138143950D01*
X91258984Y-138248631D01*
X91198849Y-138349050D01*
X91193056Y-138355268D01*
X91150981Y-138387908D01*
X91065861Y-138444512D01*
X90943827Y-138521335D01*
X90791008Y-138614631D01*
X90613534Y-138720653D01*
X90417534Y-138835656D01*
X90226445Y-138945985D01*
X90012735Y-139068491D01*
X89806226Y-139186994D01*
X89614090Y-139297366D01*
X89443501Y-139395484D01*
X89301634Y-139477220D01*
X89195663Y-139538449D01*
X89140337Y-139570605D01*
X88990930Y-139647847D01*
X88872405Y-139684122D01*
X88777288Y-139679877D01*
X88698106Y-139635555D01*
X88662620Y-139599057D01*
X88589556Y-139512225D01*
X88589556Y-136867998D01*
X88662620Y-136781166D01*
X88734188Y-136718393D01*
X88817014Y-136693367D01*
X88918908Y-136706653D01*
G36*
X106073162Y-136738047D02*
G01*
X106230687Y-136846139D01*
X106346341Y-136991905D01*
X106409182Y-137139135D01*
X106421565Y-137210607D01*
X106431771Y-137329511D01*
X106439807Y-137486879D01*
X106445677Y-137673741D01*
X106449387Y-137881126D01*
X106450943Y-138100066D01*
X106450350Y-138321590D01*
X106447613Y-138536730D01*
X106442738Y-138736515D01*
X106435731Y-138911977D01*
X106426597Y-139054145D01*
X106415341Y-139154050D01*
X106407935Y-139188787D01*
X106331715Y-139360619D01*
X106216007Y-139493723D01*
X106076248Y-139584194D01*
X105928807Y-139657667D01*
X104939515Y-139655439D01*
X104658608Y-139653939D01*
X104413470Y-139650858D01*
X104208102Y-139646314D01*
X104046502Y-139640426D01*
X103932670Y-139633312D01*
X103870605Y-139625091D01*
X103865556Y-139623615D01*
X103712728Y-139541563D01*
X103580881Y-139413254D01*
X103520463Y-139325100D01*
X103442223Y-139192000D01*
X103433794Y-138226449D01*
X103432200Y-137934625D01*
X103432806Y-137683267D01*
X103435547Y-137475638D01*
X103440359Y-137314999D01*
X103447178Y-137204612D01*
X103454877Y-137151299D01*
X103526375Y-136987534D01*
X103640970Y-136846661D01*
X103786411Y-136743303D01*
X103803738Y-136734865D01*
X103843550Y-136716792D01*
X103881475Y-136702230D01*
X103923837Y-136690798D01*
X103976959Y-136682116D01*
X104047164Y-136675802D01*
X104140775Y-136671474D01*
X104264114Y-136668752D01*
X104423504Y-136667254D01*
X104625269Y-136666599D01*
X104875731Y-136666406D01*
X104939515Y-136666387D01*
X105928807Y-136666112D01*
X106073162Y-136738047D01*
G37*
X106073162Y-136738047D02*
X106230687Y-136846139D01*
X106346341Y-136991905D01*
X106409182Y-137139135D01*
X106421565Y-137210607D01*
X106431771Y-137329511D01*
X106439807Y-137486879D01*
X106445677Y-137673741D01*
X106449387Y-137881126D01*
X106450943Y-138100066D01*
X106450350Y-138321590D01*
X106447613Y-138536730D01*
X106442738Y-138736515D01*
X106435731Y-138911977D01*
X106426597Y-139054145D01*
X106415341Y-139154050D01*
X106407935Y-139188787D01*
X106331715Y-139360619D01*
X106216007Y-139493723D01*
X106076248Y-139584194D01*
X105928807Y-139657667D01*
X104939515Y-139655439D01*
X104658608Y-139653939D01*
X104413470Y-139650858D01*
X104208102Y-139646314D01*
X104046502Y-139640426D01*
X103932670Y-139633312D01*
X103870605Y-139625091D01*
X103865556Y-139623615D01*
X103712728Y-139541563D01*
X103580881Y-139413254D01*
X103520463Y-139325100D01*
X103442223Y-139192000D01*
X103433794Y-138226449D01*
X103432200Y-137934625D01*
X103432806Y-137683267D01*
X103435547Y-137475638D01*
X103440359Y-137314999D01*
X103447178Y-137204612D01*
X103454877Y-137151299D01*
X103526375Y-136987534D01*
X103640970Y-136846661D01*
X103786411Y-136743303D01*
X103803738Y-136734865D01*
X103843550Y-136716792D01*
X103881475Y-136702230D01*
X103923837Y-136690798D01*
X103976959Y-136682116D01*
X104047164Y-136675802D01*
X104140775Y-136671474D01*
X104264114Y-136668752D01*
X104423504Y-136667254D01*
X104625269Y-136666599D01*
X104875731Y-136666406D01*
X104939515Y-136666387D01*
X105928807Y-136666112D01*
X106073162Y-136738047D01*
D15*
X72056666Y-92372380D02*
X72056666Y-93086666D01*
X72009047Y-93229523D01*
X71913809Y-93324761D01*
X71770952Y-93372380D01*
X71675714Y-93372380D01*
X72485238Y-92467619D02*
X72532857Y-92420000D01*
X72628095Y-92372380D01*
X72866190Y-92372380D01*
X72961428Y-92420000D01*
X73009047Y-92467619D01*
X73056666Y-92562857D01*
X73056666Y-92658095D01*
X73009047Y-92800952D01*
X72437619Y-93372380D01*
X73056666Y-93372380D01*
M02*
